<svg width="49" height="49" viewBox="0 0 49 49" fill="none" xmlns="http://www.w3.org/2000/svg">
<path d="M38.7916 27.5C40.4485 27.5 41.7916 26.1569 41.7916 24.5C41.7916 22.8431 40.4485 21.5 38.7916 21.5V27.5ZM10.2083 21.5C8.55146 21.5 7.20831 22.8431 7.20831 24.5C7.20831 26.1569 8.55146 27.5 10.2083 27.5L10.2083 21.5ZM38.7916 21.5L10.2083 21.5L10.2083 27.5L38.7916 27.5V21.5Z" fill="white"/>
<path d="M20.337 38.8713C21.5086 40.0429 23.4081 40.0429 24.5796 38.8713C25.7512 37.6997 25.7512 35.8003 24.5796 34.6287L20.337 38.8713ZM10.2083 24.5L8.08699 22.3787C7.52438 22.9413 7.20831 23.7043 7.20831 24.5C7.20831 25.2956 7.52438 26.0587 8.08699 26.6213L10.2083 24.5ZM24.5796 14.3713C25.7512 13.1997 25.7512 11.3003 24.5796 10.1287C23.4081 8.95711 21.5086 8.95711 20.337 10.1287L24.5796 14.3713ZM24.5796 34.6287L12.3296 22.3787L8.08699 26.6213L20.337 38.8713L24.5796 34.6287ZM12.3296 26.6213L24.5796 14.3713L20.337 10.1287L8.08699 22.3787L12.3296 26.6213Z" fill="white"/>
</svg>
