<svg width="1194" height="834" viewBox="0 0 1194 834" fill="none" xmlns="http://www.w3.org/2000/svg">
<g clip-path="url(#clip0_21_2)">
<rect width="1194" height="834" fill="url(#paint0_linear_21_2)"/>
<path d="M119 104C119 47.1147 165.115 1 222 1H1201V835H119V104Z" fill="white"/>
<path d="M585.32 58L585.284 42.88L577.868 55.336H575.24L567.86 43.204V58H562.388V32.8H567.212L576.644 48.46L585.932 32.8H590.72L590.792 58H585.32ZM596.375 38.632H601.991V58H596.375V38.632ZM599.183 35.932C598.151 35.932 597.311 35.632 596.663 35.032C596.015 34.432 595.691 33.688 595.691 32.8C595.691 31.912 596.015 31.168 596.663 30.568C597.311 29.968 598.151 29.668 599.183 29.668C600.215 29.668 601.055 29.956 601.703 30.532C602.351 31.108 602.675 31.828 602.675 32.692C602.675 33.628 602.351 34.408 601.703 35.032C601.055 35.632 600.215 35.932 599.183 35.932ZM637.307 53.32V58H617.795V32.8H636.839V37.48H623.591V42.952H635.291V47.488H623.591V53.32H637.307ZM647.926 58.288C646.318 58.288 644.746 58.096 643.21 57.712C641.674 57.304 640.45 56.8 639.538 56.2L641.41 52.168C642.274 52.72 643.318 53.176 644.542 53.536C645.766 53.872 646.966 54.04 648.142 54.04C650.518 54.04 651.706 53.452 651.706 52.276C651.706 51.724 651.382 51.328 650.734 51.088C650.086 50.848 649.09 50.644 647.746 50.476C646.162 50.236 644.854 49.96 643.822 49.648C642.79 49.336 641.89 48.784 641.122 47.992C640.378 47.2 640.006 46.072 640.006 44.608C640.006 43.384 640.354 42.304 641.05 41.368C641.77 40.408 642.802 39.664 644.146 39.136C645.514 38.608 647.122 38.344 648.97 38.344C650.338 38.344 651.694 38.5 653.038 38.812C654.406 39.1 655.534 39.508 656.422 40.036L654.55 44.032C652.846 43.072 650.986 42.592 648.97 42.592C647.77 42.592 646.87 42.76 646.27 43.096C645.67 43.432 645.37 43.864 645.37 44.392C645.37 44.992 645.694 45.412 646.342 45.652C646.99 45.892 648.022 46.12 649.438 46.336C651.022 46.6 652.318 46.888 653.326 47.2C654.334 47.488 655.21 48.028 655.954 48.82C656.698 49.612 657.07 50.716 657.07 52.132C657.07 53.332 656.71 54.4 655.99 55.336C655.27 56.272 654.214 57.004 652.822 57.532C651.454 58.036 649.822 58.288 647.926 58.288ZM671.983 38.344C673.783 38.344 675.415 38.764 676.879 39.604C678.367 40.42 679.531 41.584 680.371 43.096C681.211 44.584 681.631 46.324 681.631 48.316C681.631 50.308 681.211 52.06 680.371 53.572C679.531 55.06 678.367 56.224 676.879 57.064C675.415 57.88 673.783 58.288 671.983 58.288C669.511 58.288 667.567 57.508 666.151 55.948V64.984H660.535V38.632H665.899V40.864C667.291 39.184 669.319 38.344 671.983 38.344ZM671.011 53.68C672.451 53.68 673.627 53.2 674.539 52.24C675.475 51.256 675.943 49.948 675.943 48.316C675.943 46.684 675.475 45.388 674.539 44.428C673.627 43.444 672.451 42.952 671.011 42.952C669.571 42.952 668.383 43.444 667.447 44.428C666.535 45.388 666.079 46.684 666.079 48.316C666.079 49.948 666.535 51.256 667.447 52.24C668.383 53.2 669.571 53.68 671.011 53.68ZM692.886 38.344C695.886 38.344 698.19 39.064 699.798 40.504C701.406 41.92 702.21 44.068 702.21 46.948V58H696.954V55.588C695.898 57.388 693.93 58.288 691.05 58.288C689.562 58.288 688.266 58.036 687.162 57.532C686.082 57.028 685.254 56.332 684.678 55.444C684.102 54.556 683.814 53.548 683.814 52.42C683.814 50.62 684.486 49.204 685.83 48.172C687.198 47.14 689.298 46.624 692.13 46.624H696.594C696.594 45.4 696.222 44.464 695.478 43.816C694.734 43.144 693.618 42.808 692.13 42.808C691.098 42.808 690.078 42.976 689.07 43.312C688.086 43.624 687.246 44.056 686.55 44.608L684.534 40.684C685.59 39.94 686.85 39.364 688.314 38.956C689.802 38.548 691.326 38.344 692.886 38.344ZM692.454 54.508C693.414 54.508 694.266 54.292 695.01 53.86C695.754 53.404 696.282 52.744 696.594 51.88V49.9H692.742C690.438 49.9 689.286 50.656 689.286 52.168C689.286 52.888 689.562 53.464 690.114 53.896C690.69 54.304 691.47 54.508 692.454 54.508ZM716.864 58.288C714.8 58.288 712.94 57.868 711.284 57.028C709.652 56.164 708.368 54.976 707.432 53.464C706.52 51.952 706.064 50.236 706.064 48.316C706.064 46.396 706.52 44.68 707.432 43.168C708.368 41.656 709.652 40.48 711.284 39.64C712.94 38.776 714.8 38.344 716.864 38.344C718.904 38.344 720.68 38.776 722.192 39.64C723.728 40.48 724.844 41.692 725.54 43.276L721.184 45.616C720.176 43.84 718.724 42.952 716.828 42.952C715.364 42.952 714.152 43.432 713.192 44.392C712.232 45.352 711.752 46.66 711.752 48.316C711.752 49.972 712.232 51.28 713.192 52.24C714.152 53.2 715.364 53.68 716.828 53.68C718.748 53.68 720.2 52.792 721.184 51.016L725.54 53.392C724.844 54.928 723.728 56.128 722.192 56.992C720.68 57.856 718.904 58.288 716.864 58.288ZM728.774 38.632H734.39V58H728.774V38.632ZM731.582 35.932C730.55 35.932 729.71 35.632 729.062 35.032C728.414 34.432 728.09 33.688 728.09 32.8C728.09 31.912 728.414 31.168 729.062 30.568C729.71 29.968 730.55 29.668 731.582 29.668C732.614 29.668 733.454 29.956 734.102 30.532C734.75 31.108 735.074 31.828 735.074 32.692C735.074 33.628 734.75 34.408 734.102 35.032C733.454 35.632 732.614 35.932 731.582 35.932ZM748.818 58.288C746.778 58.288 744.942 57.868 743.31 57.028C741.702 56.164 740.442 54.976 739.53 53.464C738.618 51.952 738.162 50.236 738.162 48.316C738.162 46.396 738.618 44.68 739.53 43.168C740.442 41.656 741.702 40.48 743.31 39.64C744.942 38.776 746.778 38.344 748.818 38.344C750.858 38.344 752.682 38.776 754.29 39.64C755.898 40.48 757.158 41.656 758.07 43.168C758.982 44.68 759.438 46.396 759.438 48.316C759.438 50.236 758.982 51.952 758.07 53.464C757.158 54.976 755.898 56.164 754.29 57.028C752.682 57.868 750.858 58.288 748.818 58.288ZM748.818 53.68C750.258 53.68 751.434 53.2 752.346 52.24C753.282 51.256 753.75 49.948 753.75 48.316C753.75 46.684 753.282 45.388 752.346 44.428C751.434 43.444 750.258 42.952 748.818 42.952C747.378 42.952 746.19 43.444 745.254 44.428C744.318 45.388 743.85 46.684 743.85 48.316C743.85 49.948 744.318 51.256 745.254 52.24C746.19 53.2 747.378 53.68 748.818 53.68Z" fill="#D880A6"/>
<path d="M240.58 106L237.88 102.1H237.72H234.9V106H231.66V92H237.72C238.96 92 240.033 92.2067 240.94 92.62C241.86 93.0333 242.567 93.62 243.06 94.38C243.553 95.14 243.8 96.04 243.8 97.08C243.8 98.12 243.547 99.02 243.04 99.78C242.547 100.527 241.84 101.1 240.92 101.5L244.06 106H240.58ZM240.52 97.08C240.52 96.2933 240.267 95.6933 239.76 95.28C239.253 94.8533 238.513 94.64 237.54 94.64H234.9V99.52H237.54C238.513 99.52 239.253 99.3067 239.76 98.88C240.267 98.4533 240.52 97.8533 240.52 97.08ZM257.207 103.4V106H246.367V92H256.947V94.6H249.587V97.64H256.087V100.16H249.587V103.4H257.207ZM266.005 106.24C264.005 106.24 262.445 105.687 261.325 104.58C260.218 103.473 259.665 101.893 259.665 99.84V92H262.905V99.72C262.905 102.227 263.945 103.48 266.025 103.48C267.038 103.48 267.812 103.18 268.345 102.58C268.878 101.967 269.145 101.013 269.145 99.72V92H272.345V99.84C272.345 101.893 271.785 103.473 270.665 104.58C269.558 105.687 268.005 106.24 266.005 106.24ZM288.387 92V106H285.727L278.747 97.5V106H275.547V92H278.227L285.187 100.5V92H288.387ZM291.699 92H294.939V106H291.699V92ZM305.042 106.24C303.588 106.24 302.275 105.927 301.102 105.3C299.942 104.673 299.028 103.813 298.362 102.72C297.708 101.613 297.382 100.373 297.382 99C297.382 97.6267 297.708 96.3933 298.362 95.3C299.028 94.1933 299.942 93.3267 301.102 92.7C302.275 92.0733 303.588 91.76 305.042 91.76C306.495 91.76 307.802 92.0733 308.962 92.7C310.122 93.3267 311.035 94.1933 311.702 95.3C312.368 96.3933 312.702 97.6267 312.702 99C312.702 100.373 312.368 101.613 311.702 102.72C311.035 103.813 310.122 104.673 308.962 105.3C307.802 105.927 306.495 106.24 305.042 106.24ZM305.042 103.48C305.868 103.48 306.615 103.293 307.282 102.92C307.948 102.533 308.468 102 308.842 101.32C309.228 100.64 309.422 99.8667 309.422 99C309.422 98.1333 309.228 97.36 308.842 96.68C308.468 96 307.948 95.4733 307.282 95.1C306.615 94.7133 305.868 94.52 305.042 94.52C304.215 94.52 303.468 94.7133 302.802 95.1C302.135 95.4733 301.608 96 301.222 96.68C300.848 97.36 300.662 98.1333 300.662 99C300.662 99.8667 300.848 100.64 301.222 101.32C301.608 102 302.135 102.533 302.802 102.92C303.468 103.293 304.215 103.48 305.042 103.48ZM327.977 92V106H325.317L318.337 97.5V106H315.137V92H317.817L324.777 100.5V92H327.977ZM342.129 103.4V106H331.289V92H341.869V94.6H334.509V97.64H341.009V100.16H334.509V103.4H342.129ZM349.307 106.24C348.2 106.24 347.127 106.093 346.087 105.8C345.06 105.493 344.234 105.1 343.607 104.62L344.707 102.18C345.307 102.62 346.02 102.973 346.847 103.24C347.674 103.507 348.5 103.64 349.327 103.64C350.247 103.64 350.927 103.507 351.367 103.24C351.807 102.96 352.027 102.593 352.027 102.14C352.027 101.807 351.894 101.533 351.627 101.32C351.374 101.093 351.04 100.913 350.627 100.78C350.227 100.647 349.68 100.5 348.987 100.34C347.92 100.087 347.047 99.8333 346.367 99.58C345.687 99.3267 345.1 98.92 344.607 98.36C344.127 97.8 343.887 97.0533 343.887 96.12C343.887 95.3067 344.107 94.5733 344.547 93.92C344.987 93.2533 345.647 92.7267 346.527 92.34C347.42 91.9533 348.507 91.76 349.787 91.76C350.68 91.76 351.554 91.8667 352.407 92.08C353.26 92.2933 354.007 92.6 354.647 93L353.647 95.46C352.354 94.7267 351.06 94.36 349.767 94.36C348.86 94.36 348.187 94.5067 347.747 94.8C347.32 95.0933 347.107 95.48 347.107 95.96C347.107 96.44 347.354 96.8 347.847 97.04C348.354 97.2667 349.12 97.4933 350.147 97.72C351.214 97.9733 352.087 98.2267 352.767 98.48C353.447 98.7333 354.027 99.1333 354.507 99.68C355 100.227 355.247 100.967 355.247 101.9C355.247 102.7 355.02 103.433 354.567 104.1C354.127 104.753 353.46 105.273 352.567 105.66C351.674 106.047 350.587 106.24 349.307 106.24Z" fill="#D880A6"/>
<path d="M53 233.75C64.598 233.75 74 224.012 74 212C74 199.988 64.598 190.25 53 190.25C41.402 190.25 32 199.988 32 212C32 224.012 41.402 233.75 53 233.75Z" stroke="white" stroke-width="5" stroke-miterlimit="10" stroke-linecap="round" stroke-linejoin="round"/>
<path d="M43.6667 212H62.3334" stroke="white" stroke-width="5" stroke-linecap="round" stroke-linejoin="round"/>
<path d="M53 221.667L53 202.333" stroke="white" stroke-width="5" stroke-linecap="round" stroke-linejoin="round"/>
<path d="M47.2752 767.315C46.2757 768.268 46.2377 769.85 47.1903 770.85C48.143 771.849 49.7254 771.887 50.7249 770.935L47.2752 767.315ZM57 761.5L58.7249 763.31C59.2199 762.838 59.5 762.184 59.5 761.5C59.5 760.816 59.2199 760.162 58.7249 759.69L57 761.5ZM50.7249 752.065C49.7254 751.113 48.143 751.151 47.1903 752.15C46.2377 753.15 46.2757 754.732 47.2752 755.685L50.7249 752.065ZM27.6667 759C26.286 759 25.1667 760.119 25.1667 761.5C25.1667 762.881 26.286 764 27.6667 764L27.6667 759ZM50.7249 770.935L58.7249 763.31L55.2752 759.69L47.2752 767.315L50.7249 770.935ZM58.7249 759.69L50.7249 752.065L47.2752 755.685L55.2752 763.31L58.7249 759.69ZM27.6667 764L57 764V759L27.6667 759L27.6667 764Z" fill="white"/>
<path d="M41 748.792V743.708C41 742.305 42.1939 741.167 43.6667 741.167H67.6667C69.1394 741.167 70.3333 742.305 70.3333 743.708V779.292C70.3333 780.695 69.1394 781.833 67.6667 781.833H43.6667C42.1939 781.833 41 780.695 41 779.292V774.208" stroke="white" stroke-width="5" stroke-linecap="round" stroke-linejoin="round"/>
<path d="M23.9633 148.168C22.9647 148.168 22.0593 147.953 21.2473 147.524C20.4447 147.085 19.81 146.483 19.3433 145.718C18.886 144.943 18.6573 144.071 18.6573 143.1C18.6573 142.129 18.886 141.261 19.3433 140.496C19.81 139.721 20.4447 139.119 21.2473 138.69C22.0593 138.251 22.9693 138.032 23.9773 138.032C24.8267 138.032 25.592 138.181 26.2733 138.48C26.964 138.779 27.5427 139.208 28.0093 139.768L26.5533 141.112C25.8907 140.347 25.0693 139.964 24.0893 139.964C23.4827 139.964 22.9413 140.099 22.4653 140.37C21.9893 140.631 21.616 141 21.3453 141.476C21.084 141.952 20.9533 142.493 20.9533 143.1C20.9533 143.707 21.084 144.248 21.3453 144.724C21.616 145.2 21.9893 145.573 22.4653 145.844C22.9413 146.105 23.4827 146.236 24.0893 146.236C25.0693 146.236 25.8907 145.849 26.5533 145.074L28.0093 146.418C27.5427 146.987 26.964 147.421 26.2733 147.72C25.5827 148.019 24.8127 148.168 23.9633 148.168ZM32.3702 140.356C33.5369 140.356 34.4329 140.636 35.0582 141.196C35.6836 141.747 35.9962 142.582 35.9962 143.702V148H33.9522V147.062C33.5416 147.762 32.7762 148.112 31.6562 148.112C31.0776 148.112 30.5736 148.014 30.1442 147.818C29.7242 147.622 29.4022 147.351 29.1782 147.006C28.9542 146.661 28.8422 146.269 28.8422 145.83C28.8422 145.13 29.1036 144.579 29.6262 144.178C30.1582 143.777 30.9749 143.576 32.0762 143.576H33.8122C33.8122 143.1 33.6676 142.736 33.3782 142.484C33.0889 142.223 32.6549 142.092 32.0762 142.092C31.6749 142.092 31.2782 142.157 30.8862 142.288C30.5036 142.409 30.1769 142.577 29.9062 142.792L29.1222 141.266C29.5329 140.977 30.0229 140.753 30.5922 140.594C31.1709 140.435 31.7636 140.356 32.3702 140.356ZM32.2022 146.642C32.5756 146.642 32.9069 146.558 33.1962 146.39C33.4856 146.213 33.6909 145.956 33.8122 145.62V144.85H32.3142C31.4182 144.85 30.9702 145.144 30.9702 145.732C30.9702 146.012 31.0776 146.236 31.2922 146.404C31.5162 146.563 31.8196 146.642 32.2022 146.642ZM42.8308 147.636C42.6162 147.795 42.3502 147.916 42.0328 148C41.7248 148.075 41.3982 148.112 41.0528 148.112C40.1568 148.112 39.4615 147.883 38.9668 147.426C38.4815 146.969 38.2388 146.297 38.2388 145.41V142.316H37.0768V140.636H38.2388V138.802H40.4228V140.636H42.2988V142.316H40.4228V145.382C40.4228 145.699 40.5022 145.947 40.6608 146.124C40.8288 146.292 41.0622 146.376 41.3608 146.376C41.7062 146.376 42.0002 146.283 42.2428 146.096L42.8308 147.636ZM51.2024 144.262C51.2024 144.29 51.1884 144.486 51.1604 144.85H45.4624C45.5651 145.317 45.8077 145.685 46.1904 145.956C46.5731 146.227 47.0491 146.362 47.6184 146.362C48.0104 146.362 48.3557 146.306 48.6544 146.194C48.9624 146.073 49.2471 145.886 49.5084 145.634L50.6704 146.894C49.9611 147.706 48.9251 148.112 47.5624 148.112C46.7131 148.112 45.9617 147.949 45.3084 147.622C44.6551 147.286 44.1511 146.824 43.7964 146.236C43.4417 145.648 43.2644 144.981 43.2644 144.234C43.2644 143.497 43.4371 142.834 43.7824 142.246C44.1371 141.649 44.6177 141.187 45.2244 140.86C45.8404 140.524 46.5264 140.356 47.2824 140.356C48.0197 140.356 48.6871 140.515 49.2844 140.832C49.8817 141.149 50.3484 141.607 50.6844 142.204C51.0297 142.792 51.2024 143.478 51.2024 144.262ZM47.2964 142.008C46.8017 142.008 46.3864 142.148 46.0504 142.428C45.7144 142.708 45.5091 143.091 45.4344 143.576H49.1444C49.0697 143.1 48.8644 142.722 48.5284 142.442C48.1924 142.153 47.7817 142.008 47.2964 142.008ZM60.4264 140.468V146.74C60.4264 148.121 60.0671 149.148 59.3484 149.82C58.6298 150.492 57.5798 150.828 56.1984 150.828C55.4704 150.828 54.7798 150.739 54.1264 150.562C53.4731 150.385 52.9318 150.128 52.5024 149.792L53.3704 148.224C53.6878 148.485 54.0891 148.691 54.5744 148.84C55.0598 148.999 55.5451 149.078 56.0304 149.078C56.7864 149.078 57.3418 148.905 57.6964 148.56C58.0604 148.224 58.2424 147.711 58.2424 147.02V146.698C57.6731 147.323 56.8798 147.636 55.8624 147.636C55.1718 147.636 54.5371 147.487 53.9584 147.188C53.3891 146.88 52.9364 146.451 52.6004 145.9C52.2644 145.349 52.0964 144.715 52.0964 143.996C52.0964 143.277 52.2644 142.643 52.6004 142.092C52.9364 141.541 53.3891 141.117 53.9584 140.818C54.5371 140.51 55.1718 140.356 55.8624 140.356C56.9544 140.356 57.7851 140.715 58.3544 141.434V140.468H60.4264ZM56.2964 145.844C56.8751 145.844 57.3464 145.676 57.7104 145.34C58.0838 144.995 58.2704 144.547 58.2704 143.996C58.2704 143.445 58.0838 143.002 57.7104 142.666C57.3464 142.321 56.8751 142.148 56.2964 142.148C55.7178 142.148 55.2418 142.321 54.8684 142.666C54.4951 143.002 54.3084 143.445 54.3084 143.996C54.3084 144.547 54.4951 144.995 54.8684 145.34C55.2418 145.676 55.7178 145.844 56.2964 145.844ZM66.0432 148.112C65.2498 148.112 64.5358 147.949 63.9012 147.622C63.2758 147.286 62.7858 146.824 62.4312 146.236C62.0765 145.648 61.8992 144.981 61.8992 144.234C61.8992 143.487 62.0765 142.82 62.4312 142.232C62.7858 141.644 63.2758 141.187 63.9012 140.86C64.5358 140.524 65.2498 140.356 66.0432 140.356C66.8365 140.356 67.5458 140.524 68.1712 140.86C68.7965 141.187 69.2865 141.644 69.6412 142.232C69.9958 142.82 70.1732 143.487 70.1732 144.234C70.1732 144.981 69.9958 145.648 69.6412 146.236C69.2865 146.824 68.7965 147.286 68.1712 147.622C67.5458 147.949 66.8365 148.112 66.0432 148.112ZM66.0432 146.32C66.6032 146.32 67.0605 146.133 67.4152 145.76C67.7792 145.377 67.9612 144.869 67.9612 144.234C67.9612 143.599 67.7792 143.095 67.4152 142.722C67.0605 142.339 66.6032 142.148 66.0432 142.148C65.4832 142.148 65.0212 142.339 64.6572 142.722C64.2932 143.095 64.1112 143.599 64.1112 144.234C64.1112 144.869 64.2932 145.377 64.6572 145.76C65.0212 146.133 65.4832 146.32 66.0432 146.32ZM73.719 141.462C73.9803 141.098 74.3303 140.823 74.769 140.636C75.217 140.449 75.7303 140.356 76.309 140.356V142.372C76.0663 142.353 75.903 142.344 75.819 142.344C75.1937 142.344 74.7037 142.521 74.349 142.876C73.9943 143.221 73.817 143.744 73.817 144.444V148H71.633V140.468H73.719V141.462ZM77.6076 140.468H79.7916V148H77.6076V140.468ZM78.6996 139.418C78.2983 139.418 77.9716 139.301 77.7196 139.068C77.4676 138.835 77.3416 138.545 77.3416 138.2C77.3416 137.855 77.4676 137.565 77.7196 137.332C77.9716 137.099 78.2983 136.982 78.6996 136.982C79.1009 136.982 79.4276 137.094 79.6796 137.318C79.9316 137.542 80.0576 137.822 80.0576 138.158C80.0576 138.522 79.9316 138.825 79.6796 139.068C79.4276 139.301 79.1009 139.418 78.6996 139.418ZM84.8565 140.356C86.0232 140.356 86.9192 140.636 87.5445 141.196C88.1699 141.747 88.4825 142.582 88.4825 143.702V148H86.4385V147.062C86.0279 147.762 85.2625 148.112 84.1425 148.112C83.5639 148.112 83.0599 148.014 82.6305 147.818C82.2105 147.622 81.8885 147.351 81.6645 147.006C81.4405 146.661 81.3285 146.269 81.3285 145.83C81.3285 145.13 81.5899 144.579 82.1125 144.178C82.6445 143.777 83.4612 143.576 84.5625 143.576H86.2985C86.2985 143.1 86.1539 142.736 85.8645 142.484C85.5752 142.223 85.1412 142.092 84.5625 142.092C84.1612 142.092 83.7645 142.157 83.3725 142.288C82.9899 142.409 82.6632 142.577 82.3925 142.792L81.6085 141.266C82.0192 140.977 82.5092 140.753 83.0785 140.594C83.6572 140.435 84.2499 140.356 84.8565 140.356ZM84.6885 146.642C85.0619 146.642 85.3932 146.558 85.6825 146.39C85.9719 146.213 86.1772 145.956 86.2985 145.62V144.85H84.8005C83.9045 144.85 83.4565 145.144 83.4565 145.732C83.4565 146.012 83.5639 146.236 83.7785 146.404C84.0025 146.563 84.3059 146.642 84.6885 146.642ZM92.9932 148.112C92.3678 148.112 91.7565 148.037 91.1592 147.888C90.5618 147.729 90.0858 147.533 89.7312 147.3L90.4592 145.732C90.7952 145.947 91.2012 146.124 91.6772 146.264C92.1532 146.395 92.6198 146.46 93.0772 146.46C94.0012 146.46 94.4632 146.231 94.4632 145.774C94.4632 145.559 94.3372 145.405 94.0852 145.312C93.8332 145.219 93.4458 145.139 92.9232 145.074C92.3072 144.981 91.7985 144.873 91.3972 144.752C90.9958 144.631 90.6458 144.416 90.3472 144.108C90.0578 143.8 89.9132 143.361 89.9132 142.792C89.9132 142.316 90.0485 141.896 90.3192 141.532C90.5992 141.159 91.0005 140.869 91.5232 140.664C92.0552 140.459 92.6805 140.356 93.3992 140.356C93.9312 140.356 94.4585 140.417 94.9812 140.538C95.5132 140.65 95.9518 140.809 96.2972 141.014L95.5692 142.568C94.9065 142.195 94.1832 142.008 93.3992 142.008C92.9325 142.008 92.5825 142.073 92.3492 142.204C92.1158 142.335 91.9992 142.503 91.9992 142.708C91.9992 142.941 92.1252 143.105 92.3772 143.198C92.6292 143.291 93.0305 143.38 93.5812 143.464C94.1972 143.567 94.7012 143.679 95.0932 143.8C95.4852 143.912 95.8258 144.122 96.1152 144.43C96.4045 144.738 96.5492 145.167 96.5492 145.718C96.5492 146.185 96.4092 146.6 96.1292 146.964C95.8492 147.328 95.4385 147.613 94.8972 147.818C94.3652 148.014 93.7305 148.112 92.9932 148.112Z" fill="white"/>
<path d="M180.167 109.833H205.25" stroke="#D880A6" stroke-width="4" stroke-linecap="round" stroke-linejoin="round"/>
<path d="M205.25 99.0833H203.25C203.25 100.188 204.145 101.083 205.25 101.083V99.0833ZM205.25 88.3333L205.25 86.3333C204.145 86.3333 203.25 87.2288 203.25 88.3333L205.25 88.3333ZM207.042 88.3333L207.042 86.3333L207.042 88.3333ZM207.042 99.0833V101.083H207.042L207.042 99.0833ZM207.25 99.0833L207.25 88.3333L203.25 88.3333L203.25 99.0833H207.25ZM205.25 90.3333H207.042L207.042 86.3333L205.25 86.3333L205.25 90.3333ZM207.042 97.0833H205.25V101.083H207.042V97.0833ZM210.417 93.7083C210.417 95.5723 208.906 97.0833 207.042 97.0833L207.042 101.083C211.115 101.083 214.417 97.7814 214.417 93.7083L210.417 93.7083ZM207.042 90.3333C208.906 90.3333 210.417 91.8444 210.417 93.7083L214.417 93.7083C214.417 89.6352 211.115 86.3333 207.042 86.3333L207.042 90.3333Z" fill="#D880A6"/>
<path d="M180.167 88.3333V86.3333C179.062 86.3333 178.167 87.2288 178.167 88.3333H180.167ZM205.25 88.3333H207.25C207.25 87.2288 206.355 86.3333 205.25 86.3333V88.3333ZM180.167 90.3333H205.25V86.3333H180.167V90.3333ZM203.25 88.3333V97.2917H207.25V88.3333H203.25ZM182.167 97.2917V88.3333H178.167V97.2917H182.167ZM192.708 107.833C186.886 107.833 182.167 103.114 182.167 97.2917H178.167C178.167 105.323 184.677 111.833 192.708 111.833V107.833ZM203.25 97.2917C203.25 103.114 198.53 107.833 192.708 107.833V111.833C200.739 111.833 207.25 105.323 207.25 97.2917H203.25Z" fill="#D880A6"/>
<path d="M199.875 79.375L198.083 82.9583" stroke="#D880A6" stroke-width="2" stroke-linecap="round" stroke-linejoin="round"/>
<path d="M194.5 79.375L192.708 82.9583" stroke="#D880A6" stroke-width="2" stroke-linecap="round" stroke-linejoin="round"/>
<path d="M189.125 79.375L187.333 82.9583" stroke="#D880A6" stroke-width="2" stroke-linecap="round" stroke-linejoin="round"/>
<path d="M41 104H69" stroke="white" stroke-width="4" stroke-linecap="round" stroke-linejoin="round"/>
<path d="M41 94H69" stroke="white" stroke-width="4" stroke-linecap="round" stroke-linejoin="round"/>
<path d="M41 84H69" stroke="white" stroke-width="4" stroke-linecap="round" stroke-linejoin="round"/>
<path d="M302 152C302 147.582 305.582 144 310 144H453.18C455.302 144 457.337 144.843 458.837 146.344L477.224 164.737L495.812 184.387C497.217 185.872 498 187.84 498 189.884V332C498 336.418 494.418 340 490 340H310C305.582 340 302 336.418 302 332V152Z" fill="#F67280" stroke="#DB626F" stroke-width="4"/>
<path d="M456.713 144.439L496.958 184.684H464.713C460.295 184.684 456.713 181.103 456.713 176.684V144.439Z" fill="#DB626F"/>
<path d="M302 400C302 395.582 305.582 392 310 392H453.18C455.302 392 457.337 392.843 458.837 394.344L477.224 412.737L495.812 432.387C497.217 433.872 498 435.84 498 437.884V580C498 584.418 494.418 588 490 588H310C305.582 588 302 584.418 302 580V400Z" fill="#FF8AAE" stroke="#DF7B9A" stroke-width="4"/>
<path d="M456.713 392.439L496.958 432.684H464.713C460.295 432.684 456.713 429.103 456.713 424.684V392.439Z" fill="#DF7B9A"/>
<path d="M550 152C550 147.582 553.582 144 558 144H701.18C703.302 144 705.337 144.843 706.837 146.344L725.224 164.737L743.812 184.387C745.217 185.872 746 187.84 746 189.884V332C746 336.418 742.418 340 738 340H558C553.582 340 550 336.418 550 332V152Z" fill="#BAABDA" stroke="#A093BE" stroke-width="4"/>
<path d="M704.713 144.439L744.958 184.684H712.713C708.295 184.684 704.713 181.103 704.713 176.684V144.439Z" fill="#A193BE"/>
<path d="M550 400C550 395.582 553.582 392 558 392H701.18C703.302 392 705.337 392.843 706.837 394.344L725.224 412.737L743.812 432.387C745.217 433.872 746 435.84 746 437.884V580C746 584.418 742.418 588 738 588H558C553.582 588 550 584.418 550 580V400Z" fill="#FFC7C7" stroke="#E8A9A9" stroke-width="4"/>
<path d="M704.713 392.439L744.958 432.684H712.713C708.295 432.684 704.713 429.103 704.713 424.684V392.439Z" fill="#E8A9A9"/>
<path d="M795 154C795 149.582 798.582 146 803 146H946.18C948.302 146 950.337 146.843 951.837 148.344L970.224 166.737L988.812 186.387C990.217 187.872 991 189.84 991 191.884V334C991 338.418 987.418 342 983 342H803C798.582 342 795 338.418 795 334V154Z" fill="#9ADCFF" stroke="#85BEDC" stroke-width="4"/>
<path d="M949.713 146.439L989.958 186.684H957.713C953.295 186.684 949.713 183.103 949.713 178.684V146.439Z" fill="#85BEDC"/>
<path d="M798 400C798 395.582 801.582 392 806 392H949.18C951.302 392 953.337 392.843 954.837 394.344L973.224 412.737L991.812 432.387C993.217 433.872 994 435.84 994 437.884V580C994 584.418 990.418 588 986 588H806C801.582 588 798 584.418 798 580V400Z" fill="#9EA9F0" stroke="#848DC8" stroke-width="4"/>
<path d="M952.713 392.439L992.958 432.684H960.713C956.295 432.684 952.713 429.103 952.713 424.684V392.439Z" fill="#848DC8"/>
<mask id="mask0_21_2" style="mask-type:alpha" maskUnits="userSpaceOnUse" x="216" y="631" width="1085" height="100">
<rect x="216" y="631" width="1085" height="100" fill="white"/>
</mask>
<g mask="url(#mask0_21_2)">
<path d="M301 648C301 643.582 304.582 640 309 640H452.18C454.302 640 456.337 640.843 457.837 642.344L476.224 660.737L494.812 680.387C496.217 681.872 497 683.84 497 685.884V828C497 832.418 493.418 836 489 836H309C304.582 836 301 832.418 301 828V648Z" fill="#FFF89A" stroke="#DAD480" stroke-width="4"/>
<path d="M455.713 640.439L495.958 680.684H463.713C459.295 680.684 455.713 677.103 455.713 672.684V640.439Z" fill="#DAD480"/>
<path d="M549 648C549 643.582 552.582 640 557 640H700.18C702.302 640 704.337 640.843 705.837 642.344L724.224 660.737L742.812 680.387C744.217 681.872 745 683.84 745 685.884V828C745 832.418 741.418 836 737 836H557C552.582 836 549 832.418 549 828V648Z" fill="#BAABDA" stroke="#A093BE" stroke-width="4"/>
<path d="M703.713 640.439L743.958 680.684H711.713C707.295 680.684 703.713 677.103 703.713 672.684V640.439Z" fill="#A193BE"/>
<path d="M797 648C797 643.582 800.582 640 805 640H948.18C950.302 640 952.337 640.843 953.837 642.344L972.224 660.737L990.812 680.387C992.217 681.872 993 683.84 993 685.884V828C993 832.418 989.418 836 985 836H805C800.582 836 797 832.418 797 828V648Z" fill="#D880A6" stroke="#C75C94" stroke-width="4"/>
<path d="M951.713 640.439L991.958 680.684H959.713C955.295 680.684 951.713 677.103 951.713 672.684V640.439Z" fill="#C75C93"/>
</g>
<path d="M272.717 780.04C272.944 780.107 273.117 780.233 273.237 780.42C273.371 780.593 273.437 780.807 273.437 781.06C273.437 781.38 273.337 781.64 273.137 781.84C272.937 782.04 272.691 782.14 272.397 782.14C272.077 782.14 271.817 782.04 271.617 781.84C271.431 781.627 271.337 781.367 271.337 781.06C271.337 780.9 271.351 780.747 271.377 780.6C271.417 780.44 271.491 780.213 271.597 779.92L272.437 777.16H273.397L272.717 780.04ZM276.117 780.04C276.344 780.107 276.517 780.233 276.637 780.42C276.771 780.593 276.837 780.807 276.837 781.06C276.837 781.38 276.737 781.64 276.537 781.84C276.337 782.04 276.091 782.14 275.797 782.14C275.477 782.14 275.217 782.04 275.017 781.84C274.831 781.627 274.737 781.367 274.737 781.06C274.737 780.9 274.751 780.747 274.777 780.6C274.817 780.44 274.891 780.213 274.997 779.92L275.837 777.16H276.797L276.117 780.04ZM290.094 790.72V792H280.194V778H289.794V779.28H281.674V784.26H288.914V785.52H281.674V790.72H290.094ZM293.273 777.16H294.693V792H293.273V777.16ZM313.038 787.18H304.238C304.318 788.273 304.738 789.16 305.498 789.84C306.258 790.507 307.218 790.84 308.378 790.84C309.032 790.84 309.632 790.727 310.178 790.5C310.725 790.26 311.198 789.913 311.598 789.46L312.398 790.38C311.932 790.94 311.345 791.367 310.638 791.66C309.945 791.953 309.178 792.1 308.338 792.1C307.258 792.1 306.298 791.873 305.458 791.42C304.632 790.953 303.985 790.313 303.518 789.5C303.052 788.687 302.818 787.767 302.818 786.74C302.818 785.713 303.038 784.793 303.478 783.98C303.932 783.167 304.545 782.533 305.318 782.08C306.105 781.627 306.985 781.4 307.958 781.4C308.932 781.4 309.805 781.627 310.578 782.08C311.352 782.533 311.958 783.167 312.398 783.98C312.838 784.78 313.058 785.7 313.058 786.74L313.038 787.18ZM307.958 782.62C306.945 782.62 306.092 782.947 305.398 783.6C304.718 784.24 304.332 785.08 304.238 786.12H311.698C311.605 785.08 311.212 784.24 310.518 783.6C309.838 782.947 308.985 782.62 307.958 782.62ZM309.398 777.36H311.298L308.058 779.84H306.658L309.398 777.36ZM322.356 792L319.016 787.6L315.656 792H314.056L318.216 786.6L314.256 781.48H315.856L319.016 785.6L322.176 781.48H323.736L319.776 786.6L323.976 792H322.356ZM326.339 781.48H327.759V792H326.339V781.48ZM327.059 779.18C326.766 779.18 326.519 779.08 326.319 778.88C326.119 778.68 326.019 778.44 326.019 778.16C326.019 777.893 326.119 777.66 326.319 777.46C326.519 777.26 326.766 777.16 327.059 777.16C327.353 777.16 327.599 777.26 327.799 777.46C327.999 777.647 328.099 777.873 328.099 778.14C328.099 778.433 327.999 778.68 327.799 778.88C327.599 779.08 327.353 779.18 327.059 779.18ZM337.25 791.36C336.984 791.6 336.65 791.787 336.25 791.92C335.864 792.04 335.457 792.1 335.03 792.1C334.044 792.1 333.284 791.833 332.75 791.3C332.217 790.767 331.95 790.013 331.95 789.04V782.68H330.07V781.48H331.95V779.18H333.37V781.48H336.57V782.68H333.37V788.96C333.37 789.587 333.524 790.067 333.83 790.4C334.15 790.72 334.604 790.88 335.19 790.88C335.484 790.88 335.764 790.833 336.03 790.74C336.31 790.647 336.55 790.513 336.75 790.34L337.25 791.36ZM343.764 792.1C342.751 792.1 341.838 791.873 341.024 791.42C340.211 790.953 339.571 790.313 339.104 789.5C338.638 788.687 338.404 787.767 338.404 786.74C338.404 785.713 338.638 784.793 339.104 783.98C339.571 783.167 340.211 782.533 341.024 782.08C341.838 781.627 342.751 781.4 343.764 781.4C344.778 781.4 345.691 781.627 346.504 782.08C347.318 782.533 347.951 783.167 348.404 783.98C348.871 784.793 349.104 785.713 349.104 786.74C349.104 787.767 348.871 788.687 348.404 789.5C347.951 790.313 347.318 790.953 346.504 791.42C345.691 791.873 344.778 792.1 343.764 792.1ZM343.764 790.84C344.511 790.84 345.178 790.673 345.764 790.34C346.364 789.993 346.831 789.507 347.164 788.88C347.498 788.253 347.664 787.54 347.664 786.74C347.664 785.94 347.498 785.227 347.164 784.6C346.831 783.973 346.364 783.493 345.764 783.16C345.178 782.813 344.511 782.64 343.764 782.64C343.018 782.64 342.344 782.813 341.744 783.16C341.158 783.493 340.691 783.973 340.344 784.6C340.011 785.227 339.844 785.94 339.844 786.74C339.844 787.54 340.011 788.253 340.344 788.88C340.691 789.507 341.158 789.993 341.744 790.34C342.344 790.673 343.018 790.84 343.764 790.84ZM366.398 787.18H357.598C357.678 788.273 358.098 789.16 358.858 789.84C359.618 790.507 360.578 790.84 361.738 790.84C362.391 790.84 362.991 790.727 363.538 790.5C364.084 790.26 364.558 789.913 364.958 789.46L365.758 790.38C365.291 790.94 364.704 791.367 363.998 791.66C363.304 791.953 362.538 792.1 361.698 792.1C360.618 792.1 359.658 791.873 358.818 791.42C357.991 790.953 357.344 790.313 356.878 789.5C356.411 788.687 356.178 787.767 356.178 786.74C356.178 785.713 356.398 784.793 356.838 783.98C357.291 783.167 357.904 782.533 358.678 782.08C359.464 781.627 360.344 781.4 361.318 781.4C362.291 781.4 363.164 781.627 363.938 782.08C364.711 782.533 365.318 783.167 365.758 783.98C366.198 784.78 366.418 785.7 366.418 786.74L366.398 787.18ZM361.318 782.62C360.304 782.62 359.451 782.947 358.758 783.6C358.078 784.24 357.691 785.08 357.598 786.12H365.058C364.964 785.08 364.571 784.24 363.878 783.6C363.198 782.947 362.344 782.62 361.318 782.62ZM372.128 792.1C371.275 792.1 370.455 791.98 369.668 791.74C368.895 791.487 368.288 791.173 367.848 790.8L368.488 789.68C368.928 790.027 369.481 790.313 370.148 790.54C370.815 790.753 371.508 790.86 372.228 790.86C373.188 790.86 373.895 790.713 374.348 790.42C374.815 790.113 375.048 789.687 375.048 789.14C375.048 788.753 374.921 788.453 374.668 788.24C374.415 788.013 374.095 787.847 373.708 787.74C373.321 787.62 372.808 787.507 372.168 787.4C371.315 787.24 370.628 787.08 370.108 786.92C369.588 786.747 369.141 786.46 368.768 786.06C368.408 785.66 368.228 785.107 368.228 784.4C368.228 783.52 368.595 782.8 369.328 782.24C370.061 781.68 371.081 781.4 372.388 781.4C373.068 781.4 373.748 781.493 374.428 781.68C375.108 781.853 375.668 782.087 376.108 782.38L375.488 783.52C374.621 782.92 373.588 782.62 372.388 782.62C371.481 782.62 370.795 782.78 370.328 783.1C369.875 783.42 369.648 783.84 369.648 784.36C369.648 784.76 369.775 785.08 370.028 785.32C370.295 785.56 370.621 785.74 371.008 785.86C371.395 785.967 371.928 786.08 372.608 786.2C373.448 786.36 374.121 786.52 374.628 786.68C375.135 786.84 375.568 787.113 375.928 787.5C376.288 787.887 376.468 788.42 376.468 789.1C376.468 790.02 376.081 790.753 375.308 791.3C374.548 791.833 373.488 792.1 372.128 792.1ZM384.328 777.16H385.748V792H384.328V777.16ZM393.379 781.4C394.752 781.4 395.805 781.747 396.539 782.44C397.272 783.12 397.639 784.133 397.639 785.48V792H396.279V790.36C395.959 790.907 395.485 791.333 394.859 791.64C394.245 791.947 393.512 792.1 392.659 792.1C391.485 792.1 390.552 791.82 389.859 791.26C389.165 790.7 388.819 789.96 388.819 789.04C388.819 788.147 389.139 787.427 389.779 786.88C390.432 786.333 391.465 786.06 392.879 786.06H396.219V785.42C396.219 784.513 395.965 783.827 395.459 783.36C394.952 782.88 394.212 782.64 393.239 782.64C392.572 782.64 391.932 782.753 391.319 782.98C390.705 783.193 390.179 783.493 389.739 783.88L389.099 782.82C389.632 782.367 390.272 782.02 391.019 781.78C391.765 781.527 392.552 781.4 393.379 781.4ZM392.879 790.98C393.679 790.98 394.365 790.8 394.939 790.44C395.512 790.067 395.939 789.533 396.219 788.84V787.12H392.919C391.119 787.12 390.219 787.747 390.219 789C390.219 789.613 390.452 790.1 390.919 790.46C391.385 790.807 392.039 790.98 392.879 790.98ZM411.09 792.1C410.05 792.1 409.117 791.873 408.29 791.42C407.477 790.967 406.837 790.333 406.37 789.52C405.903 788.693 405.67 787.767 405.67 786.74C405.67 785.713 405.903 784.793 406.37 783.98C406.837 783.167 407.477 782.533 408.29 782.08C409.117 781.627 410.05 781.4 411.09 781.4C411.997 781.4 412.803 781.58 413.51 781.94C414.23 782.287 414.797 782.8 415.21 783.48L414.15 784.2C413.803 783.68 413.363 783.293 412.83 783.04C412.297 782.773 411.717 782.64 411.09 782.64C410.33 782.64 409.643 782.813 409.03 783.16C408.43 783.493 407.957 783.973 407.61 784.6C407.277 785.227 407.11 785.94 407.11 786.74C407.11 787.553 407.277 788.273 407.61 788.9C407.957 789.513 408.43 789.993 409.03 790.34C409.643 790.673 410.33 790.84 411.09 790.84C411.717 790.84 412.297 790.713 412.83 790.46C413.363 790.207 413.803 789.82 414.15 789.3L415.21 790.02C414.797 790.7 414.23 791.22 413.51 791.58C412.79 791.927 411.983 792.1 411.09 792.1ZM421.68 781.4C423.053 781.4 424.106 781.747 424.84 782.44C425.573 783.12 425.94 784.133 425.94 785.48V792H424.58V790.36C424.26 790.907 423.786 791.333 423.16 791.64C422.546 791.947 421.813 792.1 420.96 792.1C419.786 792.1 418.853 791.82 418.16 791.26C417.466 790.7 417.12 789.96 417.12 789.04C417.12 788.147 417.44 787.427 418.08 786.88C418.733 786.333 419.766 786.06 421.18 786.06H424.52V785.42C424.52 784.513 424.266 783.827 423.76 783.36C423.253 782.88 422.513 782.64 421.54 782.64C420.873 782.64 420.233 782.753 419.62 782.98C419.006 783.193 418.48 783.493 418.04 783.88L417.4 782.82C417.933 782.367 418.573 782.02 419.32 781.78C420.066 781.527 420.853 781.4 421.68 781.4ZM421.18 790.98C421.98 790.98 422.666 790.8 423.24 790.44C423.813 790.067 424.24 789.533 424.52 788.84V787.12H421.22C419.42 787.12 418.52 787.747 418.52 789C418.52 789.613 418.753 790.1 419.22 790.46C419.686 790.807 420.34 790.98 421.18 790.98ZM435.216 781.4C436.203 781.4 437.096 781.627 437.896 782.08C438.696 782.52 439.323 783.147 439.776 783.96C440.23 784.773 440.456 785.7 440.456 786.74C440.456 787.793 440.23 788.727 439.776 789.54C439.323 790.353 438.696 790.987 437.896 791.44C437.11 791.88 436.216 792.1 435.216 792.1C434.363 792.1 433.59 791.927 432.896 791.58C432.216 791.22 431.656 790.7 431.216 790.02V795.88H429.796V781.48H431.156V783.56C431.583 782.867 432.143 782.333 432.836 781.96C433.543 781.587 434.336 781.4 435.216 781.4ZM435.116 790.84C435.85 790.84 436.516 790.673 437.116 790.34C437.716 789.993 438.183 789.507 438.516 788.88C438.863 788.253 439.036 787.54 439.036 786.74C439.036 785.94 438.863 785.233 438.516 784.62C438.183 783.993 437.716 783.507 437.116 783.16C436.516 782.813 435.85 782.64 435.116 782.64C434.37 782.64 433.696 782.813 433.096 783.16C432.51 783.507 432.043 783.993 431.696 784.62C431.363 785.233 431.196 785.94 431.196 786.74C431.196 787.54 431.363 788.253 431.696 788.88C432.043 789.507 432.51 789.993 433.096 790.34C433.696 790.673 434.37 790.84 435.116 790.84ZM446.973 781.4C448.346 781.4 449.399 781.747 450.133 782.44C450.866 783.12 451.233 784.133 451.233 785.48V792H449.873V790.36C449.553 790.907 449.079 791.333 448.453 791.64C447.839 791.947 447.106 792.1 446.253 792.1C445.079 792.1 444.146 791.82 443.453 791.26C442.759 790.7 442.413 789.96 442.413 789.04C442.413 788.147 442.733 787.427 443.373 786.88C444.026 786.333 445.059 786.06 446.473 786.06H449.813V785.42C449.813 784.513 449.559 783.827 449.053 783.36C448.546 782.88 447.806 782.64 446.833 782.64C446.166 782.64 445.526 782.753 444.913 782.98C444.299 783.193 443.773 783.493 443.333 783.88L442.693 782.82C443.226 782.367 443.866 782.02 444.613 781.78C445.359 781.527 446.146 781.4 446.973 781.4ZM446.473 790.98C447.273 790.98 447.959 790.8 448.533 790.44C449.106 790.067 449.533 789.533 449.813 788.84V787.12H446.513C444.713 787.12 443.812 787.747 443.812 789C443.812 789.613 444.046 790.1 444.513 790.46C444.979 790.807 445.633 790.98 446.473 790.98ZM459.488 792.1C458.448 792.1 457.515 791.873 456.688 791.42C455.875 790.967 455.235 790.333 454.768 789.52C454.302 788.693 454.068 787.767 454.068 786.74C454.068 785.713 454.302 784.793 454.768 783.98C455.235 783.167 455.875 782.533 456.688 782.08C457.515 781.627 458.448 781.4 459.488 781.4C460.395 781.4 461.202 781.58 461.908 781.94C462.628 782.287 463.195 782.8 463.608 783.48L462.548 784.2C462.202 783.68 461.762 783.293 461.228 783.04C460.695 782.773 460.115 782.64 459.488 782.64C458.728 782.64 458.042 782.813 457.428 783.16C456.828 783.493 456.355 783.973 456.008 784.6C455.675 785.227 455.508 785.94 455.508 786.74C455.508 787.553 455.675 788.273 456.008 788.9C456.355 789.513 456.828 789.993 457.428 790.34C458.042 790.673 458.728 790.84 459.488 790.84C460.115 790.84 460.695 790.713 461.228 790.46C461.762 790.207 462.202 789.82 462.548 789.3L463.608 790.02C463.195 790.7 462.628 791.22 461.908 791.58C461.188 791.927 460.382 792.1 459.488 792.1ZM466.398 781.48H467.818V792H466.398V781.48ZM467.118 779.18C466.825 779.18 466.578 779.08 466.378 778.88C466.178 778.68 466.078 778.44 466.078 778.16C466.078 777.893 466.178 777.66 466.378 777.46C466.578 777.26 466.825 777.16 467.118 777.16C467.411 777.16 467.658 777.26 467.858 777.46C468.058 777.647 468.158 777.873 468.158 778.14C468.158 778.433 468.058 778.68 467.858 778.88C467.658 779.08 467.411 779.18 467.118 779.18ZM481.369 777.16V792H480.009V789.92C479.582 790.627 479.016 791.167 478.309 791.54C477.616 791.913 476.829 792.1 475.949 792.1C474.962 792.1 474.069 791.873 473.269 791.42C472.469 790.967 471.842 790.333 471.389 789.52C470.936 788.707 470.709 787.78 470.709 786.74C470.709 785.7 470.936 784.773 471.389 783.96C471.842 783.147 472.469 782.52 473.269 782.08C474.069 781.627 474.962 781.4 475.949 781.4C476.802 781.4 477.569 781.58 478.249 781.94C478.942 782.287 479.509 782.8 479.949 783.48V777.16H481.369ZM476.069 790.84C476.802 790.84 477.462 790.673 478.049 790.34C478.649 789.993 479.116 789.507 479.449 788.88C479.796 788.253 479.969 787.54 479.969 786.74C479.969 785.94 479.796 785.227 479.449 784.6C479.116 783.973 478.649 783.493 478.049 783.16C477.462 782.813 476.802 782.64 476.069 782.64C475.322 782.64 474.649 782.813 474.049 783.16C473.462 783.493 472.996 783.973 472.649 784.6C472.316 785.227 472.149 785.94 472.149 786.74C472.149 787.54 472.316 788.253 472.649 788.88C472.996 789.507 473.462 789.993 474.049 790.34C474.649 790.673 475.322 790.84 476.069 790.84ZM489.004 781.4C490.377 781.4 491.43 781.747 492.164 782.44C492.897 783.12 493.264 784.133 493.264 785.48V792H491.904V790.36C491.584 790.907 491.11 791.333 490.484 791.64C489.87 791.947 489.137 792.1 488.284 792.1C487.11 792.1 486.177 791.82 485.484 791.26C484.79 790.7 484.444 789.96 484.444 789.04C484.444 788.147 484.764 787.427 485.404 786.88C486.057 786.333 487.09 786.06 488.504 786.06H491.844V785.42C491.844 784.513 491.59 783.827 491.084 783.36C490.577 782.88 489.837 782.64 488.864 782.64C488.197 782.64 487.557 782.753 486.944 782.98C486.33 783.193 485.804 783.493 485.364 783.88L484.724 782.82C485.257 782.367 485.897 782.02 486.644 781.78C487.39 781.527 488.177 781.4 489.004 781.4ZM488.504 790.98C489.304 790.98 489.99 790.8 490.564 790.44C491.137 790.067 491.564 789.533 491.844 788.84V787.12H488.544C486.744 787.12 485.844 787.747 485.844 789C485.844 789.613 486.077 790.1 486.544 790.46C487.01 790.807 487.664 790.98 488.504 790.98ZM506.76 777.16V792H505.4V789.92C504.973 790.627 504.406 791.167 503.7 791.54C503.006 791.913 502.22 792.1 501.34 792.1C500.353 792.1 499.46 791.873 498.66 791.42C497.86 790.967 497.233 790.333 496.78 789.52C496.326 788.707 496.1 787.78 496.1 786.74C496.1 785.7 496.326 784.773 496.78 783.96C497.233 783.147 497.86 782.52 498.66 782.08C499.46 781.627 500.353 781.4 501.34 781.4C502.193 781.4 502.96 781.58 503.64 781.94C504.333 782.287 504.9 782.8 505.34 783.48V777.16H506.76ZM501.46 790.84C502.193 790.84 502.853 790.673 503.44 790.34C504.04 789.993 504.506 789.507 504.84 788.88C505.186 788.253 505.36 787.54 505.36 786.74C505.36 785.94 505.186 785.227 504.84 784.6C504.506 783.973 504.04 783.493 503.44 783.16C502.853 782.813 502.193 782.64 501.46 782.64C500.713 782.64 500.04 782.813 499.44 783.16C498.853 783.493 498.386 783.973 498.04 784.6C497.706 785.227 497.54 785.94 497.54 786.74C497.54 787.54 497.706 788.253 498.04 788.88C498.386 789.507 498.853 789.993 499.44 790.34C500.04 790.673 500.713 790.84 501.46 790.84ZM525.549 777.16V792H524.189V789.92C523.762 790.627 523.195 791.167 522.489 791.54C521.795 791.913 521.009 792.1 520.129 792.1C519.142 792.1 518.249 791.873 517.449 791.42C516.649 790.967 516.022 790.333 515.569 789.52C515.115 788.707 514.889 787.78 514.889 786.74C514.889 785.7 515.115 784.773 515.569 783.96C516.022 783.147 516.649 782.52 517.449 782.08C518.249 781.627 519.142 781.4 520.129 781.4C520.982 781.4 521.749 781.58 522.429 781.94C523.122 782.287 523.689 782.8 524.129 783.48V777.16H525.549ZM520.249 790.84C520.982 790.84 521.642 790.673 522.229 790.34C522.829 789.993 523.295 789.507 523.629 788.88C523.975 788.253 524.149 787.54 524.149 786.74C524.149 785.94 523.975 785.227 523.629 784.6C523.295 783.973 522.829 783.493 522.229 783.16C521.642 782.813 520.982 782.64 520.249 782.64C519.502 782.64 518.829 782.813 518.229 783.16C517.642 783.493 517.175 783.973 516.829 784.6C516.495 785.227 516.329 785.94 516.329 786.74C516.329 787.54 516.495 788.253 516.829 788.88C517.175 789.507 517.642 789.993 518.229 790.34C518.829 790.673 519.502 790.84 520.249 790.84ZM538.663 787.18H529.863C529.943 788.273 530.363 789.16 531.123 789.84C531.883 790.507 532.843 790.84 534.003 790.84C534.657 790.84 535.257 790.727 535.803 790.5C536.35 790.26 536.823 789.913 537.223 789.46L538.023 790.38C537.557 790.94 536.97 791.367 536.263 791.66C535.57 791.953 534.803 792.1 533.963 792.1C532.883 792.1 531.923 791.873 531.083 791.42C530.257 790.953 529.61 790.313 529.143 789.5C528.677 788.687 528.443 787.767 528.443 786.74C528.443 785.713 528.663 784.793 529.103 783.98C529.557 783.167 530.17 782.533 530.943 782.08C531.73 781.627 532.61 781.4 533.583 781.4C534.557 781.4 535.43 781.627 536.203 782.08C536.977 782.533 537.583 783.167 538.023 783.98C538.463 784.78 538.683 785.7 538.683 786.74L538.663 787.18ZM533.583 782.62C532.57 782.62 531.717 782.947 531.023 783.6C530.343 784.24 529.957 785.08 529.863 786.12H537.323C537.23 785.08 536.837 784.24 536.143 783.6C535.463 782.947 534.61 782.62 533.583 782.62ZM546.808 781.48H548.228V792H546.808V781.48ZM547.528 779.18C547.235 779.18 546.988 779.08 546.788 778.88C546.588 778.68 546.488 778.44 546.488 778.16C546.488 777.893 546.588 777.66 546.788 777.46C546.988 777.26 547.235 777.16 547.528 777.16C547.821 777.16 548.068 777.26 548.268 777.46C548.468 777.647 548.568 777.873 548.568 778.14C548.568 778.433 548.468 778.68 548.268 778.88C548.068 779.08 547.821 779.18 547.528 779.18ZM553.539 783.54C553.873 782.833 554.366 782.3 555.019 781.94C555.686 781.58 556.506 781.4 557.479 781.4V782.78L557.139 782.76C556.033 782.76 555.166 783.1 554.539 783.78C553.913 784.46 553.599 785.413 553.599 786.64V792H552.179V781.48H553.539V783.54ZM575.041 777.16V792H573.681V789.92C573.254 790.627 572.688 791.167 571.981 791.54C571.288 791.913 570.501 792.1 569.621 792.1C568.634 792.1 567.741 791.873 566.941 791.42C566.141 790.967 565.514 790.333 565.061 789.52C564.608 788.707 564.381 787.78 564.381 786.74C564.381 785.7 564.608 784.773 565.061 783.96C565.514 783.147 566.141 782.52 566.941 782.08C567.741 781.627 568.634 781.4 569.621 781.4C570.474 781.4 571.241 781.58 571.921 781.94C572.614 782.287 573.181 782.8 573.621 783.48V777.16H575.041ZM569.741 790.84C570.474 790.84 571.134 790.673 571.721 790.34C572.321 789.993 572.788 789.507 573.121 788.88C573.468 788.253 573.641 787.54 573.641 786.74C573.641 785.94 573.468 785.227 573.121 784.6C572.788 783.973 572.321 783.493 571.721 783.16C571.134 782.813 570.474 782.64 569.741 782.64C568.994 782.64 568.321 782.813 567.721 783.16C567.134 783.493 566.668 783.973 566.321 784.6C565.988 785.227 565.821 785.94 565.821 786.74C565.821 787.54 565.988 788.253 566.321 788.88C566.668 789.507 567.134 789.993 567.721 790.34C568.321 790.673 568.994 790.84 569.741 790.84ZM588.156 787.18H579.356C579.436 788.273 579.856 789.16 580.616 789.84C581.376 790.507 582.336 790.84 583.496 790.84C584.149 790.84 584.749 790.727 585.296 790.5C585.842 790.26 586.316 789.913 586.716 789.46L587.516 790.38C587.049 790.94 586.462 791.367 585.756 791.66C585.062 791.953 584.296 792.1 583.456 792.1C582.376 792.1 581.416 791.873 580.576 791.42C579.749 790.953 579.102 790.313 578.636 789.5C578.169 788.687 577.936 787.767 577.936 786.74C577.936 785.713 578.156 784.793 578.596 783.98C579.049 783.167 579.662 782.533 580.436 782.08C581.222 781.627 582.102 781.4 583.076 781.4C584.049 781.4 584.922 781.627 585.696 782.08C586.469 782.533 587.076 783.167 587.516 783.98C587.956 784.78 588.176 785.7 588.176 786.74L588.156 787.18ZM583.076 782.62C582.062 782.62 581.209 782.947 580.516 783.6C579.836 784.24 579.449 785.08 579.356 786.12H586.816C586.722 785.08 586.329 784.24 585.636 783.6C584.956 782.947 584.102 782.62 583.076 782.62ZM599.78 778.26C599.167 778.26 598.7 778.427 598.38 778.76C598.074 779.093 597.92 779.587 597.92 780.24V781.48H601.16V782.68H597.96V792H596.54V782.68H594.66V781.48H596.54V780.18C596.54 779.22 596.814 778.46 597.36 777.9C597.92 777.34 598.707 777.06 599.72 777.06C600.12 777.06 600.507 777.12 600.88 777.24C601.254 777.347 601.567 777.507 601.82 777.72L601.34 778.78C600.927 778.433 600.407 778.26 599.78 778.26ZM606.039 783.54C606.373 782.833 606.866 782.3 607.519 781.94C608.186 781.58 609.006 781.4 609.979 781.4V782.78L609.639 782.76C608.533 782.76 607.666 783.1 607.039 783.78C606.413 784.46 606.099 785.413 606.099 786.64V792H604.679V781.48H606.039V783.54ZM616.211 781.4C617.584 781.4 618.637 781.747 619.371 782.44C620.104 783.12 620.471 784.133 620.471 785.48V792H619.111V790.36C618.791 790.907 618.317 791.333 617.691 791.64C617.077 791.947 616.344 792.1 615.491 792.1C614.317 792.1 613.384 791.82 612.691 791.26C611.997 790.7 611.651 789.96 611.651 789.04C611.651 788.147 611.971 787.427 612.611 786.88C613.264 786.333 614.297 786.06 615.711 786.06H619.051V785.42C619.051 784.513 618.797 783.827 618.291 783.36C617.784 782.88 617.044 782.64 616.071 782.64C615.404 782.64 614.764 782.753 614.151 782.98C613.537 783.193 613.011 783.493 612.571 783.88L611.931 782.82C612.464 782.367 613.104 782.02 613.851 781.78C614.597 781.527 615.384 781.4 616.211 781.4ZM615.711 790.98C616.511 790.98 617.197 790.8 617.771 790.44C618.344 790.067 618.771 789.533 619.051 788.84V787.12H615.751C613.951 787.12 613.051 787.747 613.051 789C613.051 789.613 613.284 790.1 613.751 790.46C614.217 790.807 614.871 790.98 615.711 790.98ZM628.727 792.1C627.687 792.1 626.753 791.873 625.927 791.42C625.113 790.967 624.473 790.333 624.007 789.52C623.54 788.693 623.307 787.767 623.307 786.74C623.307 785.713 623.54 784.793 624.007 783.98C624.473 783.167 625.113 782.533 625.927 782.08C626.753 781.627 627.687 781.4 628.727 781.4C629.633 781.4 630.44 781.58 631.147 781.94C631.867 782.287 632.433 782.8 632.847 783.48L631.787 784.2C631.44 783.68 631 783.293 630.467 783.04C629.933 782.773 629.353 782.64 628.727 782.64C627.967 782.64 627.28 782.813 626.667 783.16C626.067 783.493 625.593 783.973 625.247 784.6C624.913 785.227 624.747 785.94 624.747 786.74C624.747 787.553 624.913 788.273 625.247 788.9C625.593 789.513 626.067 789.993 626.667 790.34C627.28 790.673 627.967 790.84 628.727 790.84C629.353 790.84 629.933 790.713 630.467 790.46C631 790.207 631.44 789.82 631.787 789.3L632.847 790.02C632.433 790.7 631.867 791.22 631.147 791.58C630.427 791.927 629.62 792.1 628.727 792.1ZM639.316 781.4C640.69 781.4 641.743 781.747 642.476 782.44C643.21 783.12 643.576 784.133 643.576 785.48V792H642.216V790.36C641.896 790.907 641.423 791.333 640.796 791.64C640.183 791.947 639.45 792.1 638.596 792.1C637.423 792.1 636.49 791.82 635.796 791.26C635.103 790.7 634.756 789.96 634.756 789.04C634.756 788.147 635.076 787.427 635.716 786.88C636.37 786.333 637.403 786.06 638.816 786.06H642.156V785.42C642.156 784.513 641.903 783.827 641.396 783.36C640.89 782.88 640.15 782.64 639.176 782.64C638.51 782.64 637.87 782.753 637.256 782.98C636.643 783.193 636.116 783.493 635.676 783.88L635.036 782.82C635.57 782.367 636.21 782.02 636.956 781.78C637.703 781.527 638.49 781.4 639.316 781.4ZM638.816 790.98C639.616 790.98 640.303 790.8 640.876 790.44C641.45 790.067 641.876 789.533 642.156 788.84V787.12H638.856C637.056 787.12 636.156 787.747 636.156 789C636.156 789.613 636.39 790.1 636.856 790.46C637.323 790.807 637.976 790.98 638.816 790.98ZM650.253 792.1C649.4 792.1 648.58 791.98 647.793 791.74C647.02 791.487 646.413 791.173 645.973 790.8L646.613 789.68C647.053 790.027 647.606 790.313 648.273 790.54C648.94 790.753 649.633 790.86 650.353 790.86C651.313 790.86 652.02 790.713 652.473 790.42C652.94 790.113 653.173 789.687 653.173 789.14C653.173 788.753 653.046 788.453 652.793 788.24C652.54 788.013 652.22 787.847 651.833 787.74C651.446 787.62 650.933 787.507 650.293 787.4C649.44 787.24 648.753 787.08 648.233 786.92C647.713 786.747 647.266 786.46 646.893 786.06C646.533 785.66 646.353 785.107 646.353 784.4C646.353 783.52 646.72 782.8 647.453 782.24C648.186 781.68 649.206 781.4 650.513 781.4C651.193 781.4 651.873 781.493 652.553 781.68C653.233 781.853 653.793 782.087 654.233 782.38L653.613 783.52C652.746 782.92 651.713 782.62 650.513 782.62C649.606 782.62 648.92 782.78 648.453 783.1C648 783.42 647.773 783.84 647.773 784.36C647.773 784.76 647.9 785.08 648.153 785.32C648.42 785.56 648.746 785.74 649.133 785.86C649.52 785.967 650.053 786.08 650.733 786.2C651.573 786.36 652.246 786.52 652.753 786.68C653.26 786.84 653.693 787.113 654.053 787.5C654.413 787.887 654.593 788.42 654.593 789.1C654.593 790.02 654.206 790.753 653.433 791.3C652.673 791.833 651.613 792.1 650.253 792.1ZM661.518 792.1C660.505 792.1 659.592 791.873 658.778 791.42C657.965 790.953 657.325 790.313 656.858 789.5C656.392 788.687 656.158 787.767 656.158 786.74C656.158 785.713 656.392 784.793 656.858 783.98C657.325 783.167 657.965 782.533 658.778 782.08C659.592 781.627 660.505 781.4 661.518 781.4C662.532 781.4 663.445 781.627 664.258 782.08C665.072 782.533 665.705 783.167 666.158 783.98C666.625 784.793 666.858 785.713 666.858 786.74C666.858 787.767 666.625 788.687 666.158 789.5C665.705 790.313 665.072 790.953 664.258 791.42C663.445 791.873 662.532 792.1 661.518 792.1ZM661.518 790.84C662.265 790.84 662.932 790.673 663.518 790.34C664.118 789.993 664.585 789.507 664.918 788.88C665.252 788.253 665.418 787.54 665.418 786.74C665.418 785.94 665.252 785.227 664.918 784.6C664.585 783.973 664.118 783.493 663.518 783.16C662.932 782.813 662.265 782.64 661.518 782.64C660.772 782.64 660.098 782.813 659.498 783.16C658.912 783.493 658.445 783.973 658.098 784.6C657.765 785.227 657.598 785.94 657.598 786.74C657.598 787.54 657.765 788.253 658.098 788.88C658.445 789.507 658.912 789.993 659.498 790.34C660.098 790.673 660.772 790.84 661.518 790.84ZM684.152 787.18H675.352C675.432 788.273 675.852 789.16 676.612 789.84C677.372 790.507 678.332 790.84 679.492 790.84C680.145 790.84 680.745 790.727 681.292 790.5C681.838 790.26 682.312 789.913 682.712 789.46L683.512 790.38C683.045 790.94 682.458 791.367 681.752 791.66C681.058 791.953 680.292 792.1 679.452 792.1C678.372 792.1 677.412 791.873 676.572 791.42C675.745 790.953 675.098 790.313 674.632 789.5C674.165 788.687 673.932 787.767 673.932 786.74C673.932 785.713 674.152 784.793 674.592 783.98C675.045 783.167 675.658 782.533 676.432 782.08C677.218 781.627 678.098 781.4 679.072 781.4C680.045 781.4 680.918 781.627 681.692 782.08C682.465 782.533 683.072 783.167 683.512 783.98C683.952 784.78 684.172 785.7 684.172 786.74L684.152 787.18ZM679.072 782.62C678.058 782.62 677.205 782.947 676.512 783.6C675.832 784.24 675.445 785.08 675.352 786.12H682.812C682.718 785.08 682.325 784.24 681.632 783.6C680.952 782.947 680.098 782.62 679.072 782.62ZM692.422 781.4C693.742 781.4 694.789 781.787 695.562 782.56C696.349 783.32 696.742 784.433 696.742 785.9V792H695.322V786.04C695.322 784.947 695.049 784.113 694.502 783.54C693.955 782.967 693.175 782.68 692.162 782.68C691.029 782.68 690.129 783.02 689.462 783.7C688.809 784.367 688.482 785.293 688.482 786.48V792H687.062V781.48H688.422V783.42C688.809 782.78 689.342 782.287 690.022 781.94C690.715 781.58 691.515 781.4 692.422 781.4ZM709.312 778.26C708.698 778.26 708.232 778.427 707.912 778.76C707.605 779.093 707.452 779.587 707.452 780.24V781.48H710.692V782.68H707.492V792H706.072V782.68H704.192V781.48H706.072V780.18C706.072 779.22 706.345 778.46 706.892 777.9C707.452 777.34 708.238 777.06 709.252 777.06C709.652 777.06 710.038 777.12 710.412 777.24C710.785 777.347 711.098 777.507 711.352 777.72L710.872 778.78C710.458 778.433 709.938 778.26 709.312 778.26ZM715.57 783.54C715.904 782.833 716.397 782.3 717.05 781.94C717.717 781.58 718.537 781.4 719.51 781.4V782.78L719.17 782.76C718.064 782.76 717.197 783.1 716.57 783.78C715.944 784.46 715.63 785.413 715.63 786.64V792H714.21V781.48H715.57V783.54ZM725.742 781.4C727.115 781.4 728.169 781.747 728.902 782.44C729.635 783.12 730.002 784.133 730.002 785.48V792H728.642V790.36C728.322 790.907 727.849 791.333 727.222 791.64C726.609 791.947 725.875 792.1 725.022 792.1C723.849 792.1 722.915 791.82 722.222 791.26C721.529 790.7 721.182 789.96 721.182 789.04C721.182 788.147 721.502 787.427 722.142 786.88C722.795 786.333 723.829 786.06 725.242 786.06H728.582V785.42C728.582 784.513 728.329 783.827 727.822 783.36C727.315 782.88 726.575 782.64 725.602 782.64C724.935 782.64 724.295 782.753 723.682 782.98C723.069 783.193 722.542 783.493 722.102 783.88L721.462 782.82C721.995 782.367 722.635 782.02 723.382 781.78C724.129 781.527 724.915 781.4 725.742 781.4ZM725.242 790.98C726.042 790.98 726.729 790.8 727.302 790.44C727.875 790.067 728.302 789.533 728.582 788.84V787.12H725.282C723.482 787.12 722.582 787.747 722.582 789C722.582 789.613 722.815 790.1 723.282 790.46C723.749 790.807 724.402 790.98 725.242 790.98ZM738.258 792.1C737.218 792.1 736.285 791.873 735.458 791.42C734.645 790.967 734.005 790.333 733.538 789.52C733.071 788.693 732.838 787.767 732.838 786.74C732.838 785.713 733.071 784.793 733.538 783.98C734.005 783.167 734.645 782.533 735.458 782.08C736.285 781.627 737.218 781.4 738.258 781.4C739.165 781.4 739.971 781.58 740.678 781.94C741.398 782.287 741.965 782.8 742.378 783.48L741.318 784.2C740.971 783.68 740.531 783.293 739.998 783.04C739.465 782.773 738.885 782.64 738.258 782.64C737.498 782.64 736.811 782.813 736.198 783.16C735.598 783.493 735.125 783.973 734.778 784.6C734.445 785.227 734.278 785.94 734.278 786.74C734.278 787.553 734.445 788.273 734.778 788.9C735.125 789.513 735.598 789.993 736.198 790.34C736.811 790.673 737.498 790.84 738.258 790.84C738.885 790.84 739.465 790.713 739.998 790.46C740.531 790.207 740.971 789.82 741.318 789.3L742.378 790.02C741.965 790.7 741.398 791.22 740.678 791.58C739.958 791.927 739.151 792.1 738.258 792.1ZM748.848 781.4C750.221 781.4 751.274 781.747 752.008 782.44C752.741 783.12 753.108 784.133 753.108 785.48V792H751.748V790.36C751.428 790.907 750.954 791.333 750.328 791.64C749.714 791.947 748.981 792.1 748.128 792.1C746.954 792.1 746.021 791.82 745.328 791.26C744.634 790.7 744.288 789.96 744.288 789.04C744.288 788.147 744.608 787.427 745.248 786.88C745.901 786.333 746.934 786.06 748.348 786.06H751.688V785.42C751.688 784.513 751.434 783.827 750.928 783.36C750.421 782.88 749.681 782.64 748.708 782.64C748.041 782.64 747.401 782.753 746.788 782.98C746.174 783.193 745.648 783.493 745.208 783.88L744.568 782.82C745.101 782.367 745.741 782.02 746.488 781.78C747.234 781.527 748.021 781.4 748.848 781.4ZM748.348 790.98C749.148 790.98 749.834 790.8 750.408 790.44C750.981 790.067 751.408 789.533 751.688 788.84V787.12H748.388C746.588 787.12 745.688 787.747 745.688 789C745.688 789.613 745.921 790.1 746.388 790.46C746.854 790.807 747.508 790.98 748.348 790.98ZM759.784 792.1C758.931 792.1 758.111 791.98 757.324 791.74C756.551 791.487 755.944 791.173 755.504 790.8L756.144 789.68C756.584 790.027 757.138 790.313 757.804 790.54C758.471 790.753 759.164 790.86 759.884 790.86C760.844 790.86 761.551 790.713 762.004 790.42C762.471 790.113 762.704 789.687 762.704 789.14C762.704 788.753 762.578 788.453 762.324 788.24C762.071 788.013 761.751 787.847 761.364 787.74C760.978 787.62 760.464 787.507 759.824 787.4C758.971 787.24 758.284 787.08 757.764 786.92C757.244 786.747 756.798 786.46 756.424 786.06C756.064 785.66 755.884 785.107 755.884 784.4C755.884 783.52 756.251 782.8 756.984 782.24C757.718 781.68 758.738 781.4 760.044 781.4C760.724 781.4 761.404 781.493 762.084 781.68C762.764 781.853 763.324 782.087 763.764 782.38L763.144 783.52C762.278 782.92 761.244 782.62 760.044 782.62C759.138 782.62 758.451 782.78 757.984 783.1C757.531 783.42 757.304 783.84 757.304 784.36C757.304 784.76 757.431 785.08 757.684 785.32C757.951 785.56 758.278 785.74 758.664 785.86C759.051 785.967 759.584 786.08 760.264 786.2C761.104 786.36 761.778 786.52 762.284 786.68C762.791 786.84 763.224 787.113 763.584 787.5C763.944 787.887 764.124 788.42 764.124 789.1C764.124 790.02 763.738 790.753 762.964 791.3C762.204 791.833 761.144 792.1 759.784 792.1ZM771.05 792.1C770.036 792.1 769.123 791.873 768.31 791.42C767.496 790.953 766.856 790.313 766.39 789.5C765.923 788.687 765.69 787.767 765.69 786.74C765.69 785.713 765.923 784.793 766.39 783.98C766.856 783.167 767.496 782.533 768.31 782.08C769.123 781.627 770.036 781.4 771.05 781.4C772.063 781.4 772.976 781.627 773.79 782.08C774.603 782.533 775.236 783.167 775.69 783.98C776.156 784.793 776.39 785.713 776.39 786.74C776.39 787.767 776.156 788.687 775.69 789.5C775.236 790.313 774.603 790.953 773.79 791.42C772.976 791.873 772.063 792.1 771.05 792.1ZM771.05 790.84C771.796 790.84 772.463 790.673 773.05 790.34C773.65 789.993 774.116 789.507 774.45 788.88C774.783 788.253 774.95 787.54 774.95 786.74C774.95 785.94 774.783 785.227 774.45 784.6C774.116 783.973 773.65 783.493 773.05 783.16C772.463 782.813 771.796 782.64 771.05 782.64C770.303 782.64 769.63 782.813 769.03 783.16C768.443 783.493 767.976 783.973 767.63 784.6C767.296 785.227 767.13 785.94 767.13 786.74C767.13 787.54 767.296 788.253 767.63 788.88C767.976 789.507 768.443 789.993 769.03 790.34C769.63 790.673 770.303 790.84 771.05 790.84ZM787.343 792.1C786.49 792.1 785.67 791.98 784.883 791.74C784.11 791.487 783.503 791.173 783.063 790.8L783.703 789.68C784.143 790.027 784.696 790.313 785.363 790.54C786.03 790.753 786.723 790.86 787.443 790.86C788.403 790.86 789.11 790.713 789.563 790.42C790.03 790.113 790.263 789.687 790.263 789.14C790.263 788.753 790.136 788.453 789.883 788.24C789.63 788.013 789.31 787.847 788.923 787.74C788.536 787.62 788.023 787.507 787.383 787.4C786.53 787.24 785.843 787.08 785.323 786.92C784.803 786.747 784.356 786.46 783.983 786.06C783.623 785.66 783.443 785.107 783.443 784.4C783.443 783.52 783.81 782.8 784.543 782.24C785.276 781.68 786.296 781.4 787.603 781.4C788.283 781.4 788.963 781.493 789.643 781.68C790.323 781.853 790.883 782.087 791.323 782.38L790.703 783.52C789.836 782.92 788.803 782.62 787.603 782.62C786.696 782.62 786.01 782.78 785.543 783.1C785.09 783.42 784.863 783.84 784.863 784.36C784.863 784.76 784.99 785.08 785.243 785.32C785.51 785.56 785.836 785.74 786.223 785.86C786.61 785.967 787.143 786.08 787.823 786.2C788.663 786.36 789.336 786.52 789.843 786.68C790.35 786.84 790.783 787.113 791.143 787.5C791.503 787.887 791.683 788.42 791.683 789.1C791.683 790.02 791.296 790.753 790.523 791.3C789.763 791.833 788.703 792.1 787.343 792.1ZM794.308 781.48H795.728V792H794.308V781.48ZM795.028 779.18C794.735 779.18 794.488 779.08 794.288 778.88C794.088 778.68 793.988 778.44 793.988 778.16C793.988 777.893 794.088 777.66 794.288 777.46C794.488 777.26 794.735 777.16 795.028 777.16C795.321 777.16 795.568 777.26 795.768 777.46C795.968 777.647 796.068 777.873 796.068 778.14C796.068 778.433 795.968 778.68 795.768 778.88C795.568 779.08 795.321 779.18 795.028 779.18ZM805.039 781.4C806.359 781.4 807.406 781.787 808.179 782.56C808.966 783.32 809.359 784.433 809.359 785.9V792H807.939V786.04C807.939 784.947 807.666 784.113 807.119 783.54C806.573 782.967 805.793 782.68 804.779 782.68C803.646 782.68 802.746 783.02 802.079 783.7C801.426 784.367 801.099 785.293 801.099 786.48V792H799.679V781.48H801.039V783.42C801.426 782.78 801.959 782.287 802.639 781.94C803.333 781.58 804.133 781.4 805.039 781.4ZM823.869 781.4C824.855 781.4 825.749 781.627 826.549 782.08C827.349 782.52 827.975 783.147 828.429 783.96C828.882 784.773 829.109 785.7 829.109 786.74C829.109 787.793 828.882 788.727 828.429 789.54C827.975 790.353 827.349 790.987 826.549 791.44C825.762 791.88 824.869 792.1 823.869 792.1C823.015 792.1 822.242 791.927 821.549 791.58C820.869 791.22 820.309 790.7 819.869 790.02V795.88H818.449V781.48H819.809V783.56C820.235 782.867 820.795 782.333 821.489 781.96C822.195 781.587 822.989 781.4 823.869 781.4ZM823.769 790.84C824.502 790.84 825.169 790.673 825.769 790.34C826.369 789.993 826.835 789.507 827.169 788.88C827.515 788.253 827.689 787.54 827.689 786.74C827.689 785.94 827.515 785.233 827.169 784.62C826.835 783.993 826.369 783.507 825.769 783.16C825.169 782.813 824.502 782.64 823.769 782.64C823.022 782.64 822.349 782.813 821.749 783.16C821.162 783.507 820.695 783.993 820.349 784.62C820.015 785.233 819.849 785.94 819.849 786.74C819.849 787.54 820.015 788.253 820.349 788.88C820.695 789.507 821.162 789.993 821.749 790.34C822.349 790.673 823.022 790.84 823.769 790.84ZM841.163 787.18H832.363C832.443 788.273 832.863 789.16 833.623 789.84C834.383 790.507 835.343 790.84 836.503 790.84C837.157 790.84 837.757 790.727 838.303 790.5C838.85 790.26 839.323 789.913 839.723 789.46L840.523 790.38C840.057 790.94 839.47 791.367 838.763 791.66C838.07 791.953 837.303 792.1 836.463 792.1C835.383 792.1 834.423 791.873 833.583 791.42C832.757 790.953 832.11 790.313 831.643 789.5C831.177 788.687 830.943 787.767 830.943 786.74C830.943 785.713 831.163 784.793 831.603 783.98C832.057 783.167 832.67 782.533 833.443 782.08C834.23 781.627 835.11 781.4 836.083 781.4C837.057 781.4 837.93 781.627 838.703 782.08C839.477 782.533 840.083 783.167 840.523 783.98C840.963 784.78 841.183 785.7 841.183 786.74L841.163 787.18ZM836.083 782.62C835.07 782.62 834.217 782.947 833.523 783.6C832.843 784.24 832.457 785.08 832.363 786.12H839.823C839.73 785.08 839.337 784.24 838.643 783.6C837.963 782.947 837.11 782.62 836.083 782.62ZM845.434 783.54C845.767 782.833 846.26 782.3 846.914 781.94C847.58 781.58 848.4 781.4 849.374 781.4V782.78L849.034 782.76C847.927 782.76 847.06 783.1 846.434 783.78C845.807 784.46 845.494 785.413 845.494 786.64V792H844.074V781.48H845.434V783.54ZM861.447 777.16V792H860.087V789.92C859.661 790.627 859.094 791.167 858.387 791.54C857.694 791.913 856.907 792.1 856.027 792.1C855.041 792.1 854.147 791.873 853.347 791.42C852.547 790.967 851.921 790.333 851.467 789.52C851.014 788.707 850.787 787.78 850.787 786.74C850.787 785.7 851.014 784.773 851.467 783.96C851.921 783.147 852.547 782.52 853.347 782.08C854.147 781.627 855.041 781.4 856.027 781.4C856.881 781.4 857.647 781.58 858.327 781.94C859.021 782.287 859.587 782.8 860.027 783.48V777.16H861.447ZM856.147 790.84C856.881 790.84 857.541 790.673 858.127 790.34C858.727 789.993 859.194 789.507 859.527 788.88C859.874 788.253 860.047 787.54 860.047 786.74C860.047 785.94 859.874 785.227 859.527 784.6C859.194 783.973 858.727 783.493 858.127 783.16C857.541 782.813 856.881 782.64 856.147 782.64C855.401 782.64 854.727 782.813 854.127 783.16C853.541 783.493 853.074 783.973 852.727 784.6C852.394 785.227 852.227 785.94 852.227 786.74C852.227 787.54 852.394 788.253 852.727 788.88C853.074 789.507 853.541 789.993 854.127 790.34C854.727 790.673 855.401 790.84 856.147 790.84ZM874.562 787.18H865.762C865.842 788.273 866.262 789.16 867.022 789.84C867.782 790.507 868.742 790.84 869.902 790.84C870.555 790.84 871.155 790.727 871.702 790.5C872.249 790.26 872.722 789.913 873.122 789.46L873.922 790.38C873.455 790.94 872.869 791.367 872.162 791.66C871.469 791.953 870.702 792.1 869.862 792.1C868.782 792.1 867.822 791.873 866.982 791.42C866.155 790.953 865.509 790.313 865.042 789.5C864.575 788.687 864.342 787.767 864.342 786.74C864.342 785.713 864.562 784.793 865.002 783.98C865.455 783.167 866.069 782.533 866.842 782.08C867.629 781.627 868.509 781.4 869.482 781.4C870.455 781.4 871.329 781.627 872.102 782.08C872.875 782.533 873.482 783.167 873.922 783.98C874.362 784.78 874.582 785.7 874.582 786.74L874.562 787.18ZM869.482 782.62C868.469 782.62 867.615 782.947 866.922 783.6C866.242 784.24 865.855 785.08 865.762 786.12H873.222C873.129 785.08 872.735 784.24 872.042 783.6C871.362 782.947 870.509 782.62 869.482 782.62ZM878.832 783.54C879.166 782.833 879.659 782.3 880.312 781.94C880.979 781.58 881.799 781.4 882.772 781.4V782.78L882.432 782.76C881.326 782.76 880.459 783.1 879.832 783.78C879.206 784.46 878.892 785.413 878.892 786.64V792H877.472V781.48H878.832V783.54ZM899.894 787.18H891.094C891.174 788.273 891.594 789.16 892.354 789.84C893.114 790.507 894.074 790.84 895.234 790.84C895.887 790.84 896.487 790.727 897.034 790.5C897.581 790.26 898.054 789.913 898.454 789.46L899.254 790.38C898.787 790.94 898.201 791.367 897.494 791.66C896.801 791.953 896.034 792.1 895.194 792.1C894.114 792.1 893.154 791.873 892.314 791.42C891.487 790.953 890.841 790.313 890.374 789.5C889.907 788.687 889.674 787.767 889.674 786.74C889.674 785.713 889.894 784.793 890.334 783.98C890.787 783.167 891.401 782.533 892.174 782.08C892.961 781.627 893.841 781.4 894.814 781.4C895.787 781.4 896.661 781.627 897.434 782.08C898.207 782.533 898.814 783.167 899.254 783.98C899.694 784.78 899.914 785.7 899.914 786.74L899.894 787.18ZM894.814 782.62C893.801 782.62 892.947 782.947 892.254 783.6C891.574 784.24 891.187 785.08 891.094 786.12H898.554C898.461 785.08 898.067 784.24 897.374 783.6C896.694 782.947 895.841 782.62 894.814 782.62ZM902.804 777.16H904.224V792H902.804V777.16ZM922.57 787.18H913.77C913.85 788.273 914.27 789.16 915.03 789.84C915.79 790.507 916.75 790.84 917.91 790.84C918.563 790.84 919.163 790.727 919.71 790.5C920.256 790.26 920.73 789.913 921.13 789.46L921.93 790.38C921.463 790.94 920.876 791.367 920.17 791.66C919.476 791.953 918.71 792.1 917.87 792.1C916.79 792.1 915.83 791.873 914.99 791.42C914.163 790.953 913.516 790.313 913.05 789.5C912.583 788.687 912.35 787.767 912.35 786.74C912.35 785.713 912.57 784.793 913.01 783.98C913.463 783.167 914.076 782.533 914.85 782.08C915.636 781.627 916.516 781.4 917.49 781.4C918.463 781.4 919.336 781.627 920.11 782.08C920.883 782.533 921.49 783.167 921.93 783.98C922.37 784.78 922.59 785.7 922.59 786.74L922.57 787.18ZM917.49 782.62C916.476 782.62 915.623 782.947 914.93 783.6C914.25 784.24 913.863 785.08 913.77 786.12H921.23C921.136 785.08 920.743 784.24 920.05 783.6C919.37 782.947 918.516 782.62 917.49 782.62ZM930.84 781.4C932.16 781.4 933.207 781.787 933.98 782.56C934.767 783.32 935.16 784.433 935.16 785.9V792H933.74V786.04C933.74 784.947 933.467 784.113 932.92 783.54C932.373 782.967 931.593 782.68 930.58 782.68C929.447 782.68 928.547 783.02 927.88 783.7C927.227 784.367 926.9 785.293 926.9 786.48V792H925.48V781.48H926.84V783.42C927.227 782.78 927.76 782.287 928.44 781.94C929.133 781.58 929.933 781.4 930.84 781.4ZM944.555 791.36C944.288 791.6 943.955 791.787 943.555 791.92C943.168 792.04 942.762 792.1 942.335 792.1C941.348 792.1 940.588 791.833 940.055 791.3C939.522 790.767 939.255 790.013 939.255 789.04V782.68H937.375V781.48H939.255V779.18H940.675V781.48H943.875V782.68H940.675V788.96C940.675 789.587 940.828 790.067 941.135 790.4C941.455 790.72 941.908 790.88 942.495 790.88C942.788 790.88 943.068 790.833 943.335 790.74C943.615 790.647 943.855 790.513 944.055 790.34L944.555 791.36ZM956.62 781.48V792H955.26V790.08C954.887 790.72 954.373 791.22 953.72 791.58C953.067 791.927 952.32 792.1 951.48 792.1C950.107 792.1 949.02 791.72 948.22 790.96C947.433 790.187 947.04 789.06 947.04 787.58V781.48H948.46V787.44C948.46 788.547 948.733 789.387 949.28 789.96C949.827 790.533 950.607 790.82 951.62 790.82C952.727 790.82 953.6 790.487 954.24 789.82C954.88 789.14 955.2 788.2 955.2 787V781.48H956.62ZM963.417 792.1C962.564 792.1 961.744 791.98 960.957 791.74C960.184 791.487 959.577 791.173 959.137 790.8L959.777 789.68C960.217 790.027 960.771 790.313 961.437 790.54C962.104 790.753 962.797 790.86 963.517 790.86C964.477 790.86 965.184 790.713 965.637 790.42C966.104 790.113 966.337 789.687 966.337 789.14C966.337 788.753 966.211 788.453 965.957 788.24C965.704 788.013 965.384 787.847 964.997 787.74C964.611 787.62 964.097 787.507 963.457 787.4C962.604 787.24 961.917 787.08 961.397 786.92C960.877 786.747 960.431 786.46 960.057 786.06C959.697 785.66 959.517 785.107 959.517 784.4C959.517 783.52 959.884 782.8 960.617 782.24C961.351 781.68 962.371 781.4 963.677 781.4C964.357 781.4 965.037 781.493 965.717 781.68C966.397 781.853 966.957 782.087 967.397 782.38L966.777 783.52C965.911 782.92 964.877 782.62 963.677 782.62C962.771 782.62 962.084 782.78 961.617 783.1C961.164 783.42 960.937 783.84 960.937 784.36C960.937 784.76 961.064 785.08 961.317 785.32C961.584 785.56 961.911 785.74 962.297 785.86C962.684 785.967 963.217 786.08 963.897 786.2C964.737 786.36 965.411 786.52 965.917 786.68C966.424 786.84 966.857 787.113 967.217 787.5C967.577 787.887 967.757 788.42 967.757 789.1C967.757 790.02 967.371 790.753 966.597 791.3C965.837 791.833 964.777 792.1 963.417 792.1ZM970.382 781.48H971.802V792H970.382V781.48ZM971.102 779.18C970.809 779.18 970.562 779.08 970.362 778.88C970.162 778.68 970.062 778.44 970.062 778.16C970.062 777.893 970.162 777.66 970.362 777.46C970.562 777.26 970.809 777.16 971.102 777.16C971.396 777.16 971.642 777.26 971.842 777.46C972.042 777.647 972.142 777.873 972.142 778.14C972.142 778.433 972.042 778.68 971.842 778.88C971.642 779.08 971.396 779.18 971.102 779.18ZM979.433 781.4C980.807 781.4 981.86 781.747 982.593 782.44C983.327 783.12 983.693 784.133 983.693 785.48V792H982.333V790.36C982.013 790.907 981.54 791.333 980.913 791.64C980.3 791.947 979.567 792.1 978.713 792.1C977.54 792.1 976.607 791.82 975.913 791.26C975.22 790.7 974.873 789.96 974.873 789.04C974.873 788.147 975.193 787.427 975.833 786.88C976.487 786.333 977.52 786.06 978.933 786.06H982.273V785.42C982.273 784.513 982.02 783.827 981.513 783.36C981.007 782.88 980.267 782.64 979.293 782.64C978.627 782.64 977.987 782.753 977.373 782.98C976.76 783.193 976.233 783.493 975.793 783.88L975.153 782.82C975.687 782.367 976.327 782.02 977.073 781.78C977.82 781.527 978.607 781.4 979.433 781.4ZM978.933 790.98C979.733 790.98 980.42 790.8 980.993 790.44C981.567 790.067 981.993 789.533 982.273 788.84V787.12H978.973C977.173 787.12 976.273 787.747 976.273 789C976.273 789.613 976.507 790.1 976.973 790.46C977.44 790.807 978.093 790.98 978.933 790.98ZM990.37 792.1C989.517 792.1 988.697 791.98 987.91 791.74C987.137 791.487 986.53 791.173 986.09 790.8L986.73 789.68C987.17 790.027 987.724 790.313 988.39 790.54C989.057 790.753 989.75 790.86 990.47 790.86C991.43 790.86 992.137 790.713 992.59 790.42C993.057 790.113 993.29 789.687 993.29 789.14C993.29 788.753 993.164 788.453 992.91 788.24C992.657 788.013 992.337 787.847 991.95 787.74C991.564 787.62 991.05 787.507 990.41 787.4C989.557 787.24 988.87 787.08 988.35 786.92C987.83 786.747 987.384 786.46 987.01 786.06C986.65 785.66 986.47 785.107 986.47 784.4C986.47 783.52 986.837 782.8 987.57 782.24C988.304 781.68 989.324 781.4 990.63 781.4C991.31 781.4 991.99 781.493 992.67 781.68C993.35 781.853 993.91 782.087 994.35 782.38L993.73 783.52C992.864 782.92 991.83 782.62 990.63 782.62C989.724 782.62 989.037 782.78 988.57 783.1C988.117 783.42 987.89 783.84 987.89 784.36C987.89 784.76 988.017 785.08 988.27 785.32C988.537 785.56 988.864 785.74 989.25 785.86C989.637 785.967 990.17 786.08 990.85 786.2C991.69 786.36 992.364 786.52 992.87 786.68C993.377 786.84 993.81 787.113 994.17 787.5C994.53 787.887 994.71 788.42 994.71 789.1C994.71 790.02 994.324 790.753 993.55 791.3C992.79 791.833 991.73 792.1 990.37 792.1ZM1010.46 781.4C1011.78 781.4 1012.81 781.78 1013.56 782.54C1014.32 783.3 1014.7 784.42 1014.7 785.9V792H1013.28V786.04C1013.28 784.947 1013.01 784.113 1012.48 783.54C1011.96 782.967 1011.22 782.68 1010.26 782.68C1009.16 782.68 1008.3 783.02 1007.68 783.7C1007.05 784.367 1006.74 785.293 1006.74 786.48V792H1005.32V786.04C1005.32 784.947 1005.05 784.113 1004.52 783.54C1004 782.967 1003.25 782.68 1002.28 782.68C1001.2 782.68 1000.34 783.02 999.695 783.7C999.069 784.367 998.755 785.293 998.755 786.48V792H997.335V781.48H998.695V783.4C999.069 782.76 999.589 782.267 1000.26 781.92C1000.92 781.573 1001.69 781.4 1002.56 781.4C1003.44 781.4 1004.2 781.587 1004.84 781.96C1005.49 782.333 1005.98 782.887 1006.3 783.62C1006.68 782.927 1007.24 782.387 1007.96 782C1008.69 781.6 1009.52 781.4 1010.46 781.4ZM1022.89 792.1C1021.87 792.1 1020.96 791.873 1020.15 791.42C1019.33 790.953 1018.69 790.313 1018.23 789.5C1017.76 788.687 1017.53 787.767 1017.53 786.74C1017.53 785.713 1017.76 784.793 1018.23 783.98C1018.69 783.167 1019.33 782.533 1020.15 782.08C1020.96 781.627 1021.87 781.4 1022.89 781.4C1023.9 781.4 1024.81 781.627 1025.63 782.08C1026.44 782.533 1027.07 783.167 1027.53 783.98C1027.99 784.793 1028.23 785.713 1028.23 786.74C1028.23 787.767 1027.99 788.687 1027.53 789.5C1027.07 790.313 1026.44 790.953 1025.63 791.42C1024.81 791.873 1023.9 792.1 1022.89 792.1ZM1022.89 790.84C1023.63 790.84 1024.3 790.673 1024.89 790.34C1025.49 789.993 1025.95 789.507 1026.29 788.88C1026.62 788.253 1026.79 787.54 1026.79 786.74C1026.79 785.94 1026.62 785.227 1026.29 784.6C1025.95 783.973 1025.49 783.493 1024.89 783.16C1024.3 782.813 1023.63 782.64 1022.89 782.64C1022.14 782.64 1021.47 782.813 1020.87 783.16C1020.28 783.493 1019.81 783.973 1019.47 784.6C1019.13 785.227 1018.97 785.94 1018.97 786.74C1018.97 787.54 1019.13 788.253 1019.47 788.88C1019.81 789.507 1020.28 789.993 1020.87 790.34C1021.47 790.673 1022.14 790.84 1022.89 790.84ZM1031.23 777.06C1031.53 777.06 1031.79 777.167 1031.99 777.38C1032.19 777.58 1032.29 777.833 1032.29 778.14C1032.29 778.3 1032.26 778.473 1032.21 778.66C1032.17 778.833 1032.11 779.04 1032.03 779.28L1031.17 782.04H1030.21L1030.91 779.16C1030.68 779.093 1030.5 778.973 1030.37 778.8C1030.23 778.613 1030.17 778.393 1030.17 778.14C1030.17 777.82 1030.27 777.56 1030.47 777.36C1030.67 777.16 1030.92 777.06 1031.23 777.06ZM1034.63 777.06C1034.93 777.06 1035.19 777.167 1035.39 777.38C1035.59 777.58 1035.69 777.833 1035.69 778.14C1035.69 778.3 1035.66 778.473 1035.61 778.66C1035.57 778.833 1035.51 779.04 1035.43 779.28L1034.57 782.04H1033.61L1034.31 779.16C1034.08 779.093 1033.9 778.973 1033.77 778.8C1033.63 778.613 1033.57 778.393 1033.57 778.14C1033.57 777.82 1033.67 777.56 1033.87 777.36C1034.07 777.16 1034.32 777.06 1034.63 777.06ZM557.522 809.96H562.762V811.2H557.522V809.96ZM585.01 802L580.29 816H578.73L574.63 804.06L570.51 816H568.97L564.25 802H565.77L569.81 814.04L573.99 802H575.37L579.49 814.1L583.59 802H585.01ZM587.365 805.48H588.785V816H587.365V805.48ZM588.085 803.18C587.791 803.18 587.545 803.08 587.345 802.88C587.145 802.68 587.045 802.44 587.045 802.16C587.045 801.893 587.145 801.66 587.345 801.46C587.545 801.26 587.791 801.16 588.085 801.16C588.378 801.16 588.625 801.26 588.825 801.46C589.025 801.647 589.125 801.873 589.125 802.14C589.125 802.433 589.025 802.68 588.825 802.88C588.625 803.08 588.378 803.18 588.085 803.18ZM598.096 805.4C599.416 805.4 600.463 805.787 601.236 806.56C602.023 807.32 602.416 808.433 602.416 809.9V816H600.996V810.04C600.996 808.947 600.723 808.113 600.176 807.54C599.629 806.967 598.849 806.68 597.836 806.68C596.703 806.68 595.803 807.02 595.136 807.7C594.483 808.367 594.156 809.293 594.156 810.48V816H592.736V805.48H594.096V807.42C594.483 806.78 595.016 806.287 595.696 805.94C596.389 805.58 597.189 805.4 598.096 805.4ZM609.091 816.1C608.238 816.1 607.418 815.98 606.631 815.74C605.858 815.487 605.251 815.173 604.811 814.8L605.451 813.68C605.891 814.027 606.444 814.313 607.111 814.54C607.778 814.753 608.471 814.86 609.191 814.86C610.151 814.86 610.858 814.713 611.311 814.42C611.778 814.113 612.011 813.687 612.011 813.14C612.011 812.753 611.884 812.453 611.631 812.24C611.378 812.013 611.058 811.847 610.671 811.74C610.284 811.62 609.771 811.507 609.131 811.4C608.278 811.24 607.591 811.08 607.071 810.92C606.551 810.747 606.104 810.46 605.731 810.06C605.371 809.66 605.191 809.107 605.191 808.4C605.191 807.52 605.558 806.8 606.291 806.24C607.024 805.68 608.044 805.4 609.351 805.4C610.031 805.4 610.711 805.493 611.391 805.68C612.071 805.853 612.631 806.087 613.071 806.38L612.451 807.52C611.584 806.92 610.551 806.62 609.351 806.62C608.444 806.62 607.758 806.78 607.291 807.1C606.838 807.42 606.611 807.84 606.611 808.36C606.611 808.76 606.738 809.08 606.991 809.32C607.258 809.56 607.584 809.74 607.971 809.86C608.358 809.967 608.891 810.08 609.571 810.2C610.411 810.36 611.084 810.52 611.591 810.68C612.098 810.84 612.531 811.113 612.891 811.5C613.251 811.887 613.431 812.42 613.431 813.1C613.431 814.02 613.044 814.753 612.271 815.3C611.511 815.833 610.451 816.1 609.091 816.1ZM621.596 815.36C621.33 815.6 620.996 815.787 620.596 815.92C620.21 816.04 619.803 816.1 619.376 816.1C618.39 816.1 617.63 815.833 617.096 815.3C616.563 814.767 616.296 814.013 616.296 813.04V806.68H614.416V805.48H616.296V803.18H617.716V805.48H620.916V806.68H617.716V812.96C617.716 813.587 617.87 814.067 618.176 814.4C618.496 814.72 618.95 814.88 619.536 814.88C619.83 814.88 620.11 814.833 620.376 814.74C620.656 814.647 620.896 814.513 621.096 814.34L621.596 815.36ZM628.11 816.1C627.097 816.1 626.183 815.873 625.37 815.42C624.557 814.953 623.917 814.313 623.45 813.5C622.983 812.687 622.75 811.767 622.75 810.74C622.75 809.713 622.983 808.793 623.45 807.98C623.917 807.167 624.557 806.533 625.37 806.08C626.183 805.627 627.097 805.4 628.11 805.4C629.123 805.4 630.037 805.627 630.85 806.08C631.663 806.533 632.297 807.167 632.75 807.98C633.217 808.793 633.45 809.713 633.45 810.74C633.45 811.767 633.217 812.687 632.75 813.5C632.297 814.313 631.663 814.953 630.85 815.42C630.037 815.873 629.123 816.1 628.11 816.1ZM628.11 814.84C628.857 814.84 629.523 814.673 630.11 814.34C630.71 813.993 631.177 813.507 631.51 812.88C631.843 812.253 632.01 811.54 632.01 810.74C632.01 809.94 631.843 809.227 631.51 808.6C631.177 807.973 630.71 807.493 630.11 807.16C629.523 806.813 628.857 806.64 628.11 806.64C627.363 806.64 626.69 806.813 626.09 807.16C625.503 807.493 625.037 807.973 624.69 808.6C624.357 809.227 624.19 809.94 624.19 810.74C624.19 811.54 624.357 812.253 624.69 812.88C625.037 813.507 625.503 813.993 626.09 814.34C626.69 814.673 627.363 814.84 628.11 814.84ZM641.709 805.4C643.029 805.4 644.076 805.787 644.849 806.56C645.636 807.32 646.029 808.433 646.029 809.9V816H644.609V810.04C644.609 808.947 644.336 808.113 643.789 807.54C643.242 806.967 642.462 806.68 641.449 806.68C640.316 806.68 639.416 807.02 638.749 807.7C638.096 808.367 637.769 809.293 637.769 810.48V816H636.349V805.48H637.709V807.42C638.096 806.78 638.629 806.287 639.309 805.94C640.002 805.58 640.802 805.4 641.709 805.4ZM661.499 816.12C660.112 816.12 658.859 815.813 657.739 815.2C656.632 814.587 655.759 813.74 655.119 812.66C654.492 811.567 654.179 810.347 654.179 809C654.179 807.653 654.492 806.44 655.119 805.36C655.759 804.267 656.639 803.413 657.759 802.8C658.879 802.187 660.132 801.88 661.519 801.88C662.559 801.88 663.519 802.053 664.399 802.4C665.279 802.747 666.025 803.253 666.639 803.92L665.699 804.86C664.605 803.753 663.225 803.2 661.559 803.2C660.452 803.2 659.445 803.453 658.539 803.96C657.632 804.467 656.919 805.16 656.399 806.04C655.892 806.92 655.639 807.907 655.639 809C655.639 810.093 655.892 811.08 656.399 811.96C656.919 812.84 657.632 813.533 658.539 814.04C659.445 814.547 660.452 814.8 661.559 814.8C663.239 814.8 664.619 814.24 665.699 813.12L666.639 814.06C666.025 814.727 665.272 815.24 664.379 815.6C663.499 815.947 662.539 816.12 661.499 816.12ZM674.854 805.4C676.174 805.4 677.22 805.787 677.994 806.56C678.78 807.32 679.174 808.433 679.174 809.9V816H677.754V810.04C677.754 808.947 677.48 808.113 676.934 807.54C676.387 806.967 675.607 806.68 674.594 806.68C673.46 806.68 672.56 807.02 671.894 807.7C671.24 808.367 670.914 809.293 670.914 810.48V816H669.494V801.16H670.914V807.32C671.3 806.707 671.834 806.233 672.514 805.9C673.194 805.567 673.974 805.4 674.854 805.4ZM692.509 805.48V816H691.149V814.08C690.775 814.72 690.262 815.22 689.609 815.58C688.955 815.927 688.209 816.1 687.369 816.1C685.995 816.1 684.909 815.72 684.109 814.96C683.322 814.187 682.929 813.06 682.929 811.58V805.48H684.349V811.44C684.349 812.547 684.622 813.387 685.169 813.96C685.715 814.533 686.495 814.82 687.509 814.82C688.615 814.82 689.489 814.487 690.129 813.82C690.769 813.14 691.089 812.2 691.089 811V805.48H692.509ZM697.846 807.54C698.179 806.833 698.673 806.3 699.326 805.94C699.993 805.58 700.813 805.4 701.786 805.4V806.78L701.446 806.76C700.339 806.76 699.473 807.1 698.846 807.78C698.219 808.46 697.906 809.413 697.906 810.64V816H696.486V805.48H697.846V807.54ZM708.619 816.1C707.579 816.1 706.646 815.873 705.819 815.42C705.006 814.967 704.366 814.333 703.899 813.52C703.433 812.693 703.199 811.767 703.199 810.74C703.199 809.713 703.433 808.793 703.899 807.98C704.366 807.167 705.006 806.533 705.819 806.08C706.646 805.627 707.579 805.4 708.619 805.4C709.526 805.4 710.333 805.58 711.039 805.94C711.759 806.287 712.326 806.8 712.739 807.48L711.679 808.2C711.333 807.68 710.893 807.293 710.359 807.04C709.826 806.773 709.246 806.64 708.619 806.64C707.859 806.64 707.173 806.813 706.559 807.16C705.959 807.493 705.486 807.973 705.139 808.6C704.806 809.227 704.639 809.94 704.639 810.74C704.639 811.553 704.806 812.273 705.139 812.9C705.486 813.513 705.959 813.993 706.559 814.34C707.173 814.673 707.859 814.84 708.619 814.84C709.246 814.84 709.826 814.713 710.359 814.46C710.893 814.207 711.333 813.82 711.679 813.3L712.739 814.02C712.326 814.7 711.759 815.22 711.039 815.58C710.319 815.927 709.513 816.1 708.619 816.1ZM720.733 805.4C722.053 805.4 723.099 805.787 723.873 806.56C724.659 807.32 725.053 808.433 725.053 809.9V816H723.633V810.04C723.633 808.947 723.359 808.113 722.813 807.54C722.266 806.967 721.486 806.68 720.473 806.68C719.339 806.68 718.439 807.02 717.773 807.7C717.119 808.367 716.793 809.293 716.793 810.48V816H715.373V801.16H716.793V807.32C717.179 806.707 717.713 806.233 718.393 805.9C719.073 805.567 719.853 805.4 720.733 805.4ZM728.908 805.48H730.328V816H728.908V805.48ZM729.628 803.18C729.334 803.18 729.088 803.08 728.888 802.88C728.688 802.68 728.588 802.44 728.588 802.16C728.588 801.893 728.688 801.66 728.888 801.46C729.088 801.26 729.334 801.16 729.628 801.16C729.921 801.16 730.168 801.26 730.368 801.46C730.568 801.647 730.668 801.873 730.668 802.14C730.668 802.433 730.568 802.68 730.368 802.88C730.168 803.08 729.921 803.18 729.628 803.18ZM734.279 801.16H735.699V816H734.279V801.16ZM739.65 801.16H741.07V816H739.65V801.16ZM744.241 809.96H749.481V811.2H744.241V809.96Z" fill="black"/>
</g>
<defs>
<linearGradient id="paint0_linear_21_2" x1="597" y1="0" x2="597" y2="834" gradientUnits="userSpaceOnUse">
<stop stop-color="#FEE1E2"/>
<stop offset="0.331256" stop-color="#F4BAC2"/>
<stop offset="0.626713" stop-color="#D63197"/>
<stop offset="0.815408" stop-color="#7E3793"/>
</linearGradient>
<clipPath id="clip0_21_2">
<rect width="1194" height="834" fill="white"/>
</clipPath>
</defs>
</svg>
