<svg width="62" height="62" viewBox="0 0 62 62" fill="none" xmlns="http://www.w3.org/2000/svg">
<path d="M36.1667 25.8333L36.1667 43.9166" stroke="white" stroke-width="5" stroke-linecap="round" stroke-linejoin="round"/>
<path d="M25.8333 25.8333L25.8333 43.9166" stroke="white" stroke-width="5" stroke-linecap="round" stroke-linejoin="round"/>
<path d="M15.5 15.5V13C14.1193 13 13 14.1193 13 15.5H15.5ZM46.5 15.5H49C49 14.1193 47.8807 13 46.5 13V15.5ZM15.5 18H46.5V13H15.5V18ZM44 15.5V51.6667H49V15.5H44ZM43.9167 51.75H18.0833V56.75H43.9167V51.75ZM18 51.6667V15.5H13V51.6667H18ZM18.0833 51.75C18.0373 51.75 18 51.7127 18 51.6667H13C13 54.4741 15.2759 56.75 18.0833 56.75V51.75ZM44 51.6667C44 51.7127 43.9627 51.75 43.9167 51.75V56.75C46.7241 56.75 49 54.4741 49 51.6667H44Z" fill="white"/>
<path d="M10.3333 15.5H51.6666" stroke="white" stroke-width="5" stroke-linecap="round" stroke-linejoin="round"/>
<path d="M41.3334 15.5V18C42.7141 18 43.8334 16.8807 43.8334 15.5H41.3334ZM20.6667 15.5H18.1667C18.1667 16.8807 19.286 18 20.6667 18V15.5ZM23.25 10.25H38.75V5.25H23.25V10.25ZM38.8334 10.3333V15.5H43.8334V10.3333H38.8334ZM41.3334 13H20.6667V18H41.3334V13ZM23.1667 15.5V10.3333H18.1667V15.5H23.1667ZM38.75 10.25C38.796 10.25 38.8334 10.2873 38.8334 10.3333H43.8334C43.8334 7.52589 41.5575 5.25 38.75 5.25V10.25ZM23.25 5.25C20.4426 5.25 18.1667 7.52589 18.1667 10.3333H23.1667C23.1667 10.2873 23.204 10.25 23.25 10.25V5.25Z" fill="white"/>
</svg>
