<svg width="62" height="62" viewBox="0 0 62 62" fill="none" xmlns="http://www.w3.org/2000/svg">
<path d="M10.3333 51.6667H51.6666" stroke="white" stroke-width="5" stroke-linecap="round" stroke-linejoin="round"/>
<path d="M20.6666 51.6666V54.1666C21.3297 54.1666 21.9656 53.9032 22.4344 53.4344L20.6666 51.6666ZM10.3333 51.6666H7.83331C7.83331 53.0473 8.9526 54.1666 10.3333 54.1666V51.6666ZM10.3333 41.3333L8.56555 39.5655C8.09671 40.0343 7.83331 40.6702 7.83331 41.3333H10.3333ZM39.5066 12.16L41.2744 13.9277L41.2744 13.9277L39.5066 12.16ZM43.16 12.16L41.3922 13.9277L41.3922 13.9277L43.16 12.16ZM49.84 18.8399L51.6077 17.0721L51.6077 17.0721L49.84 18.8399ZM49.84 22.4933L48.0722 20.7255L48.0722 20.7255L49.84 22.4933ZM20.6666 49.1666H10.3333V54.1666H20.6666V49.1666ZM12.8333 51.6666V41.3333H7.83331V51.6666H12.8333ZM12.1011 43.101L41.2744 13.9277L37.7389 10.3922L8.56555 39.5655L12.1011 43.101ZM41.3922 13.9277L48.0722 20.6077L51.6077 17.0721L44.9278 10.3922L41.3922 13.9277ZM48.0722 20.7255L18.8989 49.8988L22.4344 53.4344L51.6077 24.2611L48.0722 20.7255ZM48.0722 20.6077C48.1047 20.6402 48.1047 20.693 48.0722 20.7255L51.6077 24.2611C53.5929 22.2759 53.5929 19.0573 51.6077 17.0721L48.0722 20.6077ZM41.2744 13.9277C41.3069 13.8952 41.3597 13.8952 41.3922 13.9277L44.9278 10.3922C42.9426 8.40703 39.724 8.40703 37.7389 10.3922L41.2744 13.9277Z" fill="white"/>
<path d="M31 20.6667L41.3333 31.0001" stroke="white" stroke-width="2" stroke-linecap="round" stroke-linejoin="round"/>
</svg>
