<svg width="439" height="442" viewBox="0 0 439 442" fill="none" xmlns="http://www.w3.org/2000/svg">
<g opacity="0.4">
<path opacity="0.4" d="M435.461 230.543C436.399 222.924 435.839 215.195 433.814 207.79C431.735 200.528 427.877 193.727 422.392 189.206C421.052 188.08 419.617 187.071 418.103 186.193C413.7 183.713 408.683 182.535 403.637 182.797C397.037 183.159 390.679 185.65 384.903 189.247C384.551 189.468 384.149 189.709 383.848 189.92L383.014 190.542C382.472 190.994 381.929 191.416 381.407 191.909C380.322 192.895 379.315 193.963 378.393 195.103C376.367 197.568 374.571 200.215 373.029 203.009C369.652 209.179 366.725 215.585 364.269 222.176C359.015 235.817 354.394 250.363 349.201 265.08C347.915 268.763 346.576 272.447 345.183 276.13C343.806 279.847 342.32 283.564 340.773 287.3C337.651 295.088 333.937 302.624 329.662 309.843C328.497 311.741 327.251 313.65 325.805 315.558C325.082 316.563 324.288 317.487 323.454 318.431C322.621 319.376 321.747 320.23 320.853 321.063C317.392 324.236 313.503 326.907 309.3 328.999C301.344 333.078 293.408 335.268 285.754 337.538C278.099 339.808 270.605 341.827 263.422 344.509C256.31 347.087 249.51 350.456 243.151 354.555C236.969 358.563 231.505 363.582 226.988 369.402C222.497 375.229 219.011 381.698 217.474 388.197C216.703 391.299 216.388 394.497 216.54 397.69C216.694 400.549 217.404 403.35 218.63 405.938C219.722 408.23 221.276 410.272 223.195 411.935C225.114 413.598 227.356 414.846 229.78 415.601C232.253 416.403 234.836 416.813 237.435 416.817C240.215 416.818 242.984 416.481 245.682 415.812C246.375 415.642 247.079 415.441 247.772 415.23L250.263 414.486C251.917 413.964 253.551 413.408 255.165 412.819C258.4 411.613 261.574 410.287 264.718 408.801C271.017 405.787 277.305 401.98 284.287 397.931C291.621 393.563 299.262 389.732 307.15 386.469C315.359 383.234 323.86 380.796 332.535 379.186C333.61 378.955 334.675 378.815 335.75 378.634L338.623 378.172C340.21 377.901 341.817 377.589 343.435 377.238C346.649 376.524 349.854 375.65 352.978 374.626C365.525 370.497 376.826 363.958 385.425 354.726C389.859 350.026 393.686 344.788 396.816 339.135C398.485 336.185 399.965 333.132 401.247 329.994C402.607 326.744 403.794 323.424 404.803 320.049C405.807 316.613 406.721 313.077 407.455 309.451C407.806 307.753 408.178 305.523 408.56 303.514C408.941 301.505 409.403 299.425 409.886 297.406C411.811 289.419 414.289 281.575 417.299 273.93C420.222 266.366 423.628 259.113 427.043 251.991C428.751 248.424 430.459 244.888 432.066 241.342C433.678 237.912 434.82 234.279 435.461 230.543V230.543ZM438.475 230.865C438.225 232.913 437.774 234.932 437.129 236.892C436.546 238.831 435.853 240.699 435.18 242.558C433.814 246.285 432.398 249.931 431.162 253.608C429.926 257.285 428.741 261.021 427.767 264.758C426.792 268.495 426.049 272.293 425.426 276.07C424.269 283.585 423.859 291.196 424.2 298.792C424.271 300.671 424.411 302.549 424.552 304.408C424.693 306.266 424.934 308.004 425.105 310.224C425.464 314.483 425.592 318.759 425.486 323.032C425.296 331.927 423.835 340.75 421.147 349.231C418.316 358.1 413.983 366.418 408.339 373.822C402.594 381.243 395.728 387.724 387.986 393.029C380.395 398.238 372.138 402.401 363.435 405.405C359.162 406.899 354.801 408.127 350.376 409.082C348.146 409.574 345.906 409.976 343.616 410.307L338.081 411.121C331.27 412.135 324.556 413.718 318.01 415.852C311.232 418.166 304.621 420.938 298.22 424.15C291.359 427.465 283.905 431.282 275.778 434.447C271.696 436.059 267.532 437.454 263.302 438.626C261.172 439.208 259.043 439.721 256.903 440.203L253.678 440.856C252.463 441.077 251.237 441.278 250.002 441.428C244.957 442.097 239.843 442.043 234.813 441.268C229.587 440.472 224.539 438.772 219.895 436.245C215.155 433.656 210.989 430.133 207.65 425.888C204.344 421.708 201.973 416.868 200.699 411.694C199.493 406.803 199.22 401.728 199.895 396.736C200.499 392.085 201.779 387.547 203.692 383.265C207.358 375.404 212.361 368.239 218.479 362.089C221.401 359.073 224.522 356.258 227.821 353.661C231.101 351.121 234.526 348.773 238.078 346.629C252.212 338.09 267.702 333.198 281.916 327.02C288.998 324.007 295.819 320.511 301.173 316.241C303.688 314.247 305.904 311.903 307.753 309.28C308.165 308.667 308.557 308.034 308.918 307.401C309.28 306.769 309.592 306.146 309.923 305.453C310.596 304.066 311.229 302.539 311.832 300.932C313.047 297.728 314.102 294.232 315.086 290.666C316.071 287.1 317.015 283.443 317.98 279.736L320.812 268.525C321.767 264.758 322.741 260.961 323.826 257.164C328.025 241.975 332.867 226.555 340.401 211.507C344.214 203.688 348.934 196.344 354.465 189.628C355.961 187.91 357.478 186.223 359.206 184.606C360.904 182.932 362.713 181.375 364.621 179.944C366.594 178.441 368.683 177.098 370.869 175.926C371.982 175.313 373.129 174.763 374.305 174.279L376.093 173.576C376.675 173.365 377.178 173.214 377.72 173.033C382.033 171.624 386.485 170.688 391 170.24C395.58 169.786 400.201 169.992 404.722 170.853C409.224 171.714 413.541 173.353 417.48 175.695C419.401 176.836 421.214 178.151 422.895 179.623C424.554 181.051 426.09 182.617 427.485 184.304C432.692 190.883 436.191 198.648 437.671 206.906C439.112 214.81 439.383 222.883 438.475 230.865V230.865Z" fill="#EBEBEB"/>
<path opacity="0.4" d="M135.765 35.9425C144.66 34.5478 153.331 31.9806 161.551 28.3079C169.849 24.7719 177.835 20.5026 185.882 16.1629C189.9 14.0232 193.918 11.8032 198.157 9.72376C202.395 7.53516 206.755 5.59314 211.216 3.90742C216.025 2.07184 221.042 0.840224 226.154 0.240827C232.018 -0.41472 237.954 0.272315 243.513 2.24992C244.979 2.77229 246.396 3.47547 247.842 4.12843C249.289 4.78138 250.575 5.70557 251.921 6.54939C253.267 7.39321 254.432 8.4078 255.647 9.39226C256.863 10.3767 257.898 11.4817 259.003 12.5465C263.087 16.7499 266.538 21.5245 269.249 26.7207C271.888 31.8139 273.892 37.2119 275.216 42.7935C276.448 48.0433 277.248 53.3853 277.607 58.7658C278.139 68.6239 277.958 78.5077 277.064 88.3397L275.949 102.062C275.769 104.302 275.648 106.512 275.497 108.712L275.306 111.987L275.176 115.221C275.027 119.411 275.091 123.605 275.367 127.788C275.6 131.758 276.174 135.701 277.085 139.572C278.125 143.619 279.517 147.569 281.243 151.375C283.011 155.393 285.041 159.411 287.22 163.49C291.6 171.617 296.573 179.733 301.415 188.111L305.011 194.46C306.176 196.62 307.321 198.78 308.426 201.01C310.728 205.489 312.676 210.141 314.253 214.923C315.957 219.888 316.859 225.093 316.925 230.343C316.897 235.701 315.653 240.984 313.288 245.793C312.135 248.102 310.762 250.295 309.19 252.342L306.789 255.265C305.965 256.19 305.111 257.023 304.278 257.907C300.846 261.355 297.103 264.479 293.097 267.24C289.021 269.978 284.688 272.313 280.158 274.211C279.013 274.653 277.898 275.216 276.733 275.567L273.237 276.753C270.876 277.426 268.506 278.099 266.085 278.591C256.4 280.599 246.47 281.155 236.621 280.239C231.7 279.839 226.806 279.151 221.965 278.179C217.103 277.275 212.331 276.009 207.59 274.633C205.249 273.89 202.869 273.207 200.558 272.373L197.062 271.157L193.617 269.851C189.016 268.063 184.499 266.111 180.065 263.995C177.845 262.93 175.655 261.825 173.455 260.73C171.255 259.635 169.116 258.42 166.976 257.224C164.836 256.029 162.697 254.823 160.607 253.548C158.518 252.272 156.408 251.016 154.359 249.68L142.555 242.036C140.637 240.8 138.688 239.625 136.759 238.409L133.856 236.611L130.933 234.873C115.435 225.603 99.3818 217.293 82.8652 209.99C74.5676 206.304 66.1897 202.778 57.3296 198.77C52.9096 196.761 48.369 194.561 43.6778 191.939C38.698 189.153 33.9896 185.907 29.6141 182.245C24.9435 178.288 20.801 173.747 17.2883 168.734C13.9558 163.956 11.1406 158.837 8.89025 153.465C7.72498 150.903 6.88116 148.371 5.87661 145.82C5.42456 144.554 5.05288 143.299 4.64101 142.043C4.22915 140.787 3.84742 139.602 3.50587 138.205L2.50132 134.187L1.98901 132.178L1.59723 130.109C1.0246 127.349 0.612052 124.558 0.361638 121.751C0.231047 120.335 0.0904093 118.918 0 117.502V113.152V110.982C0 110.259 0.120546 109.526 0.180819 108.792L0.612773 104.433C0.833774 102.986 1.17532 101.529 1.45659 100.093L1.91868 97.9432C2.0995 97.2299 2.3406 96.5268 2.55155 95.8236C2.99355 94.4172 3.42551 93.0209 3.89765 91.6346C4.36978 90.2483 5.05288 88.9525 5.65561 87.6164C8.05507 82.4769 11.2259 77.7343 15.0582 73.5527L16.4244 72.0158C16.9065 71.5336 17.4289 71.0816 17.881 70.6094C18.8855 69.6852 19.8298 68.741 20.8343 67.867C22.9137 66.2497 24.9228 64.5219 27.0927 63.1456C31.2668 60.3295 35.6725 57.873 40.2623 55.8024C44.6879 53.8252 49.2224 52.1013 53.8438 50.639C62.8273 47.8497 71.9765 45.6253 81.2378 43.9788C83.5282 43.577 85.7985 43.1049 88.0888 42.7734C90.3792 42.4419 92.6294 41.9597 94.9198 41.6383C97.2101 41.3168 99.4804 40.9451 101.751 40.6337L108.572 39.6292L135.765 35.9425ZM136.267 38.9561C127.226 40.262 118.296 41.8994 109.466 43.9788L106.161 44.7724L102.876 45.6464C100.686 46.2089 98.516 46.8719 96.3563 47.5249C92.0166 48.7906 87.7573 50.2774 83.5483 51.8445C75.2178 54.9171 67.1822 58.7365 59.5396 63.2561C55.8443 65.4478 52.282 67.8562 48.8713 70.4688C45.6385 72.997 42.6151 75.7819 39.8303 78.7965C38.4039 80.2129 37.2788 81.8101 36.0331 83.2969L34.4158 85.6475C34.1546 86.0292 33.8734 86.411 33.6222 86.8027L32.9391 88.0182C31.1213 91.0811 29.7354 94.3804 28.8205 97.8226C28.6296 98.6664 28.4388 99.5002 28.2077 100.314L27.826 102.865C27.7657 103.287 27.6753 103.699 27.6452 104.131L27.5849 105.437C27.5849 106.301 27.4744 107.145 27.4744 108.019L27.5648 110.661C27.5648 111.103 27.5648 111.525 27.615 111.977L27.7758 113.333L28.0671 116.015L28.6095 118.757C29.3402 122.554 30.3509 126.291 31.6332 129.938C31.9045 130.862 32.2962 131.847 32.6378 132.821C32.9793 133.795 33.3811 134.78 33.783 135.724C34.6067 137.563 35.3701 139.471 36.2642 141.169C37.8332 144.467 39.7278 147.6 41.9198 150.521C43.9714 153.179 46.3319 155.583 48.9516 157.684C54.1954 161.943 61.408 165.72 69.5348 169.507C73.553 171.426 77.7621 173.345 82.0515 175.324C86.3409 177.302 90.6203 179.342 94.9298 181.501C112.312 190.114 129.063 199.947 145.057 210.925L148.07 212.934L151.084 215.023C153.093 216.43 155.042 217.796 156.991 219.232L168.352 227.62C171.979 230.272 175.645 232.844 179.332 235.385L184.927 239.082C186.806 240.278 188.674 241.483 190.573 242.658C194.38 244.939 198.187 247.249 202.095 249.319L205.008 250.906L207.952 252.402C209.91 253.407 211.909 254.321 213.898 255.275C221.797 258.944 230.032 261.838 238.49 263.915C242.658 264.899 246.891 265.587 251.157 265.974C255.373 266.376 259.618 266.376 263.835 265.974C272.238 265.291 280.385 262.756 287.693 258.55C291.336 256.393 294.731 253.843 297.818 250.946C298.572 250.203 299.385 249.479 300.099 248.726L302.108 246.425C303.344 244.858 304.427 243.176 305.342 241.403C307.151 237.883 308.056 233.968 307.974 230.011C307.836 225.828 306.959 221.703 305.383 217.826C303.719 213.712 301.702 209.749 299.355 205.982C296.965 202.145 294.333 198.378 291.52 194.671C285.935 187.248 279.827 180.005 273.85 172.29C270.836 168.402 267.923 164.384 265.15 160.085C262.217 155.646 259.67 150.965 257.536 146.091C253.126 135.624 251.418 125.046 250.685 114.86C249.359 94.5478 251.951 75.8532 251.579 59.0973C251.398 50.7395 250.484 43.0245 248.053 36.1936C246.827 32.7572 245.177 29.4872 243.141 26.4595C241.418 23.7594 239.15 21.4496 236.481 19.6788C233.565 17.8721 230.279 16.749 226.867 16.394C222.854 15.9707 218.804 16.0585 214.813 16.6551C210.481 17.2796 206.188 18.1482 201.954 19.2569C197.645 20.4322 193.305 21.7281 189.006 23.1747C180.367 25.9874 171.788 29.2019 163.068 32.075C154.347 35.1213 145.38 37.4134 136.267 38.926V38.9561Z" fill="#EBEBEB"/>
<path opacity="0.4" d="M177.494 377.68C174.585 378.421 171.627 378.958 168.643 379.287C167.217 379.478 165.841 379.578 164.444 379.699C163.048 379.819 161.692 379.859 160.346 379.88C157.634 379.99 155.002 379.88 152.37 379.829C141.912 379.417 131.917 377.82 122.063 376.293L118.567 375.761L117.02 375.54L115.443 375.419C114.378 375.309 113.273 375.349 112.188 375.319C111.103 375.289 109.968 375.409 108.833 375.5C107.698 375.59 106.572 375.701 105.417 375.881C104.262 376.062 103.127 376.233 101.962 376.464C99.6612 376.926 97.3105 377.469 94.99 378.081C85.6075 380.553 76.3356 384.219 65.9887 386.59C60.5227 387.896 54.8835 388.323 49.2831 387.856C46.2637 387.555 43.29 386.901 40.423 385.907C38.9742 385.402 37.5554 384.816 36.1737 384.149C35.4806 383.807 34.7674 383.476 34.1044 383.144L32.0953 381.989C29.5302 380.403 27.1069 378.598 24.8525 376.595C23.6972 375.59 22.6123 374.395 21.4973 373.27C20.3822 372.145 19.4882 370.849 18.4836 369.603C17.4791 368.357 16.7458 367.051 15.8919 365.725C15.4599 365.073 15.1184 364.399 14.7668 363.716L13.6919 361.707L13.1696 360.703L12.7376 359.698L11.8737 357.619C11.2882 356.249 10.7817 354.847 10.3568 353.42C8.63948 347.9 7.6269 342.186 7.3432 336.413C7.08607 330.831 7.39233 325.238 8.25733 319.717C9.14055 314.248 10.5778 308.883 12.5468 303.705C13.049 302.439 13.5513 301.173 14.1038 299.918C14.6563 298.662 15.2791 297.446 15.8718 296.221C16.4645 294.995 17.0974 293.79 17.7804 292.614C18.4635 291.439 19.0964 290.244 19.8498 289.089C25.588 279.986 32.7046 271.829 40.9453 264.909C44.9199 261.545 49.2013 258.562 53.7332 255.999C58.2083 253.48 63.0275 251.629 68.038 250.504C73.1809 249.434 78.5008 249.557 83.5884 250.865C88.7016 252.259 93.6018 254.34 98.1543 257.053C107.224 262.486 115.714 268.835 123.489 275.999C127.377 279.505 131.023 283.152 134.539 286.889C134.868 287.257 135.232 287.593 135.624 287.893L136.528 288.687C137.231 289.159 137.764 289.691 138.537 290.143L139.542 290.846C139.903 291.067 140.275 291.268 140.617 291.509C141.28 291.982 142.123 292.363 142.827 292.815C146.283 294.715 149.856 296.393 153.525 297.838L159.924 300.36L163.35 301.696L166.926 303.182C169.347 304.187 171.898 305.382 174.49 306.658C177.266 308.086 179.95 309.687 182.526 311.45C185.438 313.446 188.131 315.742 190.563 318.301C193.203 321.081 195.453 324.207 197.253 327.593L197.946 328.879L198.539 330.195C198.921 331.079 199.322 331.963 199.664 332.867C200.305 334.626 200.832 336.424 201.241 338.251L201.804 340.933L202.145 343.545C202.348 345.242 202.458 346.949 202.477 348.658C202.477 349.11 202.477 349.452 202.477 349.964C202.477 350.657 202.477 351.33 202.396 351.973C202.314 353.388 202.109 354.793 201.784 356.172C201.703 356.514 201.623 356.865 201.532 357.177L201.191 358.252C200.96 358.955 200.699 359.648 200.437 360.351C199.844 361.696 199.153 362.996 198.368 364.239C197.966 364.831 197.554 365.404 197.132 365.967C196.922 366.258 196.701 366.549 196.49 366.8L195.817 367.544C195.375 368.026 194.912 368.548 194.45 368.97C193.988 369.392 193.536 369.784 193.064 370.186C192.592 370.588 192.12 370.959 191.648 371.311L190.281 372.255C189.819 372.546 189.337 372.878 188.895 373.129L187.559 373.862C184.368 375.53 180.989 376.812 177.494 377.68V377.68Z" fill="#EBEBEB"/>
<path opacity="0.4" d="M319.989 119.772C319.428 116.532 319.196 113.244 319.296 109.958C319.386 103.669 320.803 97.903 322.36 92.3077C323.895 86.7165 325.86 81.2523 328.236 75.9637C330.659 70.6525 333.715 65.6537 337.337 61.0763C341.11 56.3082 345.501 52.065 350.396 48.4592C355.877 44.6226 362.18 42.1216 368.8 41.1561C372.309 40.6303 375.87 40.5561 379.398 40.9351C382.797 41.3148 386.119 42.2055 389.252 43.5771C392.035 44.8278 394.64 46.4425 396.997 48.3788C399.117 50.1317 401.13 52.0102 403.025 54.0043C404.002 55.0683 404.876 56.2219 405.637 57.4499C406.361 58.7157 406.98 60.0395 407.485 61.4078C408.45 64.2381 409.124 67.1598 409.494 70.1273C410.338 76.2856 410.409 82.5254 409.705 88.7014C409.015 94.624 407.074 100.332 404.009 105.447C401.033 110.3 397.111 114.506 392.477 117.813C387.876 121.168 382.432 123.569 377.178 125.759C371.924 127.949 366.61 129.898 361.668 132.228C356.725 134.559 351.954 137.151 345.936 139.029C344.328 139.533 342.677 139.889 341.004 140.094C339.055 140.353 337.078 140.323 335.137 140.004C332.536 139.485 330.114 138.301 328.106 136.568C327.623 136.126 327.101 135.644 326.679 135.172C326.257 134.7 325.845 134.167 325.444 133.695C324.751 132.753 324.127 131.763 323.575 130.732C323.071 129.782 322.618 128.806 322.219 127.808C321.877 126.904 321.496 125.91 321.214 125.036L320.823 123.66L320.491 122.334C320.29 121.52 320.15 120.646 319.989 119.772Z" fill="#EBEBEB"/>
</g>
<path d="M113.876 418.374C124.789 418.374 133.635 409.527 133.635 398.614C133.635 387.702 124.789 378.855 113.876 378.855C102.963 378.855 94.1162 387.702 94.1162 398.614C94.1162 409.527 102.963 418.374 113.876 418.374Z" fill="#EBEBEB"/>
<path d="M121.038 386.891C121.086 387.841 120.829 388.781 120.305 389.573C119.773 390.389 119.03 391.045 118.155 391.472C117.255 391.924 116.216 392.014 115.252 391.723C114.338 391.43 113.556 390.825 113.042 390.015C113.744 390.539 114.554 390.9 115.412 391.07C115.815 391.136 116.225 391.136 116.628 391.07C117.03 391.006 117.419 390.88 117.783 390.699C117.964 390.608 118.155 390.508 118.336 390.397C118.513 390.286 118.684 390.165 118.848 390.036C119.186 389.788 119.493 389.502 119.762 389.182C120.33 388.507 120.763 387.73 121.038 386.891Z" fill="#C7C7C7"/>
<path d="M114.006 388.026C113.914 387.369 114.056 386.701 114.408 386.138C114.769 385.556 115.288 385.089 115.905 384.792C116.22 384.629 116.565 384.531 116.919 384.505C117.273 384.479 117.629 384.526 117.964 384.641C118.6 384.853 119.129 385.303 119.441 385.897C118.94 385.59 118.383 385.386 117.803 385.294C117.279 385.231 116.747 385.325 116.276 385.565C115.237 386.071 114.427 386.95 114.006 388.026V388.026Z" fill="#C7C7C7"/>
<path d="M113.876 407.906C114.102 408.512 114.102 409.179 113.876 409.785C113.664 410.423 113.265 410.983 112.73 411.392C112.456 411.604 112.143 411.759 111.808 411.848C111.474 411.938 111.125 411.961 110.782 411.915C110.136 411.821 109.547 411.497 109.124 411.001C109.668 411.179 110.239 411.26 110.812 411.242C111.321 411.205 111.807 411.016 112.208 410.699C112.618 410.378 112.959 409.978 113.213 409.524C113.526 409.028 113.751 408.48 113.876 407.906V407.906Z" fill="#C7C7C7"/>
<path d="M109.777 410.147C109.668 409.945 109.601 409.724 109.579 409.497C109.556 409.269 109.579 409.039 109.646 408.821C109.781 408.361 110.059 407.956 110.44 407.666C110.638 407.511 110.867 407.4 111.111 407.34C111.355 407.279 111.609 407.27 111.856 407.314C112.083 407.353 112.299 407.437 112.492 407.562C112.685 407.686 112.852 407.848 112.981 408.037C112.601 407.963 112.212 407.946 111.826 407.987C111.514 408.038 111.218 408.162 110.962 408.349C110.385 408.806 109.97 409.436 109.777 410.147V410.147Z" fill="#C7C7C7"/>
<path d="M106.753 390.126C106.926 390.29 107.064 390.486 107.16 390.703C107.257 390.92 107.31 391.154 107.316 391.392C107.32 391.65 107.272 391.907 107.176 392.147C107.079 392.386 106.935 392.605 106.753 392.788C106.568 392.979 106.34 393.123 106.089 393.21C105.838 393.298 105.57 393.325 105.307 393.29C104.84 393.236 104.405 393.027 104.071 392.698C104.481 392.706 104.892 392.676 105.297 392.607C105.617 392.563 105.913 392.415 106.14 392.185C106.378 391.944 106.551 391.647 106.643 391.321C106.744 390.932 106.782 390.528 106.753 390.126Z" fill="#C7C7C7"/>
<path d="M104.302 392.045C104.158 391.948 104.038 391.818 103.952 391.666C103.867 391.515 103.818 391.345 103.81 391.171C103.805 390.986 103.837 390.801 103.904 390.629C103.972 390.456 104.073 390.299 104.202 390.166C104.341 390.024 104.512 389.918 104.701 389.857C104.89 389.795 105.091 389.781 105.287 389.815C105.624 389.868 105.927 390.052 106.131 390.327C105.849 390.364 105.57 390.421 105.297 390.498C105.114 390.541 104.947 390.635 104.815 390.769C104.675 390.915 104.562 391.085 104.483 391.271C104.389 391.52 104.328 391.78 104.302 392.045V392.045Z" fill="#C7C7C7"/>
<path d="M120.485 410.96C120.37 411.17 120.214 411.353 120.026 411.5C119.838 411.647 119.621 411.754 119.39 411.814C119.142 411.881 118.882 411.898 118.627 411.863C118.372 411.829 118.126 411.744 117.904 411.613C117.674 411.479 117.478 411.293 117.333 411.07C117.189 410.847 117.098 410.592 117.07 410.328C116.999 409.861 117.095 409.384 117.341 408.981C117.429 409.382 117.557 409.772 117.723 410.147C117.842 410.449 118.057 410.703 118.336 410.87C118.626 411.039 118.954 411.132 119.29 411.141C119.695 411.144 120.099 411.083 120.485 410.96V410.96Z" fill="#C7C7C7"/>
<path d="M118.024 409.052C118.086 408.888 118.184 408.74 118.311 408.62C118.438 408.5 118.591 408.411 118.758 408.359C118.939 408.303 119.13 408.285 119.319 408.308C119.508 408.33 119.69 408.392 119.853 408.489C120.028 408.594 120.175 408.74 120.281 408.916C120.386 409.091 120.446 409.29 120.455 409.494C120.473 409.663 120.456 409.833 120.406 409.996C120.356 410.158 120.274 410.308 120.164 410.438C120.061 410.173 119.94 409.914 119.802 409.665C119.711 409.5 119.575 409.364 119.411 409.273C119.241 409.164 119.048 409.096 118.848 409.072C118.576 409.026 118.299 409.019 118.024 409.052V409.052Z" fill="#C7C7C7"/>
<path d="M127.256 397.047C127.279 397.285 127.253 397.526 127.18 397.753C127.108 397.981 126.99 398.192 126.834 398.373C126.667 398.571 126.461 398.732 126.23 398.847C125.999 398.963 125.746 399.031 125.488 399.046C125.223 399.061 124.957 399.016 124.712 398.913C124.466 398.81 124.248 398.653 124.072 398.454C123.751 398.107 123.563 397.659 123.539 397.188C123.847 397.473 124.184 397.726 124.544 397.941C124.815 398.116 125.135 398.201 125.458 398.183C125.794 398.162 126.12 398.055 126.402 397.871C126.734 397.65 127.023 397.371 127.256 397.047V397.047Z" fill="#C7C7C7"/>
<path d="M124.152 396.856C124.102 396.685 124.095 396.503 124.131 396.328C124.168 396.152 124.248 395.989 124.363 395.852C124.483 395.698 124.635 395.571 124.808 395.481C124.982 395.391 125.172 395.339 125.368 395.33C125.559 395.323 125.75 395.362 125.925 395.442C126.099 395.522 126.252 395.642 126.372 395.792C126.482 395.921 126.564 396.072 126.614 396.234C126.664 396.396 126.681 396.567 126.664 396.736C126.427 396.579 126.182 396.435 125.93 396.304C125.761 396.224 125.575 396.186 125.388 396.193C125.186 396.208 124.989 396.259 124.805 396.344C124.567 396.486 124.347 396.659 124.152 396.856V396.856Z" fill="#C7C7C7"/>
<path d="M101.078 401.528C101.1 401.766 101.073 402.006 101.001 402.234C100.929 402.461 100.811 402.672 100.656 402.854C100.311 403.244 99.8286 403.485 99.3097 403.527C99.0455 403.542 98.7813 403.497 98.5375 403.394C98.2937 403.291 98.0767 403.134 97.9033 402.934C97.5839 402.582 97.3928 402.133 97.3608 401.658C97.6709 401.941 98.0073 402.193 98.3654 402.412C98.64 402.589 98.9629 402.677 99.2896 402.663C99.6255 402.64 99.9501 402.533 100.234 402.352C100.555 402.121 100.84 401.844 101.078 401.528V401.528Z" fill="#C7C7C7"/>
<path d="M97.9336 401.337C97.8873 401.165 97.8824 400.984 97.919 400.809C97.9557 400.635 98.0329 400.471 98.1445 400.332C98.2659 400.18 98.4182 400.056 98.5915 399.968C98.7647 399.879 98.9548 399.829 99.1491 399.82C99.3402 399.812 99.5306 399.848 99.705 399.927C99.8794 400.005 100.033 400.124 100.154 400.272C100.263 400.404 100.345 400.556 100.395 400.72C100.445 400.884 100.462 401.056 100.445 401.226C100.213 401.062 99.9677 400.918 99.7116 400.794C99.5459 400.704 99.3569 400.666 99.1691 400.684C98.9697 400.692 98.7743 400.744 98.5966 400.835C98.3514 400.967 98.1278 401.137 97.9336 401.337Z" fill="#C7C7C7"/>
<path d="M395.852 47.2437L395.943 40.4429L400.453 45.4957L405.325 43.9789L402.944 48.3085L405.235 50.7094L401.689 51.071L401.628 55.6618L397.731 52.4271L394.566 55.059L394.918 51.1815L390.297 49.0418L395.852 47.2437Z" fill="#D880A6"/>
<path d="M391.573 393.049L397.811 395.762L391.412 397.972L390.93 403.045L387.856 399.177L384.752 400.362L385.787 396.957L381.578 395.119L386.068 392.778L384.863 388.84L388.308 390.668L392.065 387.233L391.573 393.049Z" fill="#D880A6"/>
<path d="M81.0067 406.54L74.8589 415.009L73.6635 404.672L66.1997 402.261L73.0306 398.926L72.2772 393.873L77.0488 396.565L81.1976 390.839L83.2368 398.353L89.5555 397.851L85.6578 402.422L89.5755 409.202L81.0067 406.54Z" fill="#D880A6"/>
<path d="M359.97 329.853L363.606 337.116L367.223 330.175L374.104 331.36L370.437 324.067L375.56 319.195L368.318 319.456L366.871 312.364L363.054 319.707L353.42 318.974L359.096 324.84L353.842 328.869L359.97 329.853Z" fill="#D880A6"/>
<path d="M191.798 47.0728L193.546 44.1395L190.261 44.4308L189.126 41.7185L187.368 44.6719L184.485 43.9587L186.213 46.47L184.033 48.5896L187.499 48.2782L189.418 51.8644L190.211 48.5193L192.833 49.4736L191.798 47.0728Z" fill="#D880A6"/>
<path d="M382.964 201.874L382.361 199.945L381.196 201.512L379.559 200.94L380.171 202.878L378.725 203.873L380.503 204.094L380.583 205.892L381.809 204.234L384.139 204.797L382.974 203.14L384.431 202.356L382.964 201.874Z" fill="#D880A6"/>
<path d="M409.052 314.423L410.549 313.077L408.65 312.665L408.49 310.938L406.983 312.294L405.476 311.38L406.008 313.097L404.411 313.901L406.41 314.343L406.862 316.704L407.897 314.956L409.213 315.96L409.052 314.423Z" fill="#D880A6"/>
<path d="M366.057 80.4841L367.554 79.138L365.665 78.7261L365.495 76.9983L363.988 78.3544L362.491 77.4403L363.024 79.1581L361.416 79.9718L363.425 80.4037L363.877 82.7644L364.912 81.0265L366.218 82.021L366.057 80.4841Z" fill="#D880A6"/>
<path d="M99.8823 357.287L99.9526 355.268L98.3353 356.353L96.9792 355.268L96.9089 357.297L95.2112 357.739L96.8185 358.553L96.286 360.271L97.9938 359.126L100.003 360.441L99.4705 358.483L101.098 358.242L99.8823 357.287Z" fill="#D880A6"/>
<path d="M137.914 28.6595L136.89 26.9316L136.116 28.7097L134.388 28.5389L135.423 30.2768L134.238 31.5727L136.026 31.3818L136.508 33.1197L137.322 31.2311L139.723 31.2512L138.216 29.8951L139.451 28.8001L137.914 28.6595Z" fill="#D880A6"/>
<path d="M42.6431 300.822L45.5563 295.186L39.519 296.09L37.108 291.188L34.1748 296.854L28.7502 295.859L32.236 300.319L28.4187 304.478L34.8076 303.524L38.7756 309.953L39.8705 303.675L44.833 305.151L42.6431 300.822Z" fill="#D880A6"/>
<path d="M71.8251 190.422L76.0542 191.286L74.3465 187.499L77.109 185.007L72.8598 184.133L72.5082 180.396L70.2279 183.511L66.7923 181.783L68.6005 185.791L65.1248 189.578L69.4443 189.136L69.3941 192.652L71.8251 190.422Z" fill="#D880A6"/>
<path d="M83.3372 67.4551C83.0057 67.0634 63.7184 58.1128 46.2493 71.4733C30.1766 83.7288 24.6214 106.763 26.751 107.316C29.3629 107.989 36.5152 96.9989 50.2474 90.9616C55.1195 88.8219 62.8645 90.9616 62.8645 90.9616L83.3372 67.4551Z" fill="#D880A6"/>
<path opacity="0.1" d="M62.8746 90.9316C60.5779 90.3233 58.2179 89.9861 55.8428 89.927C58.8564 83.5883 64.5221 71.7648 68.1987 64.1101C73.4329 64.0759 78.6097 65.2011 83.3573 67.4051L62.8746 90.9316Z" fill="black"/>
<path d="M115.111 104.935C115.443 105.327 121.139 125.82 105.066 140.868C90.3893 154.67 66.7925 156.438 66.5614 154.238C66.3203 151.556 78.3347 146.292 86.5419 133.735C89.4551 129.285 88.6113 121.289 88.6113 121.289L115.111 104.935Z" fill="#D880A6"/>
<path opacity="0.1" d="M115.865 120.516C107.647 122.906 95.0403 126.543 88.3701 128.552C88.737 126.156 88.8179 123.724 88.6112 121.309L115.111 104.955C116.519 110.021 116.776 115.337 115.865 120.516V120.516Z" fill="black"/>
<path d="M70.2078 129.978L51.3726 107.768C51.3726 107.768 61.197 81.4284 84.5226 63.7283C96.1855 54.9084 109.857 48.2984 122.103 43.9286C138.999 37.9014 153.143 36.1133 155.333 38.695C157.523 41.2766 153.475 54.9385 144.745 70.6295C138.447 81.991 129.687 94.3971 119.029 104.443C97.8028 124.604 70.2078 129.978 70.2078 129.978Z" fill="#C7C7C7"/>
<path d="M116.015 94.9498C113.487 97.1062 110.375 98.4641 107.075 98.8517C103.774 99.2393 100.433 98.6391 97.4738 97.1271C94.5146 95.6151 92.0704 93.2593 90.4505 90.3577C88.8306 87.4561 88.1078 84.1392 88.3737 80.8267C88.6395 77.5142 89.882 74.355 91.9439 71.7489C94.0058 69.1428 96.7945 67.2069 99.957 66.1862C103.12 65.1655 106.514 65.1058 109.71 66.0148C112.907 66.9238 115.762 68.7606 117.914 71.2927C120.793 74.6842 122.21 79.079 121.854 83.5136C121.498 87.9482 119.398 92.0608 116.015 94.9498V94.9498Z" fill="#A6A6A6"/>
<path d="M116.879 93.3926C114.346 95.5418 111.232 96.8913 107.931 97.2704C104.63 97.6496 101.292 97.0414 98.3366 95.5228C95.3817 94.0042 92.9435 91.6433 91.3305 88.7389C89.7175 85.8344 89.002 82.5169 89.2747 79.2058C89.5473 75.8947 90.7958 72.7388 92.8622 70.1373C94.9286 67.5359 97.7201 65.6056 100.884 64.5908C104.047 63.576 107.441 63.5222 110.635 64.4362C113.829 65.3501 116.68 67.1908 118.828 69.7255C120.255 71.4071 121.336 73.3534 122.01 75.4531C122.685 77.5529 122.939 79.7649 122.758 81.9628C122.577 84.1608 121.964 86.3015 120.956 88.2626C119.947 90.2238 118.562 91.967 116.879 93.3926V93.3926Z" fill="#D880A6"/>
<path d="M113.564 89.4549C111.808 90.9472 109.648 91.8852 107.359 92.1501C105.069 92.4151 102.753 91.9952 100.702 90.9435C98.6512 89.8919 96.9583 88.2556 95.8374 86.2418C94.7165 84.228 94.218 81.927 94.4048 79.6299C94.5917 77.3327 95.4556 75.1425 96.8872 73.3363C98.3188 71.5302 100.254 70.1891 102.448 69.4827C104.642 68.7763 106.996 68.7363 109.212 69.3678C111.429 69.9994 113.408 71.274 114.9 73.0306C116.901 75.3858 117.884 78.4393 117.634 81.5194C117.383 84.5995 115.919 87.454 113.564 89.4549V89.4549Z" fill="white"/>
<path d="M113.564 89.4549C112.467 90.3927 111.202 91.1152 109.837 91.5845L100.475 90.8211C99.206 90.1338 98.0752 89.2177 97.1398 88.1188C96.4615 87.3104 95.894 86.4151 95.4521 85.4568L115.664 87.1143C115.071 87.9846 114.365 88.7717 113.564 89.4549Z" fill="#EBEBEB"/>
<path d="M115.915 74.4169L97.2603 72.9C97.6349 72.4685 98.0411 72.0656 98.4757 71.6946C100.831 69.6939 103.885 68.7107 106.965 68.9612C110.045 69.2118 112.899 70.6756 114.9 73.0306C115.268 73.4702 115.607 73.9333 115.915 74.4169V74.4169Z" fill="#EBEBEB"/>
<path d="M116.919 84.6931L94.6082 82.8749C94.5309 82.5443 94.4772 82.2086 94.4475 81.8704L117.241 83.7288C117.15 84.0301 117.02 84.3516 116.919 84.6931Z" fill="#EBEBEB"/>
<path d="M144.765 70.6295L122.123 43.9286C139.019 37.9014 153.163 36.1133 155.353 38.695C157.543 41.2766 153.495 54.9385 144.765 70.6295Z" fill="#D880A6"/>
<path d="M128.783 46.1789C128.581 46.3416 128.324 46.42 128.066 46.3975C127.807 46.375 127.567 46.2535 127.397 46.0583C127.291 45.8561 127.258 45.6239 127.302 45.4C127.346 45.1762 127.464 44.9739 127.639 44.8266C127.813 44.6793 128.032 44.5957 128.26 44.5895C128.488 44.5833 128.712 44.6549 128.893 44.7926C129.057 44.9933 129.137 45.2496 129.117 45.508C129.096 45.7663 128.977 46.0067 128.783 46.1789Z" fill="white"/>
<path d="M132.811 50.9305C132.611 51.0944 132.354 51.1745 132.096 51.1539C131.838 51.1333 131.597 51.0136 131.425 50.82C131.292 50.6701 131.206 50.4839 131.18 50.2852C131.153 50.0865 131.187 49.8844 131.276 49.7049C131.366 49.5254 131.507 49.3768 131.681 49.2781C131.856 49.1794 132.056 49.1352 132.256 49.1511C132.455 49.1671 132.646 49.2424 132.803 49.3675C132.959 49.4926 133.075 49.6617 133.135 49.853C133.194 50.0444 133.195 50.2492 133.138 50.4412C133.08 50.6332 132.966 50.8036 132.811 50.9305V50.9305Z" fill="white"/>
<path d="M136.84 55.6819C136.639 55.8459 136.383 55.9259 136.124 55.9053C135.866 55.8847 135.625 55.7651 135.453 55.5714C135.32 55.4216 135.235 55.2354 135.208 55.0367C135.182 54.8379 135.215 54.6358 135.305 54.4564C135.394 54.2769 135.535 54.1283 135.709 54.0296C135.884 53.9309 136.084 53.8867 136.284 53.9026C136.484 53.9185 136.674 53.9939 136.831 54.119C136.987 54.244 137.103 54.4131 137.163 54.6045C137.223 54.7958 137.224 55.0007 137.166 55.1927C137.109 55.3847 136.995 55.5551 136.84 55.6819V55.6819Z" fill="white"/>
<path d="M140.868 60.4334C140.667 60.5973 140.411 60.6774 140.152 60.6568C139.894 60.6362 139.654 60.5166 139.481 60.3229C139.348 60.1731 139.263 59.9868 139.236 59.7881C139.21 59.5894 139.243 59.3873 139.333 59.2078C139.422 59.0284 139.563 58.8797 139.738 58.781C139.912 58.6824 140.112 58.6381 140.312 58.6541C140.512 58.67 140.702 58.7453 140.859 58.8704C141.016 58.9955 141.131 59.1646 141.191 59.356C141.251 59.5473 141.252 59.7522 141.194 59.9442C141.137 60.1362 141.023 60.3066 140.868 60.4334Z" fill="white"/>
<path d="M144.896 65.1849C144.747 65.3194 144.56 65.406 144.361 65.4335C144.162 65.461 143.959 65.428 143.779 65.339C143.599 65.2499 143.449 65.1088 143.35 64.9339C143.251 64.759 143.206 64.5584 143.222 64.358C143.239 64.1576 143.314 63.9666 143.44 63.8098C143.566 63.6529 143.736 63.5375 143.928 63.4783C144.12 63.4192 144.326 63.419 144.518 63.4779C144.71 63.5368 144.88 63.652 145.006 63.8087C145.167 64.0087 145.246 64.2628 145.225 64.5188C145.205 64.7747 145.087 65.0131 144.896 65.1849Z" fill="white"/>
<path d="M56.8073 107.246C56.6574 107.379 56.4712 107.464 56.2725 107.491C56.0738 107.517 55.8717 107.483 55.6922 107.394C55.5127 107.305 55.3641 107.164 55.2654 106.989C55.1667 106.815 55.1225 106.615 55.1384 106.415C55.1544 106.215 55.2297 106.025 55.3548 105.868C55.4799 105.711 55.649 105.596 55.8403 105.536C56.0317 105.476 56.2365 105.475 56.4286 105.533C56.6206 105.59 56.7909 105.704 56.9178 105.859C57.0817 106.06 57.1618 106.316 57.1412 106.575C57.1206 106.833 57.0009 107.073 56.8073 107.246V107.246Z" fill="#A6A6A6"/>
<path d="M60.8353 111.997C60.6855 112.13 60.4993 112.216 60.3006 112.242C60.1018 112.268 59.8998 112.235 59.7203 112.146C59.5408 112.056 59.3922 111.915 59.2935 111.741C59.1948 111.566 59.1506 111.366 59.1665 111.166C59.1824 110.967 59.2578 110.776 59.3829 110.619C59.508 110.463 59.6771 110.347 59.8684 110.287C60.0598 110.228 60.2646 110.226 60.4566 110.284C60.6486 110.342 60.819 110.455 60.9458 110.611C61.1098 110.811 61.1899 111.068 61.1693 111.326C61.1487 111.584 61.029 111.825 60.8353 111.997V111.997Z" fill="#A6A6A6"/>
<path d="M64.8637 116.748C64.7138 116.882 64.5276 116.967 64.3289 116.993C64.1302 117.02 63.9281 116.986 63.7486 116.897C63.5691 116.808 63.4205 116.667 63.3218 116.492C63.2231 116.318 63.1789 116.118 63.1948 115.918C63.2108 115.718 63.2861 115.528 63.4112 115.371C63.5363 115.214 63.7054 115.099 63.8967 115.039C64.0881 114.979 64.2929 114.978 64.4849 115.036C64.677 115.093 64.8473 115.207 64.9742 115.362C65.1381 115.563 65.2182 115.819 65.1976 116.078C65.177 116.336 65.0573 116.576 64.8637 116.748V116.748Z" fill="#A6A6A6"/>
<path d="M68.892 121.52C68.7422 121.653 68.5559 121.738 68.3572 121.765C68.1585 121.791 67.9564 121.758 67.7769 121.669C67.5975 121.579 67.4488 121.438 67.3501 121.264C67.2514 121.089 67.2072 120.889 67.2231 120.689C67.2391 120.49 67.3144 120.299 67.4395 120.142C67.5646 119.986 67.7337 119.87 67.925 119.81C68.1164 119.751 68.3213 119.749 68.5133 119.807C68.7053 119.865 68.8756 119.978 69.0025 120.134C69.1664 120.334 69.2465 120.591 69.2259 120.849C69.2053 121.107 69.0857 121.348 68.892 121.52V121.52Z" fill="#A6A6A6"/>
<path d="M72.9201 126.251C72.7702 126.385 72.584 126.47 72.3853 126.496C72.1866 126.523 71.9845 126.489 71.805 126.4C71.6255 126.311 71.4769 126.17 71.3782 125.995C71.2795 125.821 71.2353 125.621 71.2512 125.421C71.2672 125.221 71.3425 125.03 71.4676 124.874C71.5927 124.717 71.7618 124.602 71.9531 124.542C72.1445 124.482 72.3493 124.481 72.5413 124.538C72.7334 124.596 72.9037 124.71 73.0306 124.865C73.1945 125.066 73.2746 125.322 73.254 125.58C73.2334 125.839 73.1137 126.079 72.9201 126.251V126.251Z" fill="#A6A6A6"/>
<path opacity="0.2" d="M154.289 38.032C141.229 38.9663 118.677 46.8721 94.8996 65.5064C77.3401 79.329 64.5321 103.368 58.5551 116.236L51.3726 107.768C51.3726 107.768 61.187 81.4185 84.5226 63.7284C96.1754 54.8984 109.857 48.2985 122.103 43.9287C137.271 38.4941 150.17 36.5252 154.289 38.032Z" fill="white"/>
<path d="M61.7898 133.595L46.4805 115.533L52.4274 109.023L69.1933 128.783L61.7898 133.595Z" fill="#D880A6"/>
<path opacity="0.1" d="M69.1831 128.783L65.5868 131.124L50.157 111.515L52.4273 109.023L69.1831 128.783Z" fill="black"/>
<path opacity="0.6" d="M58.4245 129.556C51.2406 134.31 45.1268 140.51 40.4732 147.759C35.7863 155.096 33.1373 163.55 32.7985 172.25C32.6817 176.658 33.2199 181.059 34.3957 185.309C35.5983 189.641 37.4221 193.776 39.8102 197.584C42.2535 201.471 45.1875 205.026 48.5397 208.162C51.9482 211.341 55.6707 214.165 59.65 216.591C55.3607 214.617 51.2844 212.211 47.485 209.408C43.6297 206.555 40.1558 203.219 37.1482 199.483C30.932 191.748 27.1464 182.345 26.2689 172.461C25.4871 162.34 27.4186 152.193 31.8642 143.068C36.3381 133.893 42.6781 125.753 50.4785 119.169L58.4245 129.556Z" fill="#D880A6"/>
<path d="M46.2794 140.456L43.4868 140.968L42.864 143.921L42.2411 140.968L39.4485 140.456L42.221 139.773L42.864 136.99L43.4968 139.773L46.2794 140.456Z" fill="white"/>
<path d="M35.9931 195.606L34.436 195.897L34.0844 197.544L33.7429 195.897L32.1758 195.606L33.7328 195.224L34.0844 193.667L34.4461 195.224L35.9931 195.606Z" fill="white"/>
<path d="M35.1591 181.321L33.602 181.602L33.2504 183.25L32.8988 181.602L31.3418 181.321L32.8888 180.939L33.2504 179.382L33.602 180.939L35.1591 181.321Z" fill="white"/>
<path d="M44.2101 131.274L42.6531 131.566L42.3015 133.213L41.9599 131.566L40.3928 131.274L41.9499 130.893L42.3015 129.335L42.6631 130.893L44.2101 131.274Z" fill="white"/>
<path d="M39.6696 199.162C39.5497 199.162 39.4347 199.209 39.3499 199.294C39.2652 199.379 39.2175 199.494 39.2175 199.614C39.2175 199.734 39.2652 199.849 39.3499 199.933C39.4347 200.018 39.5497 200.066 39.6696 200.066C39.7895 200.066 39.9044 200.018 39.9892 199.933C40.074 199.849 40.1216 199.734 40.1216 199.614C40.1216 199.494 40.074 199.379 39.9892 199.294C39.9044 199.209 39.7895 199.162 39.6696 199.162V199.162Z" fill="white"/>
<path d="M52.608 129.074C52.4882 129.074 52.3732 129.122 52.2884 129.207C52.2036 129.291 52.156 129.406 52.156 129.526C52.156 129.646 52.2036 129.761 52.2884 129.846C52.3732 129.931 52.4882 129.978 52.608 129.978C52.7279 129.978 52.8429 129.931 52.9277 129.846C53.0125 129.761 53.0601 129.646 53.0601 129.526C53.0601 129.406 53.0125 129.291 52.9277 129.207C52.8429 129.122 52.7279 129.074 52.608 129.074V129.074Z" fill="white"/>
<path d="M28.2379 169.437C28.118 169.437 28.0031 169.485 27.9183 169.569C27.8335 169.654 27.7859 169.769 27.7859 169.889C27.7859 170.009 27.8335 170.124 27.9183 170.209C28.0031 170.293 28.118 170.341 28.2379 170.341C28.3578 170.341 28.4728 170.293 28.5576 170.209C28.6424 170.124 28.69 170.009 28.69 169.889C28.69 169.769 28.6424 169.654 28.5576 169.569C28.4728 169.485 28.3578 169.437 28.2379 169.437V169.437Z" fill="white"/>
<path d="M38.8859 196.861C38.8007 196.861 38.7189 196.895 38.6586 196.955C38.5983 197.016 38.5645 197.097 38.5645 197.183C38.5645 197.268 38.5983 197.35 38.6586 197.41C38.7189 197.47 38.8007 197.504 38.8859 197.504C38.9712 197.504 39.0529 197.47 39.1132 197.41C39.1735 197.35 39.2074 197.268 39.2074 197.183C39.2074 197.097 39.1735 197.016 39.1132 196.955C39.0529 196.895 38.9712 196.861 38.8859 196.861V196.861Z" fill="white"/>
<path d="M28.0771 153.666C28.0028 153.679 27.9356 153.718 27.8872 153.776C27.8388 153.833 27.8123 153.907 27.8123 153.982C27.8123 154.057 27.8388 154.13 27.8872 154.188C27.9356 154.246 28.0028 154.285 28.0771 154.298C28.1514 154.285 28.2186 154.246 28.267 154.188C28.3154 154.13 28.342 154.057 28.342 153.982C28.342 153.907 28.3154 153.833 28.267 153.776C28.2186 153.718 28.1514 153.679 28.0771 153.666Z" fill="white"/>
<path d="M31.3419 186.374C31.1276 186.397 30.9293 186.498 30.7853 186.659C30.6412 186.819 30.5615 187.027 30.5615 187.242C30.5615 187.458 30.6412 187.666 30.7853 187.826C30.9293 187.987 31.1276 188.088 31.3419 188.111C31.5563 188.088 31.7545 187.987 31.8986 187.826C32.0426 187.666 32.1223 187.458 32.1223 187.242C32.1223 187.027 32.0426 186.819 31.8986 186.659C31.7545 186.498 31.5563 186.397 31.3419 186.374V186.374Z" fill="white"/>
<path d="M32.1757 150.652C31.9613 150.675 31.7631 150.776 31.619 150.937C31.4749 151.097 31.3953 151.305 31.3953 151.521C31.3953 151.736 31.4749 151.944 31.619 152.105C31.7631 152.265 31.9613 152.367 32.1757 152.39C32.39 152.367 32.5883 152.265 32.7323 152.105C32.8764 151.944 32.9561 151.736 32.9561 151.521C32.9561 151.305 32.8764 151.097 32.7323 150.937C32.5883 150.776 32.39 150.675 32.1757 150.652Z" fill="white"/>
<path d="M302.61 320.42C302.61 320.42 307.954 348.467 292.715 361.928C277.476 375.389 261.193 378.945 226.978 371.853C192.763 364.761 170.261 355.78 156.489 368.317C156.489 368.317 153.776 372.798 161.813 381.778C169.849 390.759 179.252 411.412 159.804 426.44C136.88 444.161 102.022 425.255 95.8741 391.472C89.7263 357.689 115.071 316.231 166.554 318.522C218.037 320.812 233.387 331.109 243.071 331.4C252.754 331.691 254.231 323.253 254.231 323.253L302.61 320.42Z" fill="#37474F"/>
<path d="M159.1 378.544C141.119 376.745 123.941 381.065 112.399 395.621C108.762 400.191 105.661 405.162 103.157 410.438C104.981 404.784 107.694 399.457 111.193 394.657C122.243 379.217 141.189 374.234 159.13 378.503L159.1 378.544Z" fill="#263238"/>
<path d="M164.907 363.395C158.819 346.619 144.444 337.618 126.784 338.362C121.254 338.592 115.756 339.329 110.36 340.562C115.609 338.561 121.108 337.293 126.704 336.795C144.725 335.037 161.039 345.313 164.876 363.395H164.907Z" fill="#263238"/>
<path d="M156.488 368.267C140.627 357.498 122.012 358.352 105.769 367.705C103.76 369 100.636 370.778 98.7369 372.265C97.6219 373.099 96.4867 373.923 95.3416 374.726C103.227 366.69 113.423 360.442 124.745 358.855C135.955 357.287 148.1 360.552 156.438 368.267H156.488Z" fill="#263238"/>
<path d="M173.767 361.999C175.535 347.764 172.622 331.752 160.708 322.57C159.061 321.265 157.337 320.061 155.544 318.964C157.546 319.702 159.468 320.641 161.28 321.767C174.59 329.893 178.267 347.885 173.757 361.999H173.767Z" fill="#263238"/>
<path d="M184.797 362.762C192.451 350.878 194.681 337.568 187.7 324.8C186.916 323.072 185.691 321.395 184.797 319.727C186.165 321.151 187.421 322.68 188.554 324.298C197.223 336.403 194.933 352.305 184.797 362.762Z" fill="#263238"/>
<path d="M198.7 365.414C204.673 360.293 208.919 353.452 210.855 345.826C212.864 338.171 211.287 330.225 207.711 323.203C210.274 326.406 212.066 330.156 212.949 334.162C213.832 338.168 213.782 342.324 212.804 346.308C210.734 354.083 205.872 361.567 198.74 365.394L198.7 365.414Z" fill="#263238"/>
<path d="M216.159 369.442C226.496 361.697 232.804 350.135 231.789 337.086C231.488 334.165 231.019 331.263 230.383 328.396C231.197 330.207 231.868 332.078 232.392 333.992C236.41 348.055 229.218 363.204 216.149 369.442H216.159Z" fill="#263238"/>
<path d="M238.791 373.933C241.634 371.452 242.809 367.634 243.995 364.169C247.129 353.51 247.852 341.667 243.09 331.35C250.072 340.813 249.489 354.113 245.471 364.691C243.985 368.137 242.227 372.064 238.791 373.933V373.933Z" fill="#263238"/>
<path d="M263.192 375.048C265.542 361.517 262.951 344.911 253.829 334.313C252.461 332.751 250.977 331.293 249.389 329.954C251.238 330.976 252.963 332.206 254.532 333.62C265.08 343.214 268.224 362.009 263.192 375.048Z" fill="#263238"/>
<path d="M253.196 326.006C271.459 330.657 286.577 347.784 286.005 367.082C283.283 347.905 270.535 333.771 253.196 326.006V326.006Z" fill="#263238"/>
<path d="M254.251 323.203C272.936 320.35 293.76 329.954 301.334 347.764C290.877 331.44 273.277 323.544 254.251 323.203Z" fill="#263238"/>
<path opacity="0.1" d="M302.62 342.42C284.478 348.578 254.964 358.242 249.892 357.84C244.437 357.398 174.55 347.081 171.085 345.082C168.272 343.425 148.553 330.014 137.372 322.429C146.763 319.266 156.67 317.923 166.564 318.472C218.047 320.772 233.407 331.059 243.091 331.35C252.775 331.641 254.251 323.213 254.251 323.213L302.61 320.42C303.802 327.705 303.806 335.134 302.62 342.42Z" fill="black"/>
<path d="M153.957 190.522C150.768 190.341 147.572 190.341 144.384 190.522C142.287 191.038 140.263 191.811 138.356 192.823C138.356 192.823 128.783 186.263 120.104 188.222C111.424 190.181 98.305 207.529 96.8886 221.714C95.4722 235.898 96.3562 270.444 104.332 285C112.308 299.556 166.886 339.055 174.862 342.601C182.838 346.147 231.578 352.697 250.353 352.345C269.128 351.993 321.224 319.466 334.525 306.447C343.033 298.119 347.282 257.003 347.463 248.676C347.644 240.348 335.228 213.416 335.228 213.416L153.957 190.522Z" fill="#C7C7C7"/>
<path opacity="0.1" d="M347.473 248.646C347.292 256.983 343.043 298.089 334.535 306.407C321.234 319.466 269.139 351.963 250.364 352.315C231.589 352.666 182.838 346.117 174.872 342.561C166.906 339.005 112.309 299.506 104.332 284.98C99.6613 276.461 97.4312 261.072 96.6577 246.928C97.9134 255.657 108.361 277.396 111.726 282.087C115.091 286.778 169.035 326.488 179.905 328.949C190.774 331.41 243.724 335.82 253.869 335.75C264.015 335.68 323.917 304.267 329.211 299.174C334.505 294.081 345.575 265.632 347.473 248.646Z" fill="black"/>
<path d="M156.378 187.74C156.378 187.74 141.018 163.41 141.732 152.299C142.445 141.189 174.57 104.573 187.097 94.8893C199.624 85.2055 228.916 80.0019 238.841 80.0019C248.766 80.0019 277.014 90.8912 277.014 90.8912C277.014 90.8912 280.269 83.2868 283.222 66.782C284.598 59.047 336.152 86.6219 333.781 132.228C333.781 132.228 345.836 176.579 346.539 182.516C347.242 188.453 330.717 209.729 330.717 209.729C319.302 214.267 307.492 217.741 295.437 220.106C274.221 224.355 249.962 227.208 218.951 220.357C173.505 210.302 156.378 187.74 156.378 187.74Z" fill="#D880A6"/>
<path d="M169.648 111.917C169.849 101.268 160.989 75.1601 158.739 71.7346C156.489 68.3091 188.674 61.1969 220.137 82.413L169.648 111.917Z" fill="#D880A6"/>
<path opacity="0.1" d="M175.695 108.38C175.695 108.38 173.536 86.7625 165.74 76.5764C164.434 74.8687 188.071 75.6422 208.363 89.8465C208.363 89.8465 200.407 94.0756 194.862 97.1797C194.862 97.1797 190.703 95.1706 187.489 94.9898C184.274 94.809 179.161 96.5468 179.161 96.5468C179.161 96.5468 185.188 97.7724 186.786 98.797C187.799 99.5036 188.668 100.397 189.347 101.429C188.108 100.767 186.797 100.252 185.439 99.892C184.309 99.869 183.183 100.046 182.114 100.414C182.952 100.468 183.77 100.69 184.519 101.068C185.269 101.447 185.934 101.972 186.474 102.614C186.474 102.614 178.056 107.004 175.695 108.38Z" fill="black"/>
<path opacity="0.1" d="M281.193 93.7241C281.193 93.7241 285.141 80.5444 286.216 71.7445C286.477 69.6149 314.835 86.0995 313.68 115.874C313.68 115.874 302.911 107.014 297.417 103.82C297.417 103.82 297.688 97.8829 296.181 95.0501C294.674 92.2172 290.596 88.6712 290.596 88.6712C290.596 88.6712 292.605 94.5176 292.545 96.3761C292.445 97.6124 292.104 98.8172 291.54 99.9221C291.481 98.5214 291.258 97.1325 290.877 95.7834C290.341 94.8046 289.637 93.9275 288.798 93.1916C289.178 93.9397 289.403 94.7572 289.458 95.5947C289.514 96.4322 289.398 97.2722 289.119 98.0637C286.815 96.0715 284.113 94.5922 281.193 93.7241V93.7241Z" fill="black"/>
<path opacity="0.1" d="M330.758 209.719C319.342 214.258 307.532 217.735 295.478 220.106C274.262 224.346 250.012 227.198 218.991 220.347C174.922 210.603 157.473 189.146 156.428 187.81C160.246 191.828 188.232 208.223 195.154 210.513C202.075 212.803 241.051 218.66 257.556 216.54C274.061 214.421 318.171 203.612 321.184 201.311C324.198 199.011 331.441 180.788 332.696 175.766C333.952 170.743 327.975 130.722 327.975 130.722C327.975 130.722 334.746 93.7141 294.654 68.5803C310.084 76.6167 335.479 99.9021 333.831 132.218C333.831 132.218 345.886 176.569 346.589 182.516C347.292 188.463 330.758 209.719 330.758 209.719Z" fill="black"/>
<path d="M185.329 128.813C176.971 126.804 170.713 134.057 168.312 143.811C166.363 151.707 169.317 160.999 177.353 162.968C185.389 164.937 192.672 156.689 194.501 149.276C196.329 141.862 194.43 131.043 185.329 128.813Z" fill="#263238"/>
<path d="M185.651 131.053C177.795 129.114 171.908 135.986 169.658 145.117C167.83 152.54 170.663 161.26 178.167 163.118C185.671 164.977 192.562 157.222 194.239 150.25C195.917 143.279 194.189 133.153 185.651 131.053Z" fill="white"/>
<path d="M187.007 134.88C180.859 133.364 176.248 138.738 174.48 145.93C173.053 151.747 175.243 158.578 181.15 159.994C187.057 161.411 192.421 155.373 193.757 149.949C195.093 144.524 193.687 136.518 187.007 134.88Z" fill="#263238"/>
<path d="M248.967 141.782C260.148 141.219 266.205 149.527 266.697 159.552C267.099 167.679 260.871 176.308 250.142 176.84C239.414 177.373 232.282 167.95 231.9 160.326C231.518 152.701 236.812 142.384 248.967 141.782Z" fill="#263238"/>
<path d="M247.993 143.932C258.5 143.409 264.196 151.214 264.658 160.647C265.04 168.282 259.184 176.388 249.098 176.891C239.012 177.393 232.312 168.533 231.95 161.37C231.589 154.208 236.561 144.504 247.993 143.932Z" fill="white"/>
<path d="M248.465 145.85C257.054 145.428 261.695 151.797 262.076 159.492C262.126 161.2 261.835 162.902 261.221 164.497C260.607 166.091 259.681 167.548 258.499 168.782C257.316 170.016 255.9 171.003 254.333 171.684C252.765 172.366 251.078 172.729 249.369 172.752C241.132 173.164 235.667 165.941 235.375 160.085C235.285 158.287 235.554 156.489 236.165 154.796C236.777 153.104 237.719 151.549 238.937 150.225C240.156 148.9 241.625 147.83 243.261 147.079C244.897 146.328 246.666 145.911 248.465 145.85V145.85Z" fill="#263238"/>
<path d="M213.205 156.348C212.934 157.352 206.053 160.446 205.32 160.366C204.586 160.285 198.659 155.484 198.629 154.399C198.599 153.314 204.576 153.736 206.093 153.947C207.61 154.158 213.456 155.323 213.205 156.348Z" fill="#263238"/>
<path d="M192.883 161.27C193.727 162.907 194.581 164.525 195.565 166.042C196.03 166.771 196.576 167.445 197.193 168.051C197.42 168.286 197.709 168.453 198.027 168.533C198.338 168.52 198.64 168.423 198.901 168.252C199.568 167.79 200.147 167.212 200.608 166.544C201.123 165.834 201.586 165.089 201.995 164.314C202.854 162.749 203.606 161.128 204.245 159.462L205.4 156.448L206.063 159.663C206.499 161.797 207.114 163.89 207.901 165.921C208.278 166.917 208.752 167.872 209.318 168.774C209.78 169.623 210.478 170.321 211.327 170.783L211.628 170.884H211.93C212.167 170.904 212.405 170.904 212.643 170.884C213.143 170.823 213.633 170.694 214.099 170.502C215.09 170.081 216.021 169.534 216.872 168.874C218.629 167.506 220.242 165.961 221.684 164.264C220.515 166.211 219.086 167.989 217.434 169.548C216.582 170.343 215.626 171.018 214.592 171.557C213.456 172.206 212.114 172.393 210.845 172.079C209.65 171.597 208.635 170.754 207.941 169.668C207.275 168.695 206.706 167.659 206.244 166.574C205.348 164.451 204.655 162.248 204.174 159.994L205.993 160.145C205.303 161.898 204.477 163.594 203.521 165.218C203.025 166.037 202.475 166.823 201.874 167.569C201.245 168.379 200.45 169.047 199.543 169.527C199.004 169.812 198.39 169.921 197.785 169.839C197.206 169.666 196.697 169.314 196.329 168.834C195.71 168.094 195.19 167.277 194.782 166.403C193.994 164.754 193.359 163.035 192.883 161.27Z" fill="#263238"/>
<path d="M164.485 148.783C159.854 147.92 155.203 147.216 150.542 146.614C145.88 146.011 141.199 145.478 136.478 145.157C134.137 144.936 131.797 144.805 129.446 144.655C127.095 144.504 124.755 144.434 122.414 144.373C117.713 144.193 113.012 144.253 108.29 144.273C110.641 144.082 112.992 143.881 115.322 143.781C117.653 143.68 120.033 143.63 122.354 143.64C127.075 143.64 131.787 143.871 136.498 144.213C141.209 144.554 145.891 145.147 150.562 145.9C152.892 146.272 155.213 146.694 157.523 147.146C159.834 147.598 162.224 148.141 164.485 148.783Z" fill="#263238"/>
<path d="M162.285 151.295C160.165 151.164 158.046 151.034 155.926 150.953C153.806 150.873 151.687 150.762 149.567 150.702C145.338 150.571 141.099 150.471 136.86 150.521C134.74 150.521 132.62 150.521 130.501 150.521L124.142 150.722L120.968 150.843L117.793 151.034C115.674 151.104 113.564 151.345 111.435 151.445C115.634 150.782 119.863 150.27 124.102 149.999C128.341 149.728 132.6 149.567 136.86 149.537C141.119 149.507 145.368 149.667 149.607 149.949C153.847 150.23 158.086 150.652 162.285 151.295Z" fill="#263238"/>
<path d="M163.229 154.067C161.461 154.178 159.693 154.278 157.925 154.429C156.157 154.58 154.399 154.67 152.641 154.841C149.125 155.162 145.609 155.464 142.093 155.845C138.577 156.227 135.062 156.649 131.576 157.101C128.09 157.553 124.544 158.106 121.058 158.538C122.773 158.116 124.5 157.721 126.242 157.352C127.979 157.021 129.717 156.679 131.465 156.348C134.951 155.725 138.497 155.273 141.993 154.871C145.489 154.469 149.025 154.208 152.591 154.067C156.157 153.927 159.663 153.886 163.229 154.067Z" fill="#263238"/>
<path d="M270.515 172.913C273.438 172.913 276.361 173.144 279.274 173.345C282.187 173.545 285.101 173.887 288.004 174.239C293.82 174.942 299.596 175.896 305.342 177.011C311.088 178.126 316.794 179.482 322.42 181.09C325.242 181.863 328.035 182.737 330.818 183.621C332.214 184.053 333.59 184.555 334.966 185.048L339.095 186.534C333.49 184.877 327.904 183.179 322.229 181.793C319.406 181.059 316.563 180.396 313.73 179.723C310.897 179.05 308.024 178.468 305.162 177.935C299.446 176.75 293.69 175.806 287.913 174.922C282.137 174.038 276.341 173.405 270.515 172.913Z" fill="#263238"/>
<path d="M272.283 176.65C277.516 177.353 282.7 178.347 287.853 179.462C293.007 180.577 298.11 181.903 303.203 183.31C308.296 184.716 313.308 186.323 318.271 188.142C323.233 189.96 328.126 191.919 332.927 194.079C330.436 193.215 328.005 192.21 325.504 191.386L321.777 190.07L318.03 188.825C315.539 187.991 313.007 187.218 310.516 186.414C308.025 185.61 305.493 184.907 302.942 184.214C297.919 182.737 292.796 181.421 287.692 180.196C285.134 179.566 282.573 178.96 280.008 178.377C277.446 177.775 274.864 177.192 272.283 176.65Z" fill="#263238"/>
<path d="M270.253 179.663C274.533 180.668 278.732 181.994 282.901 183.39C287.07 184.786 291.178 186.353 295.267 187.971C299.355 189.588 303.383 191.366 307.321 193.265C309.33 194.199 311.279 195.193 313.248 196.168C315.217 197.142 317.136 198.177 319.054 199.282C315.036 197.504 311.018 195.655 307 193.928C302.982 192.2 298.963 190.472 294.875 188.845C290.786 187.217 286.718 185.62 282.619 184.073C280.61 183.29 278.501 182.556 276.431 181.823C274.362 181.09 272.333 180.356 270.253 179.663Z" fill="#263238"/>
<path d="M178.056 117.652C181.391 113.323 188.102 112.017 192.913 114.367C187.834 114.777 182.835 115.882 178.056 117.652V117.652Z" fill="#263238"/>
<path d="M269.711 133.504C265.742 130.265 261.348 127.585 256.652 125.538C262.006 124.905 267.893 128.311 269.631 133.484L269.711 133.504Z" fill="#263238"/>
<path d="M210.684 204.898C208.508 202.058 206.812 198.882 205.661 195.495C205.637 195.437 205.596 195.387 205.543 195.352C205.49 195.317 205.428 195.298 205.365 195.298C205.302 195.298 205.24 195.317 205.187 195.352C205.134 195.387 205.093 195.437 205.069 195.495C204.817 196.238 204.114 198.318 204.064 198.639C203.984 198.438 203.913 198.237 203.843 198.037C203.609 197.367 203.408 196.674 203.24 195.957C202.896 194.552 202.671 193.121 202.567 191.678C202.458 190.232 202.475 188.78 202.617 187.338C202.758 185.881 203.08 184.455 203.341 183.008C203.341 182.948 203.23 182.918 203.21 183.008C202.587 184.405 202.151 185.878 201.914 187.388C201.659 188.831 201.538 190.293 201.553 191.758C201.564 193.233 201.722 194.704 202.025 196.148C202.186 196.901 202.376 197.645 202.607 198.378C202.792 199.094 203.098 199.774 203.512 200.387C203.813 200.779 204.436 200.387 204.516 200.026C204.516 199.784 205.33 196.891 205.46 196.469C206.461 199.665 208.179 202.589 210.483 205.018C210.563 205.169 210.774 205.018 210.684 204.898Z" fill="#263238"/>
<path d="M339.085 216.952C309.622 230.162 253.196 239.283 210.704 227.761C168.211 216.239 147.759 192.32 147.046 189.498C146.332 186.675 148.814 183.47 151.898 182.536C153.324 184.344 154.821 186.092 156.368 187.77C170.19 202.778 197.504 219.915 241.282 223.934C284.317 227.952 325.845 211.879 336.303 207.529C340.381 207.178 344.63 214.441 339.085 216.952Z" fill="#263238"/>
<path d="M235.747 325.222C247.268 329.924 259.954 330.976 272.092 328.236C260.71 333.901 246.114 332.475 235.747 325.222Z" fill="#263238"/>
<path d="M263.171 263.995C266.014 256.963 270.856 249.851 278.079 246.626C287.733 243.613 300.832 248.053 309.903 251.649C315.617 253.959 321.03 256.95 326.026 260.56C315.341 254.733 303.821 250.592 291.871 248.284C287.2 247.561 282.167 246.807 277.737 248.656C271.328 251.88 266.687 257.807 263.202 263.985L263.171 263.995Z" fill="#263238"/>
<path d="M309.521 252.302C313.973 251.331 318.626 252.047 322.58 254.311C318.271 253.385 313.91 252.714 309.521 252.302V252.302Z" fill="#263238"/>
<path d="M272.604 259.143C283.263 266.346 287.763 270.032 287.03 282.077C286.387 292.544 257.787 325.915 239.404 331.692C237.827 332.229 236.159 332.444 234.497 332.325C232.835 332.206 231.214 331.755 229.73 330.998L272.604 259.143Z" fill="#C7C7C7"/>
<path d="M256.652 256.34C244.055 259.706 218.067 306.919 219.675 318.341C220.95 327.442 227.329 332.405 235.315 331.159C244.828 329.642 283.021 286.748 283.051 276.562C283.092 265.221 270.203 252.724 256.652 256.34Z" fill="#455A64"/>
<path d="M283.062 276.522L254.492 257.275C255.175 256.869 255.908 256.555 256.672 256.34C256.963 256.255 257.258 256.184 257.556 256.129C257.798 256.069 258.043 256.022 258.289 255.989L282.489 272.262C282.559 272.524 282.62 272.775 282.67 273.046C282.934 274.186 283.065 275.352 283.062 276.522V276.522Z" fill="#263238"/>
<path d="M282.67 273.046L257.556 256.129C257.798 256.069 258.043 256.022 258.289 255.989L259.073 255.868L282.248 271.469C282.343 271.729 282.424 271.993 282.489 272.262C282.559 272.524 282.62 272.775 282.67 273.046Z" fill="#37474F"/>
<path d="M280.229 283.945C280.148 284.106 280.058 284.257 279.958 284.418C279.536 285.151 279.074 285.914 278.571 286.698L246.155 264.879C246.757 264.176 247.35 263.503 247.933 262.87L248.304 262.478L280.229 283.945Z" fill="#263238"/>
<path d="M280.49 283.493C280.409 283.644 280.319 283.795 280.229 283.945C280.138 284.096 280.058 284.257 279.957 284.418L247.932 262.87L248.304 262.478C248.435 262.348 248.555 262.207 248.686 262.086L280.49 283.493Z" fill="#37474F"/>
<path d="M274.161 293.087L273.84 293.519C273.317 294.212 272.785 294.925 272.233 295.638L239.575 273.639L241.102 271.449L241.413 271.027L274.161 293.087Z" fill="#263238"/>
<path d="M274.473 292.655C274.362 292.795 274.262 292.946 274.161 293.087L273.84 293.519L241.062 271.419L241.373 270.997L241.674 270.555L274.473 292.655Z" fill="#37474F"/>
<path d="M267.361 301.716C267.25 301.856 267.14 301.997 267.009 302.138C266.456 302.821 265.864 303.504 265.281 304.147L233.668 282.86C234.12 282.097 234.572 281.333 235.034 280.58C235.135 280.429 235.215 280.279 235.315 280.118L267.361 301.716Z" fill="#263238"/>
<path d="M267.702 301.334L267.361 301.746C267.25 301.887 267.14 302.027 267.009 302.168L235.034 280.65C235.135 280.5 235.215 280.349 235.315 280.188L235.607 279.736L267.702 301.334Z" fill="#37474F"/>
<path d="M260.118 310.064C259.987 310.184 259.867 310.325 259.746 310.455C259.143 311.118 258.531 311.781 257.918 312.465L228.374 292.575C228.776 291.791 229.188 291.007 229.61 290.204C229.7 290.053 229.77 289.892 229.871 289.742L260.118 310.064Z" fill="#263238"/>
<path d="M260.469 309.662C260.359 309.802 260.238 309.923 260.118 310.064C259.997 310.204 259.867 310.325 259.746 310.455L229.61 290.174C229.7 290.023 229.77 289.862 229.871 289.711C229.943 289.545 230.026 289.384 230.122 289.229L260.469 309.662Z" fill="#37474F"/>
<path d="M252.433 318.09L252.041 318.472C251.371 319.141 250.702 319.774 250.032 320.37L223.703 302.61C224.034 301.786 224.386 300.962 224.768 300.118C224.838 299.948 224.918 299.787 224.979 299.616L252.433 318.09Z" fill="#263238"/>
<path d="M252.815 317.718L252.433 318.09L252.041 318.472L224.768 300.119C224.838 299.948 224.918 299.787 224.979 299.616C225.039 299.445 225.129 299.305 225.2 299.134L252.815 317.718Z" fill="#37474F"/>
<path d="M244.135 325.714L243.703 326.076C242.93 326.689 242.186 327.281 241.493 327.794L220.086 313.389C220.267 312.535 220.508 311.621 220.79 310.656L220.95 310.124L244.135 325.714Z" fill="#263238"/>
<path d="M244.597 325.363L244.175 325.714L243.743 326.076L220.79 310.656L220.95 310.124C220.95 309.953 221.061 309.772 221.121 309.591L244.597 325.363Z" fill="#37474F"/>
<path d="M232.854 331.35C232.513 331.35 232.181 331.35 231.85 331.35C229.677 331.197 227.583 330.476 225.776 329.259C223.969 328.043 222.513 326.374 221.553 324.419C221.392 324.117 221.242 323.796 221.101 323.474L232.854 331.35Z" fill="#263238"/>
<path d="M233.778 331.33C233.467 331.33 233.155 331.33 232.854 331.33C232.553 331.33 232.181 331.33 231.85 331.33L221.553 324.398C221.392 324.097 221.242 323.776 221.101 323.454C220.96 323.133 220.85 322.861 220.729 322.56L233.778 331.33Z" fill="#37474F"/>
<path d="M274.473 260.399C293.609 270.444 289.119 286.015 277.567 300.239C274.315 304.307 270.773 308.134 266.969 311.691C270.123 307.562 273.348 303.514 276.311 299.305C286.768 284.488 291.379 272.514 274.473 260.399V260.399Z" fill="#263238"/>
<path d="M272.514 304.569C272.495 305.935 272.178 307.28 271.585 308.51C270.991 309.741 270.136 310.826 269.078 311.691C270.033 309.23 271.182 306.848 272.514 304.569V304.569Z" fill="#263238"/>
<path d="M229.73 330.978C237.415 333.58 245.15 329.2 251.449 325.102C252.403 324.509 253.307 323.826 254.251 323.203C251.044 326.453 247.241 329.055 243.051 330.868C238.892 332.586 233.799 333.309 229.73 330.978V330.978Z" fill="#263238"/>
<path d="M253.829 326.006C252.999 326.922 251.956 327.619 250.793 328.036C249.63 328.453 248.382 328.577 247.159 328.397C247.703 328.134 248.259 327.9 248.826 327.693C250.464 327.101 252.101 326.458 253.849 326.006H253.829Z" fill="#263238"/>
<path d="M103.157 273.799C115.558 272.76 127.338 267.931 136.9 259.967C129.336 270.183 115.684 275.537 103.157 273.799Z" fill="#263238"/>
<path d="M105.759 200.357C114.549 184.053 126.442 183.722 140.727 193.697C144.5 196.319 147.864 199.484 150.712 203.089C147.323 200.108 143.687 197.419 139.843 195.053C125.227 186.183 116.507 186.102 105.759 200.367V200.357Z" fill="#263238"/>
<path d="M80.615 196.379C92.8403 192.361 98.506 191.055 107.577 199.011C115.463 205.922 124.363 248.957 117.683 267.029C117.141 268.605 116.29 270.057 115.179 271.299C114.068 272.541 112.72 273.548 111.214 274.262L80.615 196.379Z" fill="#C7C7C7"/>
<path d="M68.6608 207.288C63.6381 219.343 85.0551 268.757 95.0704 274.473C103.047 279.033 110.892 277.034 114.78 269.942C119.401 261.494 108.843 205.038 100.806 198.78C91.9061 191.838 74.0753 194.37 68.6608 207.288Z" fill="#455A64"/>
<path d="M100.776 198.76L68.0681 209.579C68.165 208.789 68.3642 208.016 68.6608 207.278C68.7713 206.997 68.9019 206.726 69.0325 206.454C69.13 206.225 69.2442 206.004 69.374 205.791L97.0594 196.61C97.3105 196.71 97.5416 196.821 97.7827 196.941C98.8478 197.429 99.8524 198.039 100.776 198.76Z" fill="#263238"/>
<path d="M97.7826 196.941L69.0325 206.455C69.13 206.226 69.2442 206.004 69.374 205.792C69.4946 205.55 69.6251 205.309 69.7557 205.098L96.2859 196.309C96.5486 196.396 96.8068 196.496 97.0594 196.61C97.3105 196.71 97.5416 196.861 97.7826 196.941Z" fill="#37474F"/>
<path d="M104.965 205.55C105.035 205.701 105.106 205.872 105.166 206.043C105.497 206.826 105.809 207.65 106.12 208.534L69.0324 220.829C68.8415 219.915 68.6707 219.041 68.5402 218.188C68.5402 218.017 68.4799 217.836 68.4397 217.655L104.965 205.55Z" fill="#263238"/>
<path d="M104.714 205.058C104.784 205.219 104.845 205.38 104.915 205.55C104.985 205.721 105.056 205.872 105.116 206.043L68.4901 218.188C68.4901 218.017 68.4298 217.836 68.3897 217.655C68.3495 217.474 68.3897 217.293 68.3193 217.113L104.714 205.058Z" fill="#37474F"/>
<path d="M108.431 215.948C108.431 216.108 108.521 216.289 108.572 216.46C108.813 217.304 109.044 218.158 109.265 219.031L71.8654 231.418C71.5841 230.564 71.3129 229.71 71.0618 228.876C71.0618 228.695 70.9714 228.534 70.9211 228.364L108.431 215.948Z" fill="#263238"/>
<path d="M108.28 215.425L108.431 215.937C108.431 216.098 108.521 216.279 108.571 216.45L71.0617 228.876C71.0617 228.695 70.9712 228.534 70.921 228.364C70.8708 228.193 70.8105 228.022 70.7502 227.861L108.28 215.425Z" fill="#37474F"/>
<path d="M111.093 226.596C111.144 226.767 111.184 226.942 111.213 227.118C111.414 227.992 111.595 228.866 111.776 229.75L75.6122 241.734C75.2706 240.911 74.9592 240.077 74.6076 239.253C74.5473 239.082 74.477 238.922 74.4167 238.751L111.093 226.596Z" fill="#263238"/>
<path d="M110.992 226.073C110.992 226.234 111.063 226.415 111.103 226.596C111.154 226.767 111.194 226.942 111.224 227.118L74.6278 239.253C74.5676 239.082 74.4972 238.921 74.437 238.751C74.3767 238.58 74.3164 238.409 74.2461 238.238L110.992 226.073Z" fill="#37474F"/>
<path d="M113.263 237.425C113.282 237.604 113.312 237.782 113.353 237.957C113.504 238.841 113.654 239.735 113.795 240.619L79.982 251.82C79.6103 251.016 79.2386 250.213 78.867 249.389C78.7966 249.228 78.7163 249.067 78.656 248.897L113.263 237.425Z" fill="#263238"/>
<path d="M113.162 236.902C113.162 237.073 113.223 237.254 113.263 237.425C113.282 237.604 113.313 237.782 113.353 237.957L78.847 249.389C78.7767 249.228 78.6963 249.067 78.636 248.897C78.5504 248.738 78.4765 248.574 78.415 248.404L113.162 236.902Z" fill="#37474F"/>
<path d="M114.91 248.425L114.971 248.967C115.091 249.891 115.192 250.785 115.282 251.669L85.0952 261.715C84.6432 260.951 84.2012 260.158 83.7692 259.344C83.6788 259.183 83.5985 259.023 83.5081 258.872L114.91 248.425Z" fill="#263238"/>
<path d="M114.85 247.882L114.91 248.425L114.97 248.967L83.7692 259.304C83.6787 259.143 83.5984 258.982 83.508 258.832L83.2568 258.359L114.85 247.882Z" fill="#37474F"/>
<path d="M115.865 259.645C115.865 259.846 115.865 260.027 115.865 260.208C115.865 261.212 115.865 262.137 115.865 263.011L91.3637 271.127C90.8011 270.458 90.2286 269.714 89.6459 268.897C89.5354 268.746 89.4249 268.606 89.3245 268.445L115.865 259.645Z" fill="#263238"/>
<path d="M115.845 259.143C115.845 259.334 115.845 259.515 115.845 259.696C115.845 259.876 115.845 260.077 115.845 260.258L89.6358 268.947C89.5253 268.797 89.4148 268.656 89.3144 268.495C89.1959 268.35 89.0884 268.195 88.9929 268.033L115.845 259.143Z" fill="#37474F"/>
<path d="M113.423 272.011C113.219 272.28 113.001 272.538 112.77 272.785C111.318 274.419 109.459 275.64 107.384 276.326C105.308 277.013 103.087 277.139 100.947 276.692C100.615 276.632 100.264 276.552 99.9424 276.471L113.423 272.011Z" fill="#263238"/>
<path d="M114.006 271.278C113.835 271.529 113.645 271.78 113.464 272.011C113.26 272.28 113.042 272.538 112.811 272.785L100.947 276.692C100.616 276.632 100.264 276.552 99.9425 276.471C99.6211 276.391 99.3197 276.311 99.0083 276.22L114.006 271.278Z" fill="#37474F"/>
<path d="M143.459 196.61C144.772 196.459 146.101 196.598 147.354 197.016C148.607 197.434 149.754 198.122 150.712 199.031C148.222 198.459 145.793 197.649 143.459 196.61V196.61Z" fill="#263238"/>
<path d="M106.974 198.489C116.216 204.516 119.119 226.445 119.25 236.902C118.798 235.235 118.436 233.557 118.065 231.88C116.99 227.048 115.875 221.714 114.669 216.962C113.882 213.678 112.93 210.436 111.816 207.248C110.631 204.114 109.425 200.869 106.974 198.479V198.489Z" fill="#263238"/>
<path d="M117.763 226.917C118.79 227.819 119.606 228.935 120.154 230.186C120.703 231.437 120.97 232.794 120.938 234.16C119.696 231.83 118.634 229.409 117.763 226.917V226.917Z" fill="#263238"/>
<path d="M114.006 272.735C118.697 267.199 119.19 259.806 120.033 252.915C120.626 259.786 119.782 268.154 114.006 272.735Z" fill="#263238"/>
<path d="M121.882 255.044C122.041 256.273 121.892 257.521 121.451 258.678C121.009 259.835 120.287 260.865 119.35 261.674C119.501 261.062 119.712 260.509 119.903 259.957C120.516 258.329 121.098 256.662 121.912 255.044H121.882Z" fill="#263238"/>
<path d="M148.583 209.92C147.337 218.419 148.703 253.759 161.501 256.25C174.299 258.741 174.721 239.916 188.624 226.405C188.624 226.405 179.714 215.998 168.101 211.487C156.489 206.977 148.583 209.92 148.583 209.92Z" fill="#C7C7C7"/>
<path d="M181.582 235.034C180.999 235.938 180.437 236.852 179.904 237.756C172.889 233.161 165.039 229.99 156.8 228.424C154.148 227.94 151.459 227.685 148.763 227.66C148.663 226.565 148.573 225.491 148.502 224.446C154.61 224.436 167.076 225.762 181.582 235.034Z" fill="#D880A6"/>
<path d="M184.897 230.463C184.224 231.317 183.571 232.181 182.958 233.045C167.599 223.512 154.439 222.286 148.362 222.336C148.301 221.221 148.261 220.136 148.241 219.112C154.791 219.021 168.654 220.277 184.897 230.463Z" fill="#D880A6"/>
<path d="M148.261 214.119C149.185 224.536 150.672 265.974 169.085 252.945C171.778 250.715 173.676 247.5 175.515 244.326C179.071 237.917 182.627 230.915 188.624 226.375C185.997 228.983 183.751 231.948 181.954 235.185C177.333 242.588 174.61 254.653 165.007 257.144C147.729 260.66 147.829 225.079 148.261 214.119V214.119Z" fill="#263238"/>
<path d="M182.958 233.025C184.626 231.747 186.378 230.583 188.202 229.539C187.619 230.454 186.852 231.236 185.949 231.837C185.046 232.437 184.027 232.842 182.958 233.025Z" fill="#263238"/>
<path d="M156.489 242.799C157.784 247.259 158.558 254.432 163.149 256.632C157.724 255.697 156.318 247.37 156.489 242.799Z" fill="#263238"/>
<path d="M163.068 241.724C163.691 246.325 163.4 253.538 167.619 256.38C162.395 254.663 162.224 246.224 163.068 241.724Z" fill="#263238"/>
<path d="M212.673 232.02C204.637 235.034 174.5 253.518 178.518 265.894C182.536 278.27 202.396 269.379 221.262 273.93C221.991 265.901 221.843 257.817 220.82 249.821C219.112 237.435 212.673 232.02 212.673 232.02Z" fill="#C7C7C7"/>
<path d="M206.836 272.433C205.762 272.433 204.687 272.433 203.632 272.494C204.157 264.273 203.089 256.029 200.488 248.214C199.614 245.655 198.518 243.178 197.213 240.81V240.81L198.569 239.896L198.85 239.715L199.855 239.012C202.879 244.266 207.72 255.577 206.836 272.433Z" fill="#D880A6"/>
<path d="M212.452 272.584C211.377 272.514 210.302 272.473 209.227 272.453C209.87 254.854 204.647 243.07 201.663 237.857C201.934 237.676 202.206 237.515 202.467 237.365C202.939 237.063 203.411 236.782 203.863 236.521L204.426 236.179C207.67 241.734 213.175 254.12 212.452 272.584Z" fill="#D880A6"/>
<path d="M208.825 233.748C201.02 239.173 169.97 257.676 181.441 268.616C185.52 272.433 191.487 272.242 196.861 272.333C204.385 272.202 212.08 272.102 219.524 273.468C211.96 272.855 204.456 273.377 196.901 273.85C191.316 274.061 184.546 274.261 180.085 270.032C166.795 256.642 198.88 238.801 208.825 233.748V233.748Z" fill="#263238"/>
<path d="M212.02 272.946C214.072 273.43 216.086 274.061 218.047 274.834C216.967 274.957 215.872 274.852 214.834 274.527C213.796 274.202 212.838 273.663 212.02 272.946Z" fill="#263238"/>
<path d="M187.81 254.934C184.546 258.229 178.669 262.408 178.99 267.491C177.152 262.297 183.732 257.013 187.81 254.934Z" fill="#263238"/>
<path d="M191.959 260.148C188.252 262.93 181.813 266.175 181.381 271.268C180.377 265.864 187.619 261.604 191.959 260.148Z" fill="#263238"/>
<path opacity="0.2" d="M156.378 187.74C140.536 170.542 130.079 146.393 129.677 124.072C129.275 101.75 135.704 78.7062 149.879 60.9759C164.053 43.2456 207.56 11.0097 272.283 23.8076C337.006 36.6055 369.623 85.9288 371.04 133.544C372.165 171.396 336.303 207.57 336.303 207.57C325.855 211.919 284.327 227.952 241.292 223.974C197.514 219.895 170.201 202.748 156.378 187.74Z" fill="#EBEBEB"/>
<path d="M156.378 187.74C141.963 171.888 132.118 151.516 129.948 130.109C128.23 108.732 132.962 86.5516 144.424 68.3291C155.886 50.1066 175.012 37.5598 194.802 29.5837C234.05 13.9329 283.383 19.0561 318.994 41.6383C351.14 61.7293 371.783 98.7067 371.422 136.659C370.969 152.922 364.39 168.392 356.092 182.124C350.459 191.307 343.895 199.884 336.503 207.72C321.666 213.796 306.246 218.34 290.485 221.282C245.662 230.152 189.126 221.904 156.378 187.74V187.74ZM156.378 187.74C189.186 221.784 245.652 229.871 290.405 220.89C306.049 217.892 321.359 213.356 336.112 207.349C339.795 203.455 343.257 199.357 346.479 195.073C359.166 178.126 369.965 158.236 370.648 136.648C371.06 93.4027 343.636 52.4171 304.458 34.6567C260.771 14.3749 206.183 16.4241 166.835 45.4757C139.793 64.2306 127.557 97.9934 130.109 130.099C132.208 151.486 142.003 171.868 156.358 187.75L156.378 187.74Z" fill="#263238"/>
<g opacity="0.6">
<path opacity="0.6" d="M160.567 83.6788C151.988 92.5389 157.403 117.954 168.473 117.18C177.514 116.538 182.998 106.532 184.113 99.8219C185.228 93.1115 183.018 83.95 176.479 81.1072C170.944 78.6963 163.711 80.4341 160.567 83.6788Z" fill="white"/>
<path opacity="0.6" d="M181.592 67.2744C178.508 69.5849 180.648 76.6669 184.445 77.993C188.242 79.319 192.22 74.7684 191.567 71.7949C190.914 68.8214 184.385 65.195 181.592 67.2744Z" fill="white"/>
<path opacity="0.6" d="M327.854 197.735C330.818 198.328 333.821 193.395 332.616 190.492C331.41 187.589 327.804 188.413 326.418 190.351C325.031 192.29 325.192 197.203 327.854 197.735Z" fill="white"/>
</g>
</svg>
