<svg width="39" height="39" viewBox="0 0 39 39" fill="none" xmlns="http://www.w3.org/2000/svg">
<path d="M8.125 34.125L30.875 34.125C31.7725 34.125 32.5 33.3975 32.5 32.5L32.5 16.25C32.5 15.3525 31.7725 14.625 30.875 14.625L8.125 14.625C7.22754 14.625 6.5 15.3525 6.5 16.25L6.5 32.5C6.5 33.3975 7.22754 34.125 8.125 34.125Z" stroke="#D880A6" stroke-width="4" stroke-linecap="round" stroke-linejoin="round"/>
<path d="M24 14.625V12.625V14.625ZM15 14.625L15 16.625H15L15 14.625ZM14.625 14.25H12.625H14.625ZM14.625 9.75H16.625H14.625ZM24.375 9.75L22.375 9.75L24.375 9.75ZM24.375 14.25H26.375H24.375ZM19.5 4.875L19.5 6.875L19.5 4.875ZM24 12.625L15 12.625L15 16.625L24 16.625L24 12.625ZM16.625 14.25L16.625 9.75H12.625L12.625 14.25H16.625ZM22.375 9.75L22.375 14.25H26.375L26.375 9.75L22.375 9.75ZM19.5 6.875C21.0878 6.875 22.375 8.16218 22.375 9.75L26.375 9.75C26.375 5.95304 23.297 2.875 19.5 2.875L19.5 6.875ZM16.625 9.75C16.625 8.16218 17.9122 6.875 19.5 6.875L19.5 2.875C15.703 2.875 12.625 5.95304 12.625 9.75H16.625ZM15 12.625C15.8975 12.625 16.625 13.3525 16.625 14.25H12.625C12.625 15.5617 13.6883 16.625 15 16.625L15 12.625ZM24 16.625C25.3117 16.625 26.375 15.5617 26.375 14.25H22.375C22.375 13.3525 23.1025 12.625 24 12.625V16.625Z" fill="#D880A6"/>
</svg>
