<svg width="1194" height="834" viewBox="0 0 1194 834" fill="none" xmlns="http://www.w3.org/2000/svg">
<rect width="1194" height="834" fill="url(#paint0_linear_116_106)"/>
<path d="M112 103C112 46.1147 158.115 0 215 0H1194V834H112V103Z" fill="white"/>
<path d="M40.2752 753.315C39.2757 754.268 39.2377 755.85 40.1903 756.85C41.143 757.849 42.7254 757.887 43.7249 756.935L40.2752 753.315ZM50 747.5L51.7249 749.31C52.2199 748.838 52.5 748.184 52.5 747.5C52.5 746.816 52.2199 746.162 51.7249 745.69L50 747.5ZM43.7249 738.065C42.7254 737.113 41.143 737.151 40.1903 738.15C39.2377 739.15 39.2757 740.732 40.2752 741.685L43.7249 738.065ZM20.6667 745C19.286 745 18.1667 746.119 18.1667 747.5C18.1667 748.881 19.286 750 20.6667 750L20.6667 745ZM43.7249 756.935L51.7249 749.31L48.2752 745.69L40.2752 753.315L43.7249 756.935ZM51.7249 745.69L43.7249 738.065L40.2752 741.685L48.2752 749.31L51.7249 745.69ZM20.6667 750L50 750V745L20.6667 745L20.6667 750Z" fill="white"/>
<path d="M34 734.792V729.708C34 728.305 35.1939 727.167 36.6667 727.167H60.6667C62.1394 727.167 63.3333 728.305 63.3333 729.708V765.292C63.3333 766.695 62.1394 767.833 60.6667 767.833H36.6667C35.1939 767.833 34 766.695 34 765.292V760.208" stroke="white" stroke-width="5" stroke-linecap="round" stroke-linejoin="round"/>
<path d="M64.7916 68.5C66.4485 68.5 67.7916 67.1569 67.7916 65.5C67.7916 63.8431 66.4485 62.5 64.7916 62.5V68.5ZM36.2083 62.5C34.5515 62.5 33.2083 63.8431 33.2083 65.5C33.2083 67.1569 34.5515 68.5 36.2083 68.5L36.2083 62.5ZM64.7916 62.5L36.2083 62.5L36.2083 68.5L64.7916 68.5V62.5Z" fill="white"/>
<path d="M46.337 79.8713C47.5086 81.0429 49.4081 81.0429 50.5796 79.8713C51.7512 78.6997 51.7512 76.8003 50.5796 75.6287L46.337 79.8713ZM36.2083 65.5L34.087 63.3787C33.5244 63.9413 33.2083 64.7043 33.2083 65.5C33.2083 66.2956 33.5244 67.0587 34.087 67.6213L36.2083 65.5ZM50.5796 55.3713C51.7512 54.1997 51.7512 52.3003 50.5796 51.1287C49.4081 49.9571 47.5086 49.9571 46.337 51.1287L50.5796 55.3713ZM50.5796 75.6287L38.3296 63.3787L34.087 67.6213L46.337 79.8713L50.5796 75.6287ZM38.3296 67.6213L50.5796 55.3713L46.337 51.1287L34.087 63.3787L38.3296 67.6213Z" fill="white"/>
<path d="M366 138C366 133.582 369.582 130 374 130H814.52C816.642 130 818.677 130.843 820.178 132.344L878.868 191.053L878.906 191.093L937.812 253.365C939.217 254.851 940 256.818 940 258.863V696C940 700.418 936.418 704 932 704H374C369.582 704 366 700.418 366 696V138Z" fill="#D880A6" stroke="#C75C94" stroke-width="4"/>
<path d="M818.325 131.825L877.4 188.35L933.146 248.771L824.911 248.375C820.464 248.359 816.884 244.72 816.941 240.273L818.325 131.825Z" fill="#C75C93"/>
<path d="M568.925 76.432C566.357 76.432 564.029 75.88 561.941 74.776C559.877 73.648 558.245 72.1 557.045 70.132C555.869 68.14 555.281 65.896 555.281 63.4C555.281 60.904 555.869 58.672 557.045 56.704C558.245 54.712 559.877 53.164 561.941 52.06C564.029 50.932 566.369 50.368 568.961 50.368C571.145 50.368 573.113 50.752 574.865 51.52C576.641 52.288 578.129 53.392 579.329 54.832L575.585 58.288C573.881 56.32 571.769 55.336 569.249 55.336C567.689 55.336 566.297 55.684 565.073 56.38C563.849 57.052 562.889 58 562.193 59.224C561.521 60.448 561.185 61.84 561.185 63.4C561.185 64.96 561.521 66.352 562.193 67.576C562.889 68.8 563.849 69.76 565.073 70.456C566.297 71.128 567.689 71.464 569.249 71.464C571.769 71.464 573.881 70.468 575.585 68.476L579.329 71.932C578.129 73.396 576.641 74.512 574.865 75.28C573.089 76.048 571.109 76.432 568.925 76.432ZM588.235 59.188C588.907 58.252 589.807 57.544 590.935 57.064C592.087 56.584 593.407 56.344 594.895 56.344V61.528C594.271 61.48 593.851 61.456 593.635 61.456C592.027 61.456 590.767 61.912 589.855 62.824C588.943 63.712 588.487 65.056 588.487 66.856V76H582.871V56.632H588.235V59.188ZM617.031 66.388C617.031 66.46 616.995 66.964 616.923 67.9H602.271C602.535 69.1 603.159 70.048 604.143 70.744C605.127 71.44 606.351 71.788 607.815 71.788C608.823 71.788 609.711 71.644 610.479 71.356C611.271 71.044 612.003 70.564 612.675 69.916L615.663 73.156C613.839 75.244 611.175 76.288 607.671 76.288C605.487 76.288 603.555 75.868 601.875 75.028C600.195 74.164 598.899 72.976 597.987 71.464C597.075 69.952 596.619 68.236 596.619 66.316C596.619 64.42 597.063 62.716 597.951 61.204C598.863 59.668 600.099 58.48 601.659 57.64C603.243 56.776 605.007 56.344 606.951 56.344C608.847 56.344 610.563 56.752 612.099 57.568C613.635 58.384 614.835 59.56 615.699 61.096C616.587 62.608 617.031 64.372 617.031 66.388ZM606.987 60.592C605.715 60.592 604.647 60.952 603.783 61.672C602.919 62.392 602.391 63.376 602.199 64.624H611.739C611.547 63.4 611.019 62.428 610.155 61.708C609.291 60.964 608.235 60.592 606.987 60.592ZM628.054 56.344C631.054 56.344 633.358 57.064 634.966 58.504C636.574 59.92 637.378 62.068 637.378 64.948V76H632.122V73.588C631.066 75.388 629.098 76.288 626.218 76.288C624.73 76.288 623.434 76.036 622.33 75.532C621.25 75.028 620.422 74.332 619.846 73.444C619.27 72.556 618.982 71.548 618.982 70.42C618.982 68.62 619.654 67.204 620.998 66.172C622.366 65.14 624.466 64.624 627.298 64.624H631.762C631.762 63.4 631.39 62.464 630.646 61.816C629.902 61.144 628.786 60.808 627.298 60.808C626.266 60.808 625.246 60.976 624.238 61.312C623.254 61.624 622.414 62.056 621.718 62.608L619.702 58.684C620.758 57.94 622.018 57.364 623.482 56.956C624.97 56.548 626.494 56.344 628.054 56.344ZM627.622 72.508C628.582 72.508 629.434 72.292 630.178 71.86C630.922 71.404 631.45 70.744 631.762 69.88V67.9H627.91C625.606 67.9 624.454 68.656 624.454 70.168C624.454 70.888 624.73 71.464 625.282 71.896C625.858 72.304 626.638 72.508 627.622 72.508ZM647.825 59.188C648.497 58.252 649.397 57.544 650.525 57.064C651.677 56.584 652.997 56.344 654.485 56.344V61.528C653.861 61.48 653.441 61.456 653.225 61.456C651.617 61.456 650.357 61.912 649.445 62.824C648.533 63.712 648.077 65.056 648.077 66.856V76H642.461V56.632H647.825V59.188ZM679.932 56.344C682.332 56.344 684.264 57.064 685.728 58.504C687.216 59.944 687.96 62.08 687.96 64.912V76H682.344V65.776C682.344 64.24 682.008 63.1 681.336 62.356C680.664 61.588 679.692 61.204 678.42 61.204C677.004 61.204 675.876 61.648 675.036 62.536C674.196 63.4 673.776 64.696 673.776 66.424V76H668.16V56.632H673.524V58.9C674.268 58.084 675.192 57.46 676.296 57.028C677.4 56.572 678.612 56.344 679.932 56.344ZM702.478 76.288C700.438 76.288 698.602 75.868 696.97 75.028C695.362 74.164 694.102 72.976 693.19 71.464C692.278 69.952 691.822 68.236 691.822 66.316C691.822 64.396 692.278 62.68 693.19 61.168C694.102 59.656 695.362 58.48 696.97 57.64C698.602 56.776 700.438 56.344 702.478 56.344C704.518 56.344 706.342 56.776 707.95 57.64C709.558 58.48 710.818 59.656 711.73 61.168C712.642 62.68 713.098 64.396 713.098 66.316C713.098 68.236 712.642 69.952 711.73 71.464C710.818 72.976 709.558 74.164 707.95 75.028C706.342 75.868 704.518 76.288 702.478 76.288ZM702.478 71.68C703.918 71.68 705.094 71.2 706.006 70.24C706.942 69.256 707.41 67.948 707.41 66.316C707.41 64.684 706.942 63.388 706.006 62.428C705.094 61.444 703.918 60.952 702.478 60.952C701.038 60.952 699.85 61.444 698.914 62.428C697.978 63.388 697.51 64.684 697.51 66.316C697.51 67.948 697.978 69.256 698.914 70.24C699.85 71.2 701.038 71.68 702.478 71.68ZM729.344 75.064C728.792 75.472 728.108 75.784 727.292 76C726.5 76.192 725.66 76.288 724.772 76.288C722.468 76.288 720.68 75.7 719.408 74.524C718.16 73.348 717.536 71.62 717.536 69.34V61.384H714.548V57.064H717.536V52.348H723.152V57.064H727.976V61.384H723.152V69.268C723.152 70.084 723.356 70.72 723.764 71.176C724.196 71.608 724.796 71.824 725.564 71.824C726.452 71.824 727.208 71.584 727.832 71.104L729.344 75.064ZM740.308 56.344C743.308 56.344 745.612 57.064 747.22 58.504C748.828 59.92 749.632 62.068 749.632 64.948V76H744.376V73.588C743.32 75.388 741.352 76.288 738.472 76.288C736.984 76.288 735.688 76.036 734.584 75.532C733.504 75.028 732.676 74.332 732.1 73.444C731.524 72.556 731.236 71.548 731.236 70.42C731.236 68.62 731.908 67.204 733.252 66.172C734.62 65.14 736.72 64.624 739.552 64.624H744.016C744.016 63.4 743.644 62.464 742.9 61.816C742.156 61.144 741.04 60.808 739.552 60.808C738.52 60.808 737.5 60.976 736.492 61.312C735.508 61.624 734.668 62.056 733.972 62.608L731.956 58.684C733.012 57.94 734.272 57.364 735.736 56.956C737.224 56.548 738.748 56.344 740.308 56.344ZM739.876 72.508C740.836 72.508 741.688 72.292 742.432 71.86C743.176 71.404 743.704 70.744 744.016 69.88V67.9H740.164C737.86 67.9 736.708 68.656 736.708 70.168C736.708 70.888 736.984 71.464 737.536 71.896C738.112 72.304 738.892 72.508 739.876 72.508Z" fill="#D880A6"/>
<path d="M835 60.278L820.441 59.3139L813.606 73L814.234 57.7645L801 51.722L815.698 51.8597L822.376 39L822.028 53.4435L835 60.278Z" fill="#D880A6"/>
<path d="M506 63.278L491.441 62.3139L484.606 76L485.234 60.7645L472 54.722L486.698 54.8597L493.376 42L493.028 56.4435L506 63.278Z" fill="#D880A6"/>
<rect x="382" y="297" width="537" height="304" rx="15" fill="#FDE6F0" fill-opacity="0.56"/>
<rect x="382" y="182" width="419" height="58" rx="4" fill="#EDB9CF"/>
<path d="M392.224 154.64H387.744V152H399.944V154.64H395.464V166H392.224V154.64ZM401.233 155.24H404.353V166H401.233V155.24ZM402.793 153.74C402.22 153.74 401.753 153.573 401.393 153.24C401.033 152.907 400.853 152.493 400.853 152C400.853 151.507 401.033 151.093 401.393 150.76C401.753 150.427 402.22 150.26 402.793 150.26C403.366 150.26 403.833 150.42 404.193 150.74C404.553 151.06 404.733 151.46 404.733 151.94C404.733 152.46 404.553 152.893 404.193 153.24C403.833 153.573 403.366 153.74 402.793 153.74ZM414.189 165.48C413.882 165.707 413.502 165.88 413.049 166C412.609 166.107 412.142 166.16 411.649 166.16C410.369 166.16 409.375 165.833 408.669 165.18C407.975 164.527 407.629 163.567 407.629 162.3V157.88H405.969V155.48H407.629V152.86H410.749V155.48H413.429V157.88H410.749V162.26C410.749 162.713 410.862 163.067 411.089 163.32C411.329 163.56 411.662 163.68 412.089 163.68C412.582 163.68 413.002 163.547 413.349 163.28L414.189 165.48ZM426.78 155.24V166H423.82V164.72C423.407 165.187 422.913 165.547 422.34 165.8C421.767 166.04 421.147 166.16 420.48 166.16C419.067 166.16 417.947 165.753 417.12 164.94C416.293 164.127 415.88 162.92 415.88 161.32V155.24H419V160.86C419 162.593 419.727 163.46 421.18 163.46C421.927 163.46 422.527 163.22 422.98 162.74C423.433 162.247 423.66 161.52 423.66 160.56V155.24H426.78ZM429.67 151.16H432.79V166H429.67V151.16ZM440.806 166.16C439.673 166.16 438.653 165.927 437.746 165.46C436.853 164.98 436.153 164.32 435.646 163.48C435.139 162.64 434.886 161.687 434.886 160.62C434.886 159.553 435.139 158.6 435.646 157.76C436.153 156.92 436.853 156.267 437.746 155.8C438.653 155.32 439.673 155.08 440.806 155.08C441.939 155.08 442.953 155.32 443.846 155.8C444.739 156.267 445.439 156.92 445.946 157.76C446.453 158.6 446.706 159.553 446.706 160.62C446.706 161.687 446.453 162.64 445.946 163.48C445.439 164.32 444.739 164.98 443.846 165.46C442.953 165.927 441.939 166.16 440.806 166.16ZM440.806 163.6C441.606 163.6 442.259 163.333 442.766 162.8C443.286 162.253 443.546 161.527 443.546 160.62C443.546 159.713 443.286 158.993 442.766 158.46C442.259 157.913 441.606 157.64 440.806 157.64C440.006 157.64 439.346 157.913 438.826 158.46C438.306 158.993 438.046 159.713 438.046 160.62C438.046 161.527 438.306 162.253 438.826 162.8C439.346 163.333 440.006 163.6 440.806 163.6Z" fill="white"/>
<path d="M383.66 269H390.02C391.54 269 392.88 269.293 394.04 269.88C395.213 270.453 396.12 271.267 396.76 272.32C397.413 273.373 397.74 274.6 397.74 276C397.74 277.4 397.413 278.627 396.76 279.68C396.12 280.733 395.213 281.553 394.04 282.14C392.88 282.713 391.54 283 390.02 283H383.66V269ZM389.86 280.34C391.26 280.34 392.373 279.953 393.2 279.18C394.04 278.393 394.46 277.333 394.46 276C394.46 274.667 394.04 273.613 393.2 272.84C392.373 272.053 391.26 271.66 389.86 271.66H386.9V280.34H389.86ZM410.503 277.66C410.503 277.7 410.483 277.98 410.443 278.5H402.303C402.45 279.167 402.797 279.693 403.343 280.08C403.89 280.467 404.57 280.66 405.383 280.66C405.943 280.66 406.437 280.58 406.863 280.42C407.303 280.247 407.71 279.98 408.083 279.62L409.743 281.42C408.73 282.58 407.25 283.16 405.303 283.16C404.09 283.16 403.017 282.927 402.083 282.46C401.15 281.98 400.43 281.32 399.923 280.48C399.417 279.64 399.163 278.687 399.163 277.62C399.163 276.567 399.41 275.62 399.903 274.78C400.41 273.927 401.097 273.267 401.963 272.8C402.843 272.32 403.823 272.08 404.903 272.08C405.957 272.08 406.91 272.307 407.763 272.76C408.617 273.213 409.283 273.867 409.763 274.72C410.257 275.56 410.503 276.54 410.503 277.66ZM404.923 274.44C404.217 274.44 403.623 274.64 403.143 275.04C402.663 275.44 402.37 275.987 402.263 276.68H407.563C407.457 276 407.163 275.46 406.683 275.06C406.203 274.647 405.617 274.44 404.923 274.44ZM416.201 283.16C415.307 283.16 414.434 283.053 413.581 282.84C412.727 282.613 412.047 282.333 411.541 282L412.581 279.76C413.061 280.067 413.641 280.32 414.321 280.52C415.001 280.707 415.667 280.8 416.321 280.8C417.641 280.8 418.301 280.473 418.301 279.82C418.301 279.513 418.121 279.293 417.761 279.16C417.401 279.027 416.847 278.913 416.101 278.82C415.221 278.687 414.494 278.533 413.921 278.36C413.347 278.187 412.847 277.88 412.421 277.44C412.007 277 411.801 276.373 411.801 275.56C411.801 274.88 411.994 274.28 412.381 273.76C412.781 273.227 413.354 272.813 414.101 272.52C414.861 272.227 415.754 272.08 416.781 272.08C417.541 272.08 418.294 272.167 419.041 272.34C419.801 272.5 420.427 272.727 420.921 273.02L419.881 275.24C418.934 274.707 417.901 274.44 416.781 274.44C416.114 274.44 415.614 274.533 415.281 274.72C414.947 274.907 414.781 275.147 414.781 275.44C414.781 275.773 414.961 276.007 415.321 276.14C415.681 276.273 416.254 276.4 417.041 276.52C417.921 276.667 418.641 276.827 419.201 277C419.761 277.16 420.247 277.46 420.661 277.9C421.074 278.34 421.281 278.953 421.281 279.74C421.281 280.407 421.081 281 420.681 281.52C420.281 282.04 419.694 282.447 418.921 282.74C418.161 283.02 417.254 283.16 416.201 283.16ZM428.406 283.16C427.259 283.16 426.226 282.927 425.306 282.46C424.399 281.98 423.686 281.32 423.166 280.48C422.659 279.64 422.406 278.687 422.406 277.62C422.406 276.553 422.659 275.6 423.166 274.76C423.686 273.92 424.399 273.267 425.306 272.8C426.226 272.32 427.259 272.08 428.406 272.08C429.539 272.08 430.526 272.32 431.366 272.8C432.219 273.267 432.839 273.94 433.226 274.82L430.806 276.12C430.246 275.133 429.439 274.64 428.386 274.64C427.572 274.64 426.899 274.907 426.366 275.44C425.832 275.973 425.566 276.7 425.566 277.62C425.566 278.54 425.832 279.267 426.366 279.8C426.899 280.333 427.572 280.6 428.386 280.6C429.452 280.6 430.259 280.107 430.806 279.12L433.226 280.44C432.839 281.293 432.219 281.96 431.366 282.44C430.526 282.92 429.539 283.16 428.406 283.16ZM438.002 273.66C438.375 273.14 438.875 272.747 439.502 272.48C440.142 272.213 440.875 272.08 441.702 272.08V274.96C441.355 274.933 441.122 274.92 441.002 274.92C440.109 274.92 439.409 275.173 438.902 275.68C438.395 276.173 438.142 276.92 438.142 277.92V283H435.022V272.24H438.002V273.66ZM443.557 272.24H446.677V283H443.557V272.24ZM445.117 270.74C444.544 270.74 444.077 270.573 443.717 270.24C443.357 269.907 443.177 269.493 443.177 269C443.177 268.507 443.357 268.093 443.717 267.76C444.077 267.427 444.544 267.26 445.117 267.26C445.691 267.26 446.157 267.42 446.517 267.74C446.877 268.06 447.057 268.46 447.057 268.94C447.057 269.46 446.877 269.893 446.517 270.24C446.157 270.573 445.691 270.74 445.117 270.74ZM455.933 272.08C456.933 272.08 457.839 272.313 458.653 272.78C459.479 273.233 460.126 273.88 460.593 274.72C461.059 275.547 461.293 276.513 461.293 277.62C461.293 278.727 461.059 279.7 460.593 280.54C460.126 281.367 459.479 282.013 458.653 282.48C457.839 282.933 456.933 283.16 455.933 283.16C454.559 283.16 453.479 282.727 452.693 281.86V286.88H449.573V272.24H452.553V273.48C453.326 272.547 454.453 272.08 455.933 272.08ZM455.393 280.6C456.193 280.6 456.846 280.333 457.353 279.8C457.873 279.253 458.133 278.527 458.133 277.62C458.133 276.713 457.873 275.993 457.353 275.46C456.846 274.913 456.193 274.64 455.393 274.64C454.593 274.64 453.933 274.913 453.413 275.46C452.906 275.993 452.653 276.713 452.653 277.62C452.653 278.527 452.906 279.253 453.413 279.8C453.933 280.333 454.593 280.6 455.393 280.6ZM468.581 283.16C467.435 283.16 466.401 282.927 465.481 282.46C464.575 281.98 463.861 281.32 463.341 280.48C462.835 279.64 462.581 278.687 462.581 277.62C462.581 276.553 462.835 275.6 463.341 274.76C463.861 273.92 464.575 273.267 465.481 272.8C466.401 272.32 467.435 272.08 468.581 272.08C469.715 272.08 470.701 272.32 471.541 272.8C472.395 273.267 473.015 273.94 473.401 274.82L470.981 276.12C470.421 275.133 469.615 274.64 468.561 274.64C467.748 274.64 467.075 274.907 466.541 275.44C466.008 275.973 465.741 276.7 465.741 277.62C465.741 278.54 466.008 279.267 466.541 279.8C467.075 280.333 467.748 280.6 468.561 280.6C469.628 280.6 470.435 280.107 470.981 279.12L473.401 280.44C473.015 281.293 472.395 281.96 471.541 282.44C470.701 282.92 469.715 283.16 468.581 283.16ZM475.198 272.24H478.318V283H475.198V272.24ZM476.758 270.74C476.184 270.74 475.718 270.573 475.358 270.24C474.998 269.907 474.818 269.493 474.818 269C474.818 268.507 474.998 268.093 475.358 267.76C475.718 267.427 476.184 267.26 476.758 267.26C477.331 267.26 477.798 267.42 478.158 267.74C478.518 268.06 478.698 268.46 478.698 268.94C478.698 269.46 478.518 269.893 478.158 270.24C477.798 270.573 477.331 270.74 476.758 270.74ZM486.333 283.16C485.2 283.16 484.18 282.927 483.273 282.46C482.38 281.98 481.68 281.32 481.173 280.48C480.667 279.64 480.413 278.687 480.413 277.62C480.413 276.553 480.667 275.6 481.173 274.76C481.68 273.92 482.38 273.267 483.273 272.8C484.18 272.32 485.2 272.08 486.333 272.08C487.467 272.08 488.48 272.32 489.373 272.8C490.267 273.267 490.967 273.92 491.473 274.76C491.98 275.6 492.233 276.553 492.233 277.62C492.233 278.687 491.98 279.64 491.473 280.48C490.967 281.32 490.267 281.98 489.373 282.46C488.48 282.927 487.467 283.16 486.333 283.16ZM486.333 280.6C487.133 280.6 487.787 280.333 488.293 279.8C488.813 279.253 489.073 278.527 489.073 277.62C489.073 276.713 488.813 275.993 488.293 275.46C487.787 274.913 487.133 274.64 486.333 274.64C485.533 274.64 484.873 274.913 484.353 275.46C483.833 275.993 483.573 276.713 483.573 277.62C483.573 278.527 483.833 279.253 484.353 279.8C484.873 280.333 485.533 280.6 486.333 280.6ZM500.859 272.08C502.192 272.08 503.266 272.48 504.079 273.28C504.906 274.08 505.319 275.267 505.319 276.84V283H502.199V277.32C502.199 276.467 502.012 275.833 501.639 275.42C501.266 274.993 500.726 274.78 500.019 274.78C499.232 274.78 498.606 275.027 498.139 275.52C497.672 276 497.439 276.72 497.439 277.68V283H494.319V272.24H497.299V273.5C497.712 273.047 498.226 272.7 498.839 272.46C499.452 272.207 500.126 272.08 500.859 272.08Z" fill="white"/>
<rect x="740.5" y="624.5" width="177" height="56" rx="28" fill="white" stroke="#C75C93" stroke-width="3"/>
<path d="M797.12 652.78H800.08V658.46C799.32 659.033 798.44 659.473 797.44 659.78C796.44 660.087 795.433 660.24 794.42 660.24C792.967 660.24 791.66 659.933 790.5 659.32C789.34 658.693 788.427 657.833 787.76 656.74C787.107 655.633 786.78 654.387 786.78 653C786.78 651.613 787.107 650.373 787.76 649.28C788.427 648.173 789.347 647.313 790.52 646.7C791.693 646.073 793.013 645.76 794.48 645.76C795.707 645.76 796.82 645.967 797.82 646.38C798.82 646.793 799.66 647.393 800.34 648.18L798.26 650.1C797.26 649.047 796.053 648.52 794.64 648.52C793.747 648.52 792.953 648.707 792.26 649.08C791.567 649.453 791.027 649.98 790.64 650.66C790.253 651.34 790.06 652.12 790.06 653C790.06 653.867 790.253 654.64 790.64 655.32C791.027 656 791.56 656.533 792.24 656.92C792.933 657.293 793.72 657.48 794.6 657.48C795.533 657.48 796.373 657.28 797.12 656.88V652.78ZM813.71 649.24V660H810.75V658.72C810.336 659.187 809.843 659.547 809.27 659.8C808.696 660.04 808.076 660.16 807.41 660.16C805.996 660.16 804.876 659.753 804.05 658.94C803.223 658.127 802.81 656.92 802.81 655.32V649.24H805.93V654.86C805.93 656.593 806.656 657.46 808.11 657.46C808.856 657.46 809.456 657.22 809.91 656.74C810.363 656.247 810.59 655.52 810.59 654.56V649.24H813.71ZM820.94 649.08C822.607 649.08 823.887 649.48 824.78 650.28C825.673 651.067 826.12 652.26 826.12 653.86V660H823.2V658.66C822.613 659.66 821.52 660.16 819.92 660.16C819.093 660.16 818.373 660.02 817.76 659.74C817.16 659.46 816.7 659.073 816.38 658.58C816.06 658.087 815.9 657.527 815.9 656.9C815.9 655.9 816.273 655.113 817.02 654.54C817.78 653.967 818.947 653.68 820.52 653.68H823C823 653 822.793 652.48 822.38 652.12C821.967 651.747 821.347 651.56 820.52 651.56C819.947 651.56 819.38 651.653 818.82 651.84C818.273 652.013 817.807 652.253 817.42 652.56L816.3 650.38C816.887 649.967 817.587 649.647 818.4 649.42C819.227 649.193 820.073 649.08 820.94 649.08ZM820.7 658.06C821.233 658.06 821.707 657.94 822.12 657.7C822.533 657.447 822.827 657.08 823 656.6V655.5H820.86C819.58 655.5 818.94 655.92 818.94 656.76C818.94 657.16 819.093 657.48 819.4 657.72C819.72 657.947 820.153 658.06 820.7 658.06ZM831.924 650.66C832.297 650.14 832.797 649.747 833.424 649.48C834.064 649.213 834.797 649.08 835.624 649.08V651.96C835.277 651.933 835.044 651.92 834.924 651.92C834.031 651.92 833.331 652.173 832.824 652.68C832.317 653.173 832.064 653.92 832.064 654.92V660H828.944V649.24H831.924V650.66ZM848.341 645.16V660H845.361V658.76C844.588 659.693 843.468 660.16 842.001 660.16C840.988 660.16 840.068 659.933 839.241 659.48C838.428 659.027 837.788 658.38 837.321 657.54C836.855 656.7 836.621 655.727 836.621 654.62C836.621 653.513 836.855 652.54 837.321 651.7C837.788 650.86 838.428 650.213 839.241 649.76C840.068 649.307 840.988 649.08 842.001 649.08C843.375 649.08 844.448 649.513 845.221 650.38V645.16H848.341ZM842.541 657.6C843.328 657.6 843.981 657.333 844.501 656.8C845.021 656.253 845.281 655.527 845.281 654.62C845.281 653.713 845.021 652.993 844.501 652.46C843.981 651.913 843.328 651.64 842.541 651.64C841.741 651.64 841.081 651.913 840.561 652.46C840.041 652.993 839.781 653.713 839.781 654.62C839.781 655.527 840.041 656.253 840.561 656.8C841.081 657.333 841.741 657.6 842.541 657.6ZM855.569 649.08C857.236 649.08 858.516 649.48 859.409 650.28C860.302 651.067 860.749 652.26 860.749 653.86V660H857.829V658.66C857.242 659.66 856.149 660.16 854.549 660.16C853.722 660.16 853.002 660.02 852.389 659.74C851.789 659.46 851.329 659.073 851.009 658.58C850.689 658.087 850.529 657.527 850.529 656.9C850.529 655.9 850.902 655.113 851.649 654.54C852.409 653.967 853.576 653.68 855.149 653.68H857.629C857.629 653 857.422 652.48 857.009 652.12C856.596 651.747 855.976 651.56 855.149 651.56C854.576 651.56 854.009 651.653 853.449 651.84C852.902 652.013 852.436 652.253 852.049 652.56L850.929 650.38C851.516 649.967 852.216 649.647 853.029 649.42C853.856 649.193 854.702 649.08 855.569 649.08ZM855.329 658.06C855.862 658.06 856.336 657.94 856.749 657.7C857.162 657.447 857.456 657.08 857.629 656.6V655.5H855.489C854.209 655.5 853.569 655.92 853.569 656.76C853.569 657.16 853.722 657.48 854.029 657.72C854.349 657.947 854.782 658.06 855.329 658.06ZM866.553 650.66C866.926 650.14 867.426 649.747 868.053 649.48C868.693 649.213 869.426 649.08 870.253 649.08V651.96C869.906 651.933 869.673 651.92 869.553 651.92C868.659 651.92 867.959 652.173 867.453 652.68C866.946 653.173 866.693 653.92 866.693 654.92V660H863.573V649.24H866.553V650.66Z" fill="#D880A6"/>
<defs>
<linearGradient id="paint0_linear_116_106" x1="597" y1="0" x2="597" y2="901" gradientUnits="userSpaceOnUse">
<stop stop-color="#FEE1E2"/>
<stop offset="0.0001" stop-color="#FEE1E2"/>
<stop offset="0.3125" stop-color="#FCC0C0"/>
<stop offset="0.588542" stop-color="#D63197"/>
<stop offset="1" stop-color="#7E3793"/>
</linearGradient>
</defs>
</svg>
