<svg width="578" height="578" viewBox="0 0 578 578" fill="none" xmlns="http://www.w3.org/2000/svg">
<path d="M568 576H9.99999C5.58172 576 2 572.418 2 568V9.99999C2 5.58172 5.58172 2 10 2H450.52C452.642 2 454.677 2.84323 456.178 4.34411L514.868 63.0535L514.906 63.093L573.812 125.365C575.217 126.851 576 128.818 576 130.863V568C576 572.418 572.418 576 568 576Z" fill="#D880A6" stroke="#C75C94" stroke-width="4"/>
<path d="M454.325 3.82517L513.4 60.35L569.146 120.771L460.911 120.375C456.464 120.359 452.884 116.72 452.941 112.273L454.325 3.82517Z" fill="#C75C93"/>
</svg>
