<svg width="61" height="61" viewBox="0 0 61 61" fill="none" xmlns="http://www.w3.org/2000/svg">
<path d="M18.2618 49.8294L20.1369 46.874C19.2483 46.3103 18.1533 46.1762 17.155 46.509L18.2618 49.8294ZM7.625 53.375L4.30461 52.2682C3.88538 53.5259 4.21271 54.9125 5.15013 55.8499C6.08754 56.7873 7.47413 57.1146 8.7318 56.6954L7.625 53.375ZM11.1706 42.7382L14.491 43.845C14.8238 42.8467 14.6897 41.7517 14.126 40.8631L11.1706 42.7382ZM30.5 56.875C45.0665 56.875 56.875 45.0665 56.875 30.5H49.875C49.875 41.2005 41.2005 49.875 30.5 49.875V56.875ZM16.3867 52.7848C20.4698 55.3753 25.3151 56.875 30.5 56.875V49.875C26.682 49.875 23.1318 48.7742 20.1369 46.874L16.3867 52.7848ZM17.155 46.509L6.5182 50.0546L8.7318 56.6954L19.3686 53.1498L17.155 46.509ZM10.9454 54.4818L14.491 43.845L7.85021 41.6314L4.30461 52.2682L10.9454 54.4818ZM4.125 30.5C4.125 35.6849 5.62466 40.5302 8.21524 44.6133L14.126 40.8631C12.2258 37.8682 11.125 34.318 11.125 30.5H4.125ZM30.5 4.125C15.9335 4.125 4.125 15.9335 4.125 30.5H11.125C11.125 19.7995 19.7995 11.125 30.5 11.125V4.125ZM56.875 30.5C56.875 15.9335 45.0665 4.125 30.5 4.125V11.125C41.2005 11.125 49.875 19.7995 49.875 30.5H56.875Z" fill="#E9374E"/>
<path d="M22.9419 33.1085C21.575 34.4753 21.575 36.6914 22.9419 38.0582C24.3087 39.425 26.5248 39.425 27.8916 38.0582L22.9419 33.1085ZM38.0582 27.8916C39.425 26.5248 39.425 24.3087 38.0582 22.9419C36.6914 21.575 34.4753 21.575 33.1085 22.9419L38.0582 27.8916ZM27.8916 38.0582L38.0582 27.8916L33.1085 22.9419L22.9419 33.1085L27.8916 38.0582Z" fill="#E9374E"/>
<path d="M27.8916 22.9419C26.5248 21.575 24.3087 21.575 22.9419 22.9419C21.575 24.3087 21.575 26.5248 22.9419 27.8916L27.8916 22.9419ZM33.1085 38.0582C34.4753 39.425 36.6914 39.425 38.0582 38.0582C39.425 36.6914 39.425 34.4753 38.0582 33.1085L33.1085 38.0582ZM22.9419 27.8916L33.1085 38.0582L38.0582 33.1085L27.8916 22.9419L22.9419 27.8916Z" fill="#E9374E"/>
</svg>
